Tajawal-ExtraBold.ufo
<glyph name="exclam" format="1">
 <advance width="302" />
 <unicode hex="0021" />
 <outline>
  <contour>
   <point x="75" y="187" type="line" smooth="no" name="13" />
   <point x="220" y="187" type="line" smooth="no" name="13" />
   <point x="220" y="633" type="line" smooth="no" name="13" />
   <point x="75" y="633" type="line" smooth="no" name="13" />
  </contour>
  <contour>
   <point x="238" y="58" type="curve" smooth="yes" name="15" />
   <point x="238" y="100" type="offcurve" name="14" />
   <point x="209" y="140" type="offcurve" name="14" />
   <point x="153" y="140" type="curve" smooth="yes" name="15" />
   <point x="99" y="140" type="offcurve" name="14" />
   <point x="71" y="102" type="offcurve" name="14" />
   <point x="68" y="62" type="curve" smooth="yes" name="15" />
   <point x="68" y="61" type="offcurve" name="14" />
   <point x="68" y="59" type="offcurve" name="14" />
   <point x="68" y="58" type="curve" smooth="yes" name="15" />
   <point x="68" y="15" type="offcurve" name="14" />
   <point x="96" y="-26" type="offcurve" name="14" />
   <point x="153" y="-26" type="curve" smooth="yes" name="15" />
   <point x="209" y="-26" type="offcurve" name="14" />
   <point x="238" y="13" type="offcurve" name="14" />
   <point x="238" y="56" type="curve" smooth="yes" name="15" />
   <point x="238" y="57" type="offcurve" name="14" />
   <point x="238" y="57" type="offcurve" name="14" />
  </contour>
 </outline>
</glyph>
<glyph name="quotedbl" format="1">
 <advance width="382" />
 <unicode hex="0022" />
 <outline>
  <contour>
   <point x="70" y="416" type="line" smooth="no" name="13" />
   <point x="174" y="472" type="line" smooth="no" name="13" />
   <point x="174" y="645" type="line" smooth="no" name="13" />
   <point x="70" y="589" type="line" smooth="no" name="13" />
  </contour>
  <contour>
   <point x="209" y="416" type="line" smooth="no" name="13" />
   <point x="312" y="472" type="line" smooth="no" name="13" />
   <point x="312" y="645" type="line" smooth="no" name="13" />
   <point x="209" y="589" type="line" smooth="no" name="13" />
  </contour>
 </outline>
</glyph>
<glyph name="numbersign" format="1">
 <advance width="470" />
 <unicode hex="0023" />
 <outline>
  <contour>
   <point x="325" y="128" type="line" smooth="no" name="13" />
   <point x="436" y="128" type="line" smooth="no" name="13" />
   <point x="436" y="237" type="line" smooth="no" name="13" />
   <point x="346" y="237" type="line" smooth="no" name="13" />
   <point x="352" y="261" type="offcurve" name="14" />
   <point x="357" y="285" type="offcurve" name="14" />
   <point x="363" y="309" type="curve" smooth="yes" name="15" />
   <point x="365" y="320" type="offcurve" name="14" />
   <point x="368" y="332" type="offcurve" name="14" />
   <point x="370" y="343" type="curve" smooth="no" name="13" />
   <point x="469" y="343" type="line" smooth="no" name="13" />
   <point x="469" y="451" type="line" smooth="no" name="13" />
   <point x="394" y="451" type="line" smooth="no" name="13" />
   <point x="428" y="609" type="line" smooth="no" name="13" />
   <point x="338" y="609" type="line" smooth="no" name="13" />
   <point x="301" y="451" type="line" smooth="no" name="13" />
   <point x="227" y="451" type="line" smooth="no" name="13" />
   <point x="260" y="609" type="line" smooth="no" name="13" />
   <point x="168" y="609" type="line" smooth="no" name="13" />
   <point x="135" y="451" type="line" smooth="no" name="13" />
   <point x="31" y="451" type="line" smooth="no" name="13" />
   <point x="31" y="343" type="line" smooth="no" name="13" />
   <point x="110" y="343" type="line" smooth="no" name="13" />
   <point x="106" y="324" type="offcurve" name="14" />
   <point x="102" y="306" type="offcurve" name="14" />
   <point x="97" y="287" type="curve" smooth="yes" name="15" />
   <point x="93" y="270" type="offcurve" name="14" />
   <point x="89" y="254" type="offcurve" name="14" />
   <point x="85" y="237" type="curve" smooth="no" name="13" />
   <point x="2" y="237" type="line" smooth="no" name="13" />
   <point x="2" y="128" type="line" smooth="no" name="13" />
   <point x="65" y="128" type="line" smooth="no" name="13" />
   <point x="55" y="86" type="offcurve" name="14" />
   <point x="45" y="42" type="offcurve" name="14" />
   <point x="36" y="0" type="curve" smooth="no" name="13" />
   <point x="129" y="0" type="line" smooth="no" name="13" />
   <point x="157" y="128" type="line" smooth="no" name="13" />
   <point x="235" y="128" type="line" smooth="no" name="13" />
   <point x="205" y="0" type="line" smooth="no" name="13" />
   <point x="297" y="0" type="line" smooth="no" name="13" />
  </contour>
  <contour>
   <point x="202" y="343" type="curve" smooth="no" name="13" />
   <point x="280" y="343" type="line" smooth="no" name="13" />
   <point x="272" y="318" type="offcurve" name="14" />
   <point x="267" y="292" type="offcurve" name="14" />
   <point x="261" y="268" type="curve" smooth="yes" name="15" />
   <point x="259" y="257" type="offcurve" name="14" />
   <point x="256" y="247" type="offcurve" name="14" />
   <point x="254" y="237" type="curve" smooth="no" name="13" />
   <point x="178" y="237" type="line" smooth="no" name="13" />
   <point x="181" y="253" type="offcurve" name="14" />
   <point x="185" y="270" type="offcurve" name="14" />
   <point x="189" y="286" type="curve" smooth="yes" name="15" />
   <point x="193" y="305" type="offcurve" name="14" />
   <point x="198" y="324" type="offcurve" name="14" />
  </contour>
 </outline>
</glyph>
<glyph name="dollar" format="1">
 <advance width="550" />
 <unicode hex="0024" />
 <outline>
  <contour>
   <point x="244" y="643" type="line" smooth="no" name="13" />
   <point x="204" y="640" type="offcurve" name="14" />
   <point x="163" y="627" type="offcurve" name="14" />
   <point x="132" y="603" type="curve" smooth="yes" name="15" />
   <point x="88" y="569" type="offcurve" name="14" />
   <point x="69" y="522" type="offcurve" name="14" />
   <point x="67" y="468" type="curve" smooth="yes" name="15" />
   <point x="67" y="372" type="offcurve" name="14" />
   <point x="133" y="315" type="offcurve" name="14" />
   <point x="229" y="281" type="curve" smooth="yes" name="15" />
   <point x="234" y="279" type="offcurve" name="14" />
   <point x="239" y="278" type="offcurve" name="14" />
   <point x="244" y="276" type="curve" smooth="no" name="13" />
   <point x="244" y="122" type="line" smooth="no" name="13" />
   <point x="200" y="124" type="offcurve" name="14" />
   <point x="160" y="136" type="offcurve" name="14" />
   <point x="120" y="154" type="curve" smooth="no" name="13" />
   <point x="52" y="61" type="line" smooth="no" name="13" />
   <point x="60" y="56" type="offcurve" name="14" />
   <point x="69" y="51" type="offcurve" name="14" />
   <point x="77" y="47" type="curve" smooth="yes" name="15" />
   <point x="109" y="30" type="offcurve" name="14" />
   <point x="140" y="12" type="offcurve" name="14" />
   <point x="174" y="2" type="curve" smooth="yes" name="15" />
   <point x="197" y="-5" type="offcurve" name="14" />
   <point x="220" y="-9" type="offcurve" name="14" />
   <point x="244" y="-11" type="curve" smooth="no" name="13" />
   <point x="244" y="-74" type="line" smooth="no" name="13" />
   <point x="295" y="-74" type="line" smooth="no" name="13" />
   <point x="295" y="-11" type="line" smooth="no" name="13" />
   <point x="336" y="-9" type="offcurve" name="14" />
   <point x="378" y="1" type="offcurve" name="14" />
   <point x="414" y="22" type="curve" smooth="yes" name="15" />
   <point x="447" y="41" type="offcurve" name="14" />
   <point x="473" y="69" type="offcurve" name="14" />
   <point x="487" y="104" type="curve" smooth="yes" name="15" />
   <point x="498" y="131" type="offcurve" name="14" />
   <point x="501" y="158" type="offcurve" name="14" />
   <point x="502" y="186" type="curve" smooth="yes" name="15" />
   <point x="502" y="276" type="offcurve" name="14" />
   <point x="438" y="331" type="offcurve" name="14" />
   <point x="314" y="383" type="curve" smooth="yes" name="15" />
   <point x="307" y="386" type="offcurve" name="14" />
   <point x="301" y="388" type="offcurve" name="14" />
   <point x="295" y="391" type="curve" smooth="no" name="13" />
   <point x="295" y="520" type="line" smooth="no" name="13" />
   <point x="339" y="515" type="offcurve" name="14" />
   <point x="382" y="501" type="offcurve" name="14" />
   <point x="423" y="484" type="curve" smooth="no" name="13" />
   <point x="445" y="515" type="offcurve" name="14" />
   <point x="467" y="546" type="offcurve" name="14" />
   <point x="488" y="577" type="curve" smooth="no" name="13" />
   <point x="428" y="618" type="offcurve" name="14" />
   <point x="369" y="641" type="offcurve" name="14" />
   <point x="295" y="645" type="curve" smooth="no" name="13" />
   <point x="295" y="700" type="line" smooth="no" name="13" />
   <point x="244" y="700" type="line" smooth="no" name="13" />
  </contour>
  <contour>
   <point x="244" y="518" type="curve" smooth="no" name="13" />
   <point x="244" y="417" type="line" smooth="no" name="13" />
   <point x="225" y="429" type="offcurve" name="14" />
   <point x="207" y="444" type="offcurve" name="14" />
   <point x="207" y="467" type="curve" smooth="yes" name="15" />
   <point x="208" y="493" type="offcurve" name="14" />
   <point x="218" y="510" type="offcurve" name="14" />
  </contour>
  <contour>
   <point x="295" y="126" type="curve" smooth="no" name="13" />
   <point x="295" y="254" type="line" smooth="no" name="13" />
   <point x="318" y="241" type="offcurve" name="14" />
   <point x="343" y="224" type="offcurve" name="14" />
   <point x="344" y="196" type="curve" smooth="yes" name="15" />
   <point x="343" y="161" type="offcurve" name="14" />
   <point x="330" y="137" type="offcurve" name="14" />
  </contour>
 </outline>
</glyph>
<glyph name="percent" format="1">
 <advance width="766" />
 <unicode hex="0025" />
 <outline>
  <contour>
   <point x="188" y="0" type="line" smooth="no" name="13" />
   <point x="293" y="0" type="line" smooth="no" name="13" />
   <point x="584" y="565" type="line" smooth="no" name="13" />
   <point x="479" y="565" type="line" smooth="no" name="13" />
  </contour>
  <contour>
   <point x="298" y="412" type="curve" smooth="yes" name="15" />
   <point x="298" y="499" type="offcurve" name="14" />
   <point x="250" y="563" type="offcurve" name="14" />
   <point x="176" y="563" type="curve" smooth="yes" name="15" />
   <point x="96" y="563" type="offcurve" name="14" />
   <point x="50" y="502" type="offcurve" name="14" />
   <point x="50" y="411" type="curve" smooth="yes" name="15" />
   <point x="50" y="314" type="offcurve" name="14" />
   <point x="96" y="252" type="offcurve" name="14" />
   <point x="176" y="252" type="curve" smooth="yes" name="15" />
   <point x="253" y="252" type="offcurve" name="14" />
   <point x="298" y="318" type="offcurve" name="14" />
  </contour>
  <contour>
   <point x="220" y="410" type="curve" smooth="yes" name="15" />
   <point x="220" y="361" type="offcurve" name="14" />
   <point x="202" y="322" type="offcurve" name="14" />
   <point x="174" y="322" type="curve" smooth="yes" name="15" />
   <point x="144" y="322" type="offcurve" name="14" />
   <point x="127" y="361" type="offcurve" name="14" />
   <point x="127" y="410" type="curve" smooth="yes" name="15" />
   <point x="127" y="455" type="offcurve" name="14" />
   <point x="145" y="493" type="offcurve" name="14" />
   <point x="174" y="493" type="curve" smooth="yes" name="15" />
   <point x="202" y="493" type="offcurve" name="14" />
   <point x="220" y="453" type="offcurve" name="14" />
  </contour>
  <contour>
   <point x="716" y="156" type="curve" smooth="yes" name="15" />
   <point x="716" y="243" type="offcurve" name="14" />
   <point x="668" y="307" type="offcurve" name="14" />
   <point x="594" y="307" type="curve" smooth="yes" name="15" />
   <point x="514" y="307" type="offcurve" name="14" />
   <point x="468" y="246" type="offcurve" name="14" />
   <point x="468" y="155" type="curve" smooth="yes" name="15" />
   <point x="468" y="58" type="offcurve" name="14" />
   <point x="514" y="-4" type="offcurve" name="14" />
   <point x="594" y="-4" type="curve" smooth="yes" name="15" />
   <point x="671" y="-4" type="offcurve" name="14" />
   <point x="716" y="62" type="offcurve" name="14" />
  </contour>
  <contour>
   <point x="639" y="154" type="curve" smooth="yes" name="15" />
   <point x="639" y="105" type="offcurve" name="14" />
   <point x="620" y="66" type="offcurve" name="14" />
   <point x="592" y="66" type="curve" smooth="yes" name="15" />
   <point x="563" y="66" type="offcurve" name="14" />
   <point x="545" y="105" type="offcurve" name="14" />
   <point x="545" y="154" type="curve" smooth="yes" name="15" />
   <point x="545" y="199" type="offcurve" name="14" />
   <point x="564" y="237" type="offcurve" name="14" />
   <point x="592" y="237" type="curve" smooth="yes" name="15" />
   <point x="620" y="237" type="offcurve" name="14" />
   <point x="639" y="197" type="offcurve" name="14" />
  </contour>
 </outline>
</glyph>
<glyph name="ampersand" format="1">
 <advance width="571" />
 <unicode hex="0026" />
 <outline>
  <contour>
   <point x="374" y="329" type="line" smooth="no" name="13" />
   <point x="374" y="297" type="line" smooth="yes" name="15" />
   <point x="374" y="294" type="offcurve" name="14" />
   <point x="374" y="290" type="offcurve" name="14" />
   <point x="374" y="287" type="curve" smooth="yes" name="15" />
   <point x="374" y="267" type="offcurve" name="14" />
   <point x="373" y="244" type="offcurve" name="14" />
   <point x="362" y="227" type="curve" smooth="no" name="13" />
   <point x="404" y="179" type="line" smooth="no" name="13" />
   <point x="377" y="210" type="offcurve" name="14" />
   <point x="350" y="242" type="offcurve" name="14" />
   <point x="323" y="276" type="curve" smooth="yes" name="15" />
   <point x="296" y="310" type="offcurve" name="14" />
   <point x="267" y="345" type="offcurve" name="14" />
   <point x="238" y="380" type="curve" smooth="no" name="13" />
   <point x="233" y="384" type="offcurve" name="14" />
   <point x="229" y="389" type="offcurve" name="14" />
   <point x="225" y="394" type="curve" smooth="yes" name="15" />
   <point x="203" y="418" type="offcurve" name="14" />
   <point x="182" y="441" type="offcurve" name="14" />
   <point x="182" y="477" type="curve" smooth="yes" name="15" />
   <point x="182" y="510" type="offcurve" name="14" />
   <point x="210" y="529" type="offcurve" name="14" />
   <point x="244" y="529" type="curve" smooth="no" name="13" />
   <point x="244" y="529" type="offcurve" name="14" />
   <point x="244" y="529" type="offcurve" name="14" />
   <point x="244" y="529" type="curve" smooth="no" name="13" />
   <point x="259" y="529" type="offcurve" name="14" />
   <point x="296" y="528" type="offcurve" name="14" />
   <point x="354" y="498" type="curve" smooth="no" name="13" />
   <point x="359" y="506" type="offcurve" name="14" />
   <point x="364" y="515" type="offcurve" name="14" />
   <point x="370" y="523" type="curve" smooth="yes" name="15" />
   <point x="382" y="541" type="offcurve" name="14" />
   <point x="394" y="560" type="offcurve" name="14" />
   <point x="406" y="578" type="curve" smooth="no" name="13" />
   <point x="382" y="597" type="offcurve" name="14" />
   <point x="323" y="645" type="offcurve" name="14" />
   <point x="237" y="645" type="curve" smooth="yes" name="15" />
   <point x="140" y="645" type="offcurve" name="14" />
   <point x="68" y="591" type="offcurve" name="14" />
   <point x="68" y="484" type="curve" smooth="yes" name="15" />
   <point x="68" y="416" type="offcurve" name="14" />
   <point x="101" y="377" type="offcurve" name="14" />
   <point x="139" y="339" type="curve" smooth="no" name="13" />
   <point x="138" y="342" type="line" smooth="no" name="13" />
   <point x="77" y="291" type="offcurve" name="14" />
   <point x="47" y="229" type="offcurve" name="14" />
   <point x="47" y="164" type="curve" smooth="yes" name="15" />
   <point x="47" y="78" type="offcurve" name="14" />
   <point x="103" y="-12" type="offcurve" name="14" />
   <point x="236" y="-12" type="curve" smooth="yes" name="15" />
   <point x="323" y="-12" type="offcurve" name="14" />
   <point x="374" y="21" type="offcurve" name="14" />
   <point x="387" y="33" type="curve" smooth="no" name="13" />
   <point x="394" y="27" type="offcurve" name="14" />
   <point x="398" y="21" type="offcurve" name="14" />
   <point x="403" y="15" type="curve" smooth="no" name="13" />
   <point x="406" y="10" type="offcurve" name="14" />
   <point x="410" y="5" type="offcurve" name="14" />
   <point x="415" y="0" type="curve" smooth="no" name="13" />
   <point x="569" y="0" type="line" smooth="no" name="13" />
   <point x="531" y="39" type="offcurve" name="14" />
   <point x="492" y="81" type="offcurve" name="14" />
   <point x="457" y="122" type="curve" smooth="no" name="13" />
   <point x="489" y="173" type="offcurve" name="14" />
   <point x="509" y="235" type="offcurve" name="14" />
   <point x="509" y="290" type="curve" smooth="yes" name="15" />
   <point x="509" y="329" type="line" smooth="no" name="13" />
  </contour>
  <contour>
   <point x="306" y="130" type="curve" smooth="no" name="13" />
   <point x="295" y="117" type="offcurve" name="14" />
   <point x="264" y="109" type="offcurve" name="14" />
   <point x="251" y="109" type="curve" smooth="yes" name="15" />
   <point x="224" y="109" type="offcurve" name="14" />
   <point x="185" y="122" type="offcurve" name="14" />
   <point x="185" y="183" type="curve" smooth="yes" name="15" />
   <point x="185" y="185" type="offcurve" name="14" />
   <point x="185" y="188" type="offcurve" name="14" />
   <point x="185" y="190" type="curve" smooth="yes" name="15" />
   <point x="185" y="209" type="offcurve" name="14" />
   <point x="186" y="235" type="offcurve" name="14" />
   <point x="204" y="259" type="curve" smooth="no" name="13" />
   <point x="220" y="235" type="offcurve" name="14" />
   <point x="239" y="213" type="offcurve" name="14" />
   <point x="257" y="191" type="curve" smooth="yes" name="15" />
   <point x="274" y="171" type="offcurve" name="14" />
   <point x="291" y="151" type="offcurve" name="14" />
  </contour>
 </outline>
</glyph>
<glyph name="quotesingle" format="1">
 <advance width="244" />
 <unicode hex="0027" />
 <outline>
  <contour>
   <point x="70" y="416" type="line" smooth="no" name="13" />
   <point x="174" y="472" type="line" smooth="no" name="13" />
   <point x="174" y="645" type="line" smooth="no" name="13" />
   <point x="70" y="589" type="line" smooth="no" name="13" />
  </contour>
 </outline>
</glyph>
<glyph name="parenleft" format="1">
 <advance width="408" />
 <unicode hex="0028" />
 <outline>
  <contour>
   <point x="346" y="645" type="curve" smooth="no" name="13" />
   <point x="226" y="645" type="line" smooth="no" name="13" />
   <point x="141" y="557" type="offcurve" name="14" />
   <point x="78" y="403" type="offcurve" name="14" />
   <point x="78" y="261" type="curve" smooth="yes" name="15" />
   <point x="78" y="-8" type="offcurve" name="14" />
   <point x="227" y="-148" type="offcurve" name="14" />
   <point x="226" y="-140" type="curve" smooth="no" name="13" />
   <point x="344" y="-140" type="line" smooth="no" name="13" />
   <point x="344" y="-140" type="offcurve" name="14" />
   <point x="344" y="-140" type="offcurve" name="14" />
   <point x="343" y="-140" type="curve" smooth="yes" name="15" />
   <point x="329" y="-140" type="offcurve" name="14" />
   <point x="205" y="34" type="offcurve" name="14" />
   <point x="205" y="261" type="curve" smooth="yes" name="15" />
   <point x="205" y="419" type="offcurve" name="14" />
   <point x="288" y="575" type="offcurve" name="14" />
  </contour>
 </outline>
</glyph>
<glyph name="parenright" format="1">
 <advance width="408" />
 <unicode hex="0029" />
 <outline>
  <contour>
   <point x="61" y="645" type="line" smooth="no" name="13" />
   <point x="118" y="575" type="offcurve" name="14" />
   <point x="201" y="419" type="offcurve" name="14" />
   <point x="201" y="261" type="curve" smooth="yes" name="15" />
   <point x="201" y="34" type="offcurve" name="14" />
   <point x="78" y="-140" type="offcurve" name="14" />
   <point x="63" y="-140" type="curve" smooth="no" name="13" />
   <point x="63" y="-140" type="offcurve" name="14" />
   <point x="63" y="-140" type="offcurve" name="14" />
   <point x="62" y="-140" type="curve" smooth="no" name="13" />
   <point x="181" y="-140" type="line" smooth="no" name="13" />
   <point x="180" y="-148" type="offcurve" name="14" />
   <point x="329" y="-8" type="offcurve" name="14" />
   <point x="329" y="261" type="curve" smooth="yes" name="15" />
   <point x="329" y="403" type="offcurve" name="14" />
   <point x="265" y="557" type="offcurve" name="14" />
   <point x="181" y="645" type="curve" smooth="no" name="13" />
  </contour>
 </outline>
</glyph>
<glyph name="asterisk" format="1">
 <advance width="318" />
 <unicode hex="002a" />
 <outline>
  <contour>
   <point x="143" y="545" type="line" smooth="no" name="13" />
   <point x="131" y="561" type="offcurve" name="14" />
   <point x="118" y="577" type="offcurve" name="14" />
   <point x="105" y="593" type="curve" smooth="yes" name="15" />
   <point x="96" y="604" type="offcurve" name="14" />
   <point x="88" y="615" type="offcurve" name="14" />
   <point x="79" y="626" type="curve" smooth="no" name="13" />
   <point x="15" y="532" type="line" smooth="no" name="13" />
   <point x="38" y="524" type="offcurve" name="14" />
   <point x="60" y="517" type="offcurve" name="14" />
   <point x="82" y="510" type="curve" smooth="yes" name="15" />
   <point x="95" y="507" type="offcurve" name="14" />
   <point x="107" y="503" type="offcurve" name="14" />
   <point x="120" y="499" type="curve" smooth="no" name="13" />
   <point x="108" y="494" type="offcurve" name="14" />
   <point x="96" y="489" type="offcurve" name="14" />
   <point x="84" y="485" type="curve" smooth="yes" name="15" />
   <point x="62" y="477" type="offcurve" name="14" />
   <point x="40" y="469" type="offcurve" name="14" />
   <point x="21" y="460" type="curve" smooth="no" name="13" />
   <point x="90" y="373" type="line" smooth="no" name="13" />
   <point x="104" y="394" type="offcurve" name="14" />
   <point x="117" y="412" type="offcurve" name="14" />
   <point x="131" y="431" type="curve" smooth="yes" name="15" />
   <point x="138" y="440" type="offcurve" name="14" />
   <point x="144" y="449" type="offcurve" name="14" />
   <point x="151" y="458" type="curve" smooth="no" name="13" />
   <point x="151" y="446" type="offcurve" name="14" />
   <point x="152" y="435" type="offcurve" name="14" />
   <point x="152" y="424" type="curve" smooth="yes" name="15" />
   <point x="152" y="400" type="offcurve" name="14" />
   <point x="153" y="377" type="offcurve" name="14" />
   <point x="154" y="352" type="curve" smooth="no" name="13" />
   <point x="170" y="358" type="offcurve" name="14" />
   <point x="186" y="365" type="offcurve" name="14" />
   <point x="203" y="372" type="curve" smooth="yes" name="15" />
   <point x="222" y="381" type="offcurve" name="14" />
   <point x="242" y="390" type="offcurve" name="14" />
   <point x="262" y="397" type="curve" smooth="no" name="13" />
   <point x="239" y="425" type="offcurve" name="14" />
   <point x="216" y="451" type="offcurve" name="14" />
   <point x="194" y="478" type="curve" smooth="no" name="13" />
   <point x="220" y="473" type="offcurve" name="14" />
   <point x="246" y="466" type="offcurve" name="14" />
   <point x="273" y="458" type="curve" smooth="no" name="13" />
   <point x="283" y="456" type="offcurve" name="14" />
   <point x="293" y="453" type="offcurve" name="14" />
   <point x="303" y="450" type="curve" smooth="no" name="13" />
   <point x="292" y="569" type="line" smooth="no" name="13" />
   <point x="187" y="527" type="line" smooth="no" name="13" />
   <point x="200" y="546" type="offcurve" name="14" />
   <point x="212" y="565" type="offcurve" name="14" />
   <point x="223" y="584" type="curve" smooth="yes" name="15" />
   <point x="230" y="596" type="offcurve" name="14" />
   <point x="238" y="608" type="offcurve" name="14" />
   <point x="245" y="620" type="curve" smooth="no" name="13" />
   <point x="233" y="623" type="offcurve" name="14" />
   <point x="221" y="626" type="offcurve" name="14" />
   <point x="208" y="630" type="curve" smooth="yes" name="15" />
   <point x="186" y="636" type="offcurve" name="14" />
   <point x="163" y="642" type="offcurve" name="14" />
   <point x="142" y="646" type="curve" smooth="no" name="13" />
  </contour>
 </outline>
</glyph>
<glyph name="plus" format="1">
 <advance width="491" />
 <unicode hex="002b" />
 <outline>
  <contour>
   <point x="182" y="172" type="line" smooth="no" name="13" />
   <point x="182" y="0" type="line" smooth="no" name="13" />
   <point x="309" y="0" type="line" smooth="no" name="13" />
   <point x="309" y="172" type="line" smooth="no" name="13" />
   <point x="463" y="172" type="line" smooth="no" name="13" />
   <point x="463" y="280" type="line" smooth="no" name="13" />
   <point x="309" y="280" type="line" smooth="no" name="13" />
   <point x="309" y="454" type="line" smooth="no" name="13" />
   <point x="182" y="454" type="line" smooth="no" name="13" />
   <point x="182" y="280" type="line" smooth="no" name="13" />
   <point x="29" y="280" type="line" smooth="no" name="13" />
   <point x="29" y="172" type="line" smooth="no" name="13" />
  </contour>
 </outline>
</glyph>
<glyph name="comma" format="1">
 <advance width="292" />
 <unicode hex="002c" />
 <outline>
  <contour>
   <point x="61" y="-36" type="curve" smooth="no" name="13" />
   <point x="105" y="-117" type="line" smooth="no" name="13" />
   <point x="145" y="-107" type="offcurve" name="14" />
   <point x="158" y="-101" type="offcurve" name="14" />
   <point x="179" y="-82" type="curve" smooth="yes" name="15" />
   <point x="211" y="-52" type="offcurve" name="14" />
   <point x="232" y="-4" type="offcurve" name="14" />
   <point x="232" y="42" type="curve" smooth="yes" name="15" />
   <point x="232" y="90" type="offcurve" name="14" />
   <point x="201" y="141" type="offcurve" name="14" />
   <point x="148" y="141" type="curve" smooth="yes" name="15" />
   <point x="100" y="141" type="offcurve" name="14" />
   <point x="63" y="108" type="offcurve" name="14" />
   <point x="63" y="61" type="curve" smooth="yes" name="15" />
   <point x="63" y="24" type="offcurve" name="14" />
   <point x="80" y="-2" type="offcurve" name="14" />
   <point x="108" y="-8" type="curve" smooth="no" name="13" />
   <point x="100" y="-21" type="offcurve" name="14" />
   <point x="94" y="-25" type="offcurve" name="14" />
  </contour>
 </outline>
</glyph>
<glyph name="hyphen" format="1">
 <advance width="298" />
 <unicode hex="002d" />
 <outline>
  <contour>
   <point x="287" y="184" type="line" smooth="no" name="13" />
   <point x="287" y="292" type="line" smooth="no" name="13" />
   <point x="12" y="292" type="line" smooth="no" name="13" />
   <point x="12" y="184" type="line" smooth="no" name="13" />
  </contour>
 </outline>
</glyph>
<glyph name="period" format="1">
 <advance width="350" />
 <unicode hex="002e" />
 <outline>
  <contour>
   <point x="262" y="79" type="curve" smooth="yes" name="15" />
   <point x="262" y="121" type="offcurve" name="14" />
   <point x="233" y="161" type="offcurve" name="14" />
   <point x="177" y="161" type="curve" smooth="yes" name="15" />
   <point x="123" y="161" type="offcurve" name="14" />
   <point x="95" y="123" type="offcurve" name="14" />
   <point x="92" y="83" type="curve" smooth="yes" name="15" />
   <point x="92" y="82" type="offcurve" name="14" />
   <point x="92" y="80" type="offcurve" name="14" />
   <point x="92" y="79" type="curve" smooth="yes" name="15" />
   <point x="92" y="36" type="offcurve" name="14" />
   <point x="120" y="-5" type="offcurve" name="14" />
   <point x="177" y="-5" type="curve" smooth="yes" name="15" />
   <point x="233" y="-5" type="offcurve" name="14" />
   <point x="262" y="34" type="offcurve" name="14" />
   <point x="262" y="77" type="curve" smooth="yes" name="15" />
   <point x="262" y="78" type="offcurve" name="14" />
   <point x="262" y="78" type="offcurve" name="14" />
  </contour>
 </outline>
</glyph>
<glyph name="slash" format="1">
 <advance width="339" />
 <unicode hex="002f" />
 <outline>
  <contour>
   <point x="380" y="633" type="line" smooth="no" name="13" />
   <point x="272" y="633" type="line" smooth="no" name="13" />
   <point x="-38" y="-30" type="line" smooth="no" name="13" />
   <point x="67" y="-30" type="line" smooth="no" name="13" />
  </contour>
 </outline>
</glyph>
<glyph name="zero" format="1">
 <advance width="564" />
 <unicode hex="0030" />
 <outline>
  <contour>
   <point x="280" y="645" type="curve" smooth="yes" name="15" />
   <point x="129" y="645" type="offcurve" name="14" />
   <point x="35" y="492" type="offcurve" name="14" />
   <point x="35" y="315" type="curve" smooth="yes" name="15" />
   <point x="35" y="130" type="offcurve" name="14" />
   <point x="126" y="-12" type="offcurve" name="14" />
   <point x="280" y="-12" type="curve" smooth="yes" name="15" />
   <point x="432" y="-12" type="offcurve" name="14" />
   <point x="528" y="130" type="offcurve" name="14" />
   <point x="528" y="315" type="curve" smooth="yes" name="15" />
   <point x="528" y="492" type="offcurve" name="14" />
   <point x="429" y="645" type="offcurve" name="14" />
  </contour>
  <contour>
   <point x="282" y="525" type="curve" smooth="yes" name="15" />
   <point x="358" y="525" type="offcurve" name="14" />
   <point x="382" y="445" type="offcurve" name="14" />
   <point x="382" y="321" type="curve" smooth="yes" name="15" />
   <point x="382" y="196" type="offcurve" name="14" />
   <point x="347" y="106" type="offcurve" name="14" />
   <point x="279" y="106" type="curve" smooth="yes" name="15" />
   <point x="217" y="106" type="offcurve" name="14" />
   <point x="181" y="196" type="offcurve" name="14" />
   <point x="181" y="321" type="curve" smooth="yes" name="15" />
   <point x="181" y="445" type="offcurve" name="14" />
   <point x="205" y="525" type="offcurve" name="14" />
  </contour>
 </outline>
</glyph>
<glyph name="one" format="1">
 <advance width="408" />
 <unicode hex="0031" />
 <outline>
  <contour>
   <point x="315" y="633" type="line" smooth="no" name="13" />
   <point x="174" y="633" type="line" smooth="no" name="13" />
   <point x="155" y="620" type="offcurve" name="14" />
   <point x="137" y="607" type="offcurve" name="14" />
   <point x="119" y="595" type="curve" smooth="yes" name="15" />
   <point x="84" y="571" type="offcurve" name="14" />
   <point x="51" y="548" type="offcurve" name="14" />
   <point x="17" y="523" type="curve" smooth="no" name="13" />
   <point x="23" y="513" type="offcurve" name="14" />
   <point x="29" y="503" type="offcurve" name="14" />
   <point x="35" y="493" type="curve" smooth="yes" name="15" />
   <point x="51" y="467" type="offcurve" name="14" />
   <point x="67" y="441" type="offcurve" name="14" />
   <point x="82" y="414" type="curve" smooth="no" name="13" />
   <point x="99" y="426" type="offcurve" name="14" />
   <point x="117" y="437" type="offcurve" name="14" />
   <point x="135" y="448" type="curve" smooth="yes" name="15" />
   <point x="148" y="456" type="offcurve" name="14" />
   <point x="161" y="464" type="offcurve" name="14" />
   <point x="174" y="472" type="curve" smooth="no" name="13" />
   <point x="174" y="0" type="line" smooth="no" name="13" />
   <point x="315" y="0" type="line" smooth="no" name="13" />
  </contour>
 </outline>
</glyph>
<glyph name="two" format="1">
 <advance width="486" />
 <unicode hex="0032" />
 <outline>
  <contour>
   <point x="45" y="0" type="line" smooth="no" name="13" />
   <point x="437" y="0" type="line" smooth="no" name="13" />
   <point x="437" y="112" type="line" smooth="no" name="13" />
   <point x="217" y="112" type="line" smooth="no" name="13" />
   <point x="336" y="244" type="offcurve" name="14" />
   <point x="442" y="348" type="offcurve" name="14" />
   <point x="442" y="472" type="curve" smooth="yes" name="15" />
   <point x="442" y="598" type="offcurve" name="14" />
   <point x="351" y="646" type="offcurve" name="14" />
   <point x="253" y="646" type="curve" smooth="yes" name="15" />
   <point x="174" y="646" type="offcurve" name="14" />
   <point x="110" y="622" type="offcurve" name="14" />
   <point x="37" y="564" type="curve" smooth="no" name="13" />
   <point x="96" y="478" type="line" smooth="no" name="13" />
   <point x="146" y="512" type="offcurve" name="14" />
   <point x="180" y="527" type="offcurve" name="14" />
   <point x="227" y="527" type="curve" smooth="yes" name="15" />
   <point x="256" y="527" type="offcurve" name="14" />
   <point x="297" y="508" type="offcurve" name="14" />
   <point x="297" y="463" type="curve" smooth="yes" name="15" />
   <point x="297" y="415" type="offcurve" name="14" />
   <point x="282" y="397" type="offcurve" name="14" />
   <point x="199" y="300" type="curve" smooth="yes" name="15" />
   <point x="45" y="119" type="line" smooth="no" name="13" />
  </contour>
 </outline>
</glyph>
<glyph name="three" format="1">
 <advance width="508" />
 <unicode hex="0033" />
 <outline>
  <contour>
   <point x="122" y="279" type="line" smooth="no" name="13" />
   <point x="220" y="279" type="line" smooth="yes" name="15" />
   <point x="277" y="279" type="offcurve" name="14" />
   <point x="314" y="260" type="offcurve" name="14" />
   <point x="314" y="196" type="curve" smooth="yes" name="15" />
   <point x="314" y="139" type="offcurve" name="14" />
   <point x="277" y="111" type="offcurve" name="14" />
   <point x="229" y="111" type="curve" smooth="yes" name="15" />
   <point x="159" y="111" type="offcurve" name="14" />
   <point x="112" y="141" type="offcurve" name="14" />
   <point x="91" y="161" type="curve" smooth="no" name="13" />
   <point x="34" y="76" type="line" smooth="no" name="13" />
   <point x="68" y="44" type="offcurve" name="14" />
   <point x="160" y="-11" type="offcurve" name="14" />
   <point x="238" y="-11" type="curve" smooth="yes" name="15" />
   <point x="342" y="-11" type="offcurve" name="14" />
   <point x="460" y="33" type="offcurve" name="14" />
   <point x="460" y="199" type="curve" smooth="yes" name="15" />
   <point x="460" y="241" type="offcurve" name="14" />
   <point x="444" y="314" type="offcurve" name="14" />
   <point x="364" y="347" type="curve" smooth="no" name="13" />
   <point x="389" y="358" type="offcurve" name="14" />
   <point x="437" y="377" type="offcurve" name="14" />
   <point x="437" y="470" type="curve" smooth="yes" name="15" />
   <point x="437" y="587" type="offcurve" name="14" />
   <point x="339" y="645" type="offcurve" name="14" />
   <point x="237" y="645" type="curve" smooth="yes" name="15" />
   <point x="150" y="645" type="offcurve" name="14" />
   <point x="91" y="606" type="offcurve" name="14" />
   <point x="46" y="561" type="curve" smooth="no" name="13" />
   <point x="97" y="470" type="line" smooth="no" name="13" />
   <point x="128" y="498" type="offcurve" name="14" />
   <point x="178" y="528" type="offcurve" name="14" />
   <point x="224" y="528" type="curve" smooth="yes" name="15" />
   <point x="269" y="528" type="offcurve" name="14" />
   <point x="290" y="494" type="offcurve" name="14" />
   <point x="290" y="458" type="curve" smooth="yes" name="15" />
   <point x="290" y="395" type="offcurve" name="14" />
   <point x="258" y="393" type="offcurve" name="14" />
   <point x="228" y="393" type="curve" smooth="yes" name="15" />
   <point x="225" y="393" type="offcurve" name="14" />
   <point x="222" y="393" type="offcurve" name="14" />
   <point x="220" y="393" type="curve" smooth="yes" name="15" />
   <point x="122" y="393" type="line" smooth="no" name="13" />
  </contour>
 </outline>
</glyph>
<glyph name="four" format="1">
 <advance width="551" />
 <unicode hex="0034" />
 <outline>
  <contour>
   <point x="22" y="233" type="curve" smooth="no" name="13" />
   <point x="22" y="121" type="line" smooth="no" name="13" />
   <point x="283" y="121" type="line" smooth="no" name="13" />
   <point x="283" y="0" type="line" smooth="no" name="13" />
   <point x="423" y="0" type="line" smooth="no" name="13" />
   <point x="423" y="121" type="line" smooth="no" name="13" />
   <point x="525" y="121" type="line" smooth="no" name="13" />
   <point x="525" y="233" type="line" smooth="no" name="13" />
   <point x="423" y="233" type="line" smooth="no" name="13" />
   <point x="423" y="633" type="line" smooth="no" name="13" />
   <point x="285" y="633" type="line" smooth="no" name="13" />
   <point x="197" y="500" type="offcurve" name="14" />
   <point x="110" y="368" type="offcurve" name="14" />
  </contour>
  <contour>
   <point x="142" y="233" type="line" smooth="no" name="13" />
   <point x="169" y="275" type="offcurve" name="14" />
   <point x="196" y="317" type="offcurve" name="14" />
   <point x="223" y="360" type="curve" smooth="yes" name="15" />
   <point x="243" y="391" type="offcurve" name="14" />
   <point x="263" y="423" type="offcurve" name="14" />
   <point x="283" y="454" type="curve" smooth="no" name="13" />
   <point x="283" y="233" type="line" smooth="no" name="13" />
  </contour>
 </outline>
</glyph>
<glyph name="five" format="1">
 <advance width="539" />
 <unicode hex="0035" />
 <outline>
  <contour>
   <point x="450" y="521" type="line" smooth="no" name="13" />
   <point x="450" y="633" type="line" smooth="no" name="13" />
   <point x="93" y="633" type="line" smooth="no" name="13" />
   <point x="93" y="278" type="line" smooth="no" name="13" />
   <point x="99" y="280" type="offcurve" name="14" />
   <point x="105" y="281" type="offcurve" name="14" />
   <point x="111" y="283" type="curve" smooth="no" name="13" />
   <point x="141" y="290" type="offcurve" name="14" />
   <point x="166" y="296" type="offcurve" name="14" />
   <point x="214" y="296" type="curve" smooth="yes" name="15" />
   <point x="304" y="296" type="offcurve" name="14" />
   <point x="347" y="262" type="offcurve" name="14" />
   <point x="347" y="196" type="curve" smooth="yes" name="15" />
   <point x="347" y="140" type="offcurve" name="14" />
   <point x="307" y="111" type="offcurve" name="14" />
   <point x="249" y="111" type="curve" smooth="yes" name="15" />
   <point x="207" y="111" type="offcurve" name="14" />
   <point x="155" y="131" type="offcurve" name="14" />
   <point x="106" y="168" type="curve" smooth="no" name="13" />
   <point x="48" y="79" type="line" smooth="no" name="13" />
   <point x="106" y="20" type="offcurve" name="14" />
   <point x="191" y="-12" type="offcurve" name="14" />
   <point x="263" y="-12" type="curve" smooth="yes" name="15" />
   <point x="396" y="-12" type="offcurve" name="14" />
   <point x="490" y="89" type="offcurve" name="14" />
   <point x="490" y="205" type="curve" smooth="yes" name="15" />
   <point x="490" y="344" type="offcurve" name="14" />
   <point x="400" y="407" type="offcurve" name="14" />
   <point x="259" y="407" type="curve" smooth="yes" name="15" />
   <point x="248" y="407" type="offcurve" name="14" />
   <point x="239" y="405" type="offcurve" name="14" />
   <point x="232" y="404" type="curve" smooth="no" name="13" />
   <point x="232" y="521" type="line" smooth="no" name="13" />
  </contour>
 </outline>
</glyph>
<glyph name="six" format="1">
 <advance width="537" />
 <unicode hex="0036" />
 <outline>
  <contour>
   <point x="466" y="581" type="line" smooth="no" name="13" />
   <point x="439" y="608" type="offcurve" name="14" />
   <point x="370" y="645" type="offcurve" name="14" />
   <point x="293" y="645" type="curve" smooth="yes" name="15" />
   <point x="119" y="645" type="offcurve" name="14" />
   <point x="48" y="504" type="offcurve" name="14" />
   <point x="48" y="287" type="curve" smooth="yes" name="15" />
   <point x="48" y="168" type="offcurve" name="14" />
   <point x="78" y="-12" type="offcurve" name="14" />
   <point x="269" y="-12" type="curve" smooth="yes" name="15" />
   <point x="431" y="-12" type="offcurve" name="14" />
   <point x="489" y="116" type="offcurve" name="14" />
   <point x="489" y="205" type="curve" smooth="yes" name="15" />
   <point x="489" y="364" type="offcurve" name="14" />
   <point x="390" y="414" type="offcurve" name="14" />
   <point x="288" y="414" type="curve" smooth="yes" name="15" />
   <point x="236" y="414" type="offcurve" name="14" />
   <point x="199" y="394" type="offcurve" name="14" />
   <point x="191" y="388" type="curve" smooth="no" name="13" />
   <point x="191" y="389" type="offcurve" name="14" />
   <point x="191" y="390" type="offcurve" name="14" />
   <point x="191" y="391" type="curve" smooth="yes" name="15" />
   <point x="191" y="477" type="offcurve" name="14" />
   <point x="238" y="525" type="offcurve" name="14" />
   <point x="297" y="525" type="curve" smooth="yes" name="15" />
   <point x="338" y="525" type="offcurve" name="14" />
   <point x="375" y="513" type="offcurve" name="14" />
   <point x="418" y="492" type="curve" smooth="no" name="13" />
  </contour>
  <contour>
   <point x="191" y="291" type="curve" smooth="no" name="13" />
   <point x="206" y="305" type="offcurve" name="14" />
   <point x="241" y="315" type="offcurve" name="14" />
   <point x="255" y="315" type="curve" smooth="yes" name="15" />
   <point x="295" y="315" type="offcurve" name="14" />
   <point x="342" y="300" type="offcurve" name="14" />
   <point x="342" y="205" type="curve" smooth="yes" name="15" />
   <point x="342" y="163" type="offcurve" name="14" />
   <point x="317" y="97" type="offcurve" name="14" />
   <point x="267" y="97" type="curve" smooth="yes" name="15" />
   <point x="191" y="97" type="offcurve" name="14" />
   <point x="191" y="208" type="offcurve" name="14" />
  </contour>
 </outline>
</glyph>
<glyph name="seven" format="1">
 <advance width="430" />
 <unicode hex="0037" />
 <outline>
  <contour>
   <point x="254" y="521" type="line" smooth="no" name="13" />
   <point x="216" y="428" type="offcurve" name="14" />
   <point x="175" y="333" type="offcurve" name="14" />
   <point x="135" y="240" type="curve" smooth="yes" name="15" />
   <point x="100" y="159" type="offcurve" name="14" />
   <point x="65" y="79" type="offcurve" name="14" />
   <point x="32" y="0" type="curve" smooth="no" name="13" />
   <point x="180" y="0" type="line" smooth="no" name="13" />
   <point x="202" y="52" type="offcurve" name="14" />
   <point x="225" y="103" type="offcurve" name="14" />
   <point x="247" y="156" type="curve" smooth="yes" name="15" />
   <point x="301" y="279" type="offcurve" name="14" />
   <point x="355" y="404" type="offcurve" name="14" />
   <point x="408" y="528" type="curve" smooth="no" name="13" />
   <point x="408" y="633" type="line" smooth="no" name="13" />
   <point x="29" y="633" type="line" smooth="no" name="13" />
   <point x="29" y="521" type="line" smooth="no" name="13" />
  </contour>
 </outline>
</glyph>
<glyph name="eight" format="1">
 <advance width="558" />
 <unicode hex="0038" />
 <outline>
  <contour>
   <point x="184" y="320" type="curve" smooth="no" name="13" />
   <point x="125" y="313" type="offcurve" name="14" />
   <point x="48" y="257" type="offcurve" name="14" />
   <point x="48" y="159" type="curve" smooth="yes" name="15" />
   <point x="48" y="44" type="offcurve" name="14" />
   <point x="153" y="-12" type="offcurve" name="14" />
   <point x="279" y="-12" type="curve" smooth="yes" name="15" />
   <point x="404" y="-12" type="offcurve" name="14" />
   <point x="507" y="44" type="offcurve" name="14" />
   <point x="507" y="158" type="curve" smooth="yes" name="15" />
   <point x="507" y="257" type="offcurve" name="14" />
   <point x="453" y="299" type="offcurve" name="14" />
   <point x="376" y="319" type="curve" smooth="no" name="13" />
   <point x="447" y="335" type="offcurve" name="14" />
   <point x="485" y="396" type="offcurve" name="14" />
   <point x="485" y="451" type="curve" smooth="yes" name="15" />
   <point x="485" y="576" type="offcurve" name="14" />
   <point x="390" y="645" type="offcurve" name="14" />
   <point x="287" y="645" type="curve" smooth="yes" name="15" />
   <point x="173" y="645" type="offcurve" name="14" />
   <point x="70" y="579" type="offcurve" name="14" />
   <point x="70" y="460" type="curve" smooth="yes" name="15" />
   <point x="70" y="401" type="offcurve" name="14" />
   <point x="86" y="348" type="offcurve" name="14" />
  </contour>
  <contour>
   <point x="285" y="368" type="curve" smooth="no" name="13" />
   <point x="249" y="380" type="offcurve" name="14" />
   <point x="207" y="413" type="offcurve" name="14" />
   <point x="207" y="459" type="curve" smooth="yes" name="15" />
   <point x="207" y="517" type="offcurve" name="14" />
   <point x="248" y="538" type="offcurve" name="14" />
   <point x="279" y="538" type="curve" smooth="yes" name="15" />
   <point x="314" y="538" type="offcurve" name="14" />
   <point x="346" y="512" type="offcurve" name="14" />
   <point x="346" y="462" type="curve" smooth="yes" name="15" />
   <point x="346" y="414" type="offcurve" name="14" />
   <point x="310" y="377" type="offcurve" name="14" />
  </contour>
  <contour>
   <point x="288" y="272" type="curve" smooth="no" name="13" />
   <point x="329" y="256" type="offcurve" name="14" />
   <point x="360" y="215" type="offcurve" name="14" />
   <point x="360" y="166" type="curve" smooth="yes" name="15" />
   <point x="360" y="115" type="offcurve" name="14" />
   <point x="314" y="97" type="offcurve" name="14" />
   <point x="280" y="97" type="curve" smooth="yes" name="15" />
   <point x="232" y="97" type="offcurve" name="14" />
   <point x="194" y="127" type="offcurve" name="14" />
   <point x="194" y="170" type="curve" smooth="yes" name="15" />
   <point x="194" y="210" type="offcurve" name="14" />
   <point x="223" y="253" type="offcurve" name="14" />
  </contour>
 </outline>
</glyph>
<glyph name="nine" format="1">
 <advance width="537" />
 <unicode hex="0039" />
 <outline>
  <contour>
   <point x="76" y="52" type="line" smooth="no" name="13" />
   <point x="104" y="25" type="offcurve" name="14" />
   <point x="172" y="-12" type="offcurve" name="14" />
   <point x="249" y="-12" type="curve" smooth="yes" name="15" />
   <point x="424" y="-12" type="offcurve" name="14" />
   <point x="494" y="129" type="offcurve" name="14" />
   <point x="494" y="346" type="curve" smooth="yes" name="15" />
   <point x="494" y="466" type="offcurve" name="14" />
   <point x="464" y="645" type="offcurve" name="14" />
   <point x="273" y="645" type="curve" smooth="yes" name="15" />
   <point x="112" y="645" type="offcurve" name="14" />
   <point x="53" y="517" type="offcurve" name="14" />
   <point x="53" y="428" type="curve" smooth="yes" name="15" />
   <point x="53" y="269" type="offcurve" name="14" />
   <point x="153" y="219" type="offcurve" name="14" />
   <point x="255" y="219" type="curve" smooth="yes" name="15" />
   <point x="306" y="219" type="offcurve" name="14" />
   <point x="343" y="239" type="offcurve" name="14" />
   <point x="352" y="246" type="curve" smooth="no" name="13" />
   <point x="352" y="244" type="offcurve" name="14" />
   <point x="352" y="243" type="offcurve" name="14" />
   <point x="352" y="242" type="curve" smooth="yes" name="15" />
   <point x="352" y="156" type="offcurve" name="14" />
   <point x="304" y="108" type="offcurve" name="14" />
   <point x="245" y="108" type="curve" smooth="yes" name="15" />
   <point x="204" y="108" type="offcurve" name="14" />
   <point x="167" y="121" type="offcurve" name="14" />
   <point x="124" y="141" type="curve" smooth="no" name="13" />
  </contour>
  <contour>
   <point x="352" y="343" type="curve" smooth="no" name="13" />
   <point x="336" y="328" type="offcurve" name="14" />
   <point x="301" y="318" type="offcurve" name="14" />
   <point x="287" y="318" type="curve" smooth="yes" name="15" />
   <point x="247" y="318" type="offcurve" name="14" />
   <point x="200" y="333" type="offcurve" name="14" />
   <point x="200" y="428" type="curve" smooth="yes" name="15" />
   <point x="200" y="470" type="offcurve" name="14" />
   <point x="225" y="537" type="offcurve" name="14" />
   <point x="275" y="537" type="curve" smooth="yes" name="15" />
   <point x="343" y="537" type="offcurve" name="14" />
   <point x="347" y="447" type="offcurve" name="14" />
   <point x="350" y="369" type="curve" smooth="yes" name="15" />
   <point x="351" y="360" type="offcurve" name="14" />
   <point x="351" y="351" type="offcurve" name="14" />
  </contour>
 </outline>
</glyph>
<glyph name="colon" format="1">
 <advance width="310" />
 <unicode hex="003a" />
 <outline>
  <contour>
   <point x="262" y="319" type="curve" smooth="yes" name="15" />
   <point x="262" y="361" type="offcurve" name="14" />
   <point x="233" y="401" type="offcurve" name="14" />
   <point x="177" y="401" type="curve" smooth="yes" name="15" />
   <point x="123" y="401" type="offcurve" name="14" />
   <point x="95" y="363" type="offcurve" name="14" />
   <point x="92" y="323" type="curve" smooth="yes" name="15" />
   <point x="92" y="322" type="offcurve" name="14" />
   <point x="92" y="320" type="offcurve" name="14" />
   <point x="92" y="319" type="curve" smooth="yes" name="15" />
   <point x="92" y="276" type="offcurve" name="14" />
   <point x="120" y="235" type="offcurve" name="14" />
   <point x="177" y="235" type="curve" smooth="yes" name="15" />
   <point x="233" y="235" type="offcurve" name="14" />
   <point x="262" y="274" type="offcurve" name="14" />
   <point x="262" y="317" type="curve" smooth="yes" name="15" />
   <point x="262" y="318" type="offcurve" name="14" />
   <point x="262" y="318" type="offcurve" name="14" />
  </contour>
  <contour>
   <point x="262" y="79" type="curve" smooth="yes" name="15" />
   <point x="262" y="121" type="offcurve" name="14" />
   <point x="233" y="161" type="offcurve" name="14" />
   <point x="177" y="161" type="curve" smooth="yes" name="15" />
   <point x="123" y="161" type="offcurve" name="14" />
   <point x="95" y="123" type="offcurve" name="14" />
   <point x="92" y="83" type="curve" smooth="yes" name="15" />
   <point x="92" y="82" type="offcurve" name="14" />
   <point x="92" y="80" type="offcurve" name="14" />
   <point x="92" y="79" type="curve" smooth="yes" name="15" />
   <point x="92" y="36" type="offcurve" name="14" />
   <point x="120" y="-5" type="offcurve" name="14" />
   <point x="177" y="-5" type="curve" smooth="yes" name="15" />
   <point x="233" y="-5" type="offcurve" name="14" />
   <point x="262" y="34" type="offcurve" name="14" />
   <point x="262" y="77" type="curve" smooth="yes" name="15" />
   <point x="262" y="78" type="offcurve" name="14" />
   <point x="262" y="78" type="offcurve" name="14" />
  </contour>
 </outline>
</glyph>
<glyph name="semicolon" format="1">
 <advance width="292" />
 <unicode hex="003b" />
 <outline>
  <contour>
   <point x="60" y="317" type="curve" smooth="no" name="13" />
   <point x="63" y="269" type="offcurve" name="14" />
   <point x="96" y="237" type="offcurve" name="14" />
   <point x="142" y="237" type="curve" smooth="yes" name="15" />
   <point x="187" y="237" type="offcurve" name="14" />
   <point x="223" y="272" type="offcurve" name="14" />
   <point x="223" y="317" type="curve" smooth="yes" name="15" />
   <point x="223" y="362" type="offcurve" name="14" />
   <point x="187" y="400" type="offcurve" name="14" />
   <point x="142" y="400" type="curve" smooth="yes" name="15" />
   <point x="96" y="400" type="offcurve" name="14" />
   <point x="64" y="367" type="offcurve" name="14" />
  </contour>
  <contour>
   <point x="61" y="-36" type="curve" smooth="no" name="13" />
   <point x="105" y="-117" type="line" smooth="no" name="13" />
   <point x="145" y="-107" type="offcurve" name="14" />
   <point x="157" y="-101" type="offcurve" name="14" />
   <point x="178" y="-82" type="curve" smooth="yes" name="15" />
   <point x="211" y="-52" type="offcurve" name="14" />
   <point x="231" y="-4" type="offcurve" name="14" />
   <point x="231" y="42" type="curve" smooth="yes" name="15" />
   <point x="231" y="90" type="offcurve" name="14" />
   <point x="201" y="141" type="offcurve" name="14" />
   <point x="148" y="141" type="curve" smooth="yes" name="15" />
   <point x="99" y="141" type="offcurve" name="14" />
   <point x="63" y="108" type="offcurve" name="14" />
   <point x="63" y="61" type="curve" smooth="yes" name="15" />
   <point x="63" y="24" type="offcurve" name="14" />
   <point x="80" y="-2" type="offcurve" name="14" />
   <point x="108" y="-8" type="curve" smooth="no" name="13" />
   <point x="100" y="-21" type="offcurve" name="14" />
   <point x="93" y="-25" type="offcurve" name="14" />
  </contour>
 </outline>
</glyph>
<glyph name="less" format="1">
 <advance width="522" />
 <unicode hex="003c" />
 <outline>
  <contour>
   <point x="485" y="-15" type="line" smooth="no" name="13" />
   <point x="485" y="97" type="line" smooth="no" name="13" />
   <point x="121" y="235" type="line" smooth="no" name="13" />
   <point x="485" y="369" type="line" smooth="no" name="13" />
   <point x="485" y="479" type="line" smooth="no" name="13" />
   <point x="29" y="314" type="line" smooth="no" name="13" />
   <point x="29" y="155" type="line" smooth="no" name="13" />
  </contour>
 </outline>
</glyph>
<glyph name="equal" format="1">
 <advance width="514" />
 <unicode hex="003d" />
 <outline>
  <contour>
   <point x="486" y="256" type="line" smooth="no" name="13" />
   <point x="486" y="363" type="line" smooth="no" name="13" />
   <point x="29" y="363" type="line" smooth="no" name="13" />
   <point x="29" y="256" type="line" smooth="no" name="13" />
  </contour>
  <contour>
   <point x="486" y="91" type="line" smooth="no" name="13" />
   <point x="486" y="200" type="line" smooth="no" name="13" />
   <point x="29" y="200" type="line" smooth="no" name="13" />
   <point x="29" y="91" type="line" smooth="no" name="13" />
  </contour>
 </outline>
</glyph>
<glyph name="greater" format="1">
 <advance width="522" />
 <unicode hex="003e" />
 <outline>
  <contour>
   <point x="38" y="-15" type="line" smooth="no" name="13" />
   <point x="494" y="155" type="line" smooth="no" name="13" />
   <point x="494" y="314" type="line" smooth="no" name="13" />
   <point x="38" y="479" type="line" smooth="no" name="13" />
   <point x="38" y="369" type="line" smooth="no" name="13" />
   <point x="402" y="235" type="line" smooth="no" name="13" />
   <point x="38" y="97" type="line" smooth="no" name="13" />
  </contour>
 </outline>
</glyph>
<glyph name="question" format="1">
 <advance width="401" />
 <unicode hex="003f" />
 <outline>
  <contour>
   <point x="237" y="155" type="line" smooth="no" name="13" />
   <point x="237" y="219" type="line" smooth="yes" name="15" />
   <point x="237" y="263" type="offcurve" name="14" />
   <point x="260" y="283" type="offcurve" name="14" />
   <point x="281" y="302" type="curve" smooth="yes" name="15" />
   <point x="286" y="307" type="offcurve" name="14" />
   <point x="291" y="311" type="offcurve" name="14" />
   <point x="295" y="316" type="curve" smooth="yes" name="15" />
   <point x="336" y="359" type="offcurve" name="14" />
   <point x="368" y="415" type="offcurve" name="14" />
   <point x="368" y="482" type="curve" smooth="yes" name="15" />
   <point x="368" y="558" type="offcurve" name="14" />
   <point x="317" y="645" type="offcurve" name="14" />
   <point x="202" y="645" type="curve" smooth="yes" name="15" />
   <point x="128" y="645" type="offcurve" name="14" />
   <point x="67" y="615" type="offcurve" name="14" />
   <point x="29" y="577" type="curve" smooth="no" name="13" />
   <point x="80" y="502" type="line" smooth="no" name="13" />
   <point x="99" y="521" type="offcurve" name="14" />
   <point x="143" y="543" type="offcurve" name="14" />
   <point x="172" y="543" type="curve" smooth="yes" name="15" />
   <point x="204" y="543" type="offcurve" name="14" />
   <point x="242" y="518" type="offcurve" name="14" />
   <point x="242" y="478" type="curve" smooth="yes" name="15" />
   <point x="242" y="433" type="offcurve" name="14" />
   <point x="207" y="391" type="offcurve" name="14" />
   <point x="175" y="367" type="curve" smooth="yes" name="15" />
   <point x="107" y="315" type="offcurve" name="14" />
   <point x="105" y="290" type="offcurve" name="14" />
   <point x="105" y="233" type="curve" smooth="yes" name="15" />
   <point x="105" y="231" type="offcurve" name="14" />
   <point x="105" y="228" type="offcurve" name="14" />
   <point x="105" y="225" type="curve" smooth="yes" name="15" />
   <point x="105" y="155" type="line" smooth="no" name="13" />
  </contour>
  <contour>
   <point x="96" y="58" type="curve" smooth="yes" name="15" />
   <point x="96" y="19" type="offcurve" name="14" />
   <point x="128" y="-12" type="offcurve" name="14" />
   <point x="168" y="-12" type="curve" smooth="yes" name="15" />
   <point x="207" y="-12" type="offcurve" name="14" />
   <point x="239" y="19" type="offcurve" name="14" />
   <point x="239" y="58" type="curve" smooth="yes" name="15" />
   <point x="239" y="98" type="offcurve" name="14" />
   <point x="207" y="131" type="offcurve" name="14" />
   <point x="168" y="131" type="curve" smooth="yes" name="15" />
   <point x="128" y="131" type="offcurve" name="14" />
   <point x="96" y="98" type="offcurve" name="14" />
  </contour>
 </outline>
</glyph>
<glyph name="at" format="1">
 <advance width="692" />
 <unicode hex="0040" />
 <outline>
  <contour>
   <point x="429" y="-82" type="line" smooth="no" name="13" />
   <point x="421" y="-83" type="offcurve" name="14" />
   <point x="406" y="-84" type="offcurve" name="14" />
   <point x="398" y="-84" type="curve" smooth="yes" name="15" />
   <point x="397" y="-84" type="offcurve" name="14" />
   <point x="397" y="-84" type="offcurve" name="14" />
   <point x="396" y="-84" type="curve" smooth="yes" name="15" />
   <point x="297" y="-82" type="offcurve" name="14" />
   <point x="149" y="-35" type="offcurve" name="14" />
   <point x="149" y="154" type="curve" smooth="yes" name="15" />
   <point x="149" y="294" type="offcurve" name="14" />
   <point x="235" y="374" type="offcurve" name="14" />
   <point x="353" y="374" type="curve" smooth="yes" name="15" />
   <point x="440" y="374" type="offcurve" name="14" />
   <point x="548" y="311" type="offcurve" name="14" />
   <point x="548" y="182" type="curve" smooth="yes" name="15" />
   <point x="548" y="115" type="offcurve" name="14" />
   <point x="534" y="81" type="offcurve" name="14" />
   <point x="505" y="81" type="curve" smooth="yes" name="15" />
   <point x="493" y="81" type="offcurve" name="14" />
   <point x="492" y="93" type="offcurve" name="14" />
   <point x="492" y="110" type="curve" smooth="yes" name="15" />
   <point x="492" y="114" type="offcurve" name="14" />
   <point x="493" y="117" type="offcurve" name="14" />
   <point x="493" y="121" type="curve" smooth="yes" name="15" />
   <point x="493" y="310" type="line" smooth="no" name="13" />
   <point x="391" y="310" type="line" smooth="no" name="13" />
   <point x="388" y="306" type="offcurve" name="14" />
   <point x="384" y="301" type="offcurve" name="14" />
   <point x="381" y="297" type="curve" smooth="no" name="13" />
   <point x="371" y="306" type="offcurve" name="14" />
   <point x="343" y="309" type="offcurve" name="14" />
   <point x="334" y="309" type="curve" smooth="yes" name="15" />
   <point x="262" y="309" type="offcurve" name="14" />
   <point x="177" y="247" type="offcurve" name="14" />
   <point x="177" y="130" type="curve" smooth="yes" name="15" />
   <point x="177" y="55" type="offcurve" name="14" />
   <point x="230" y="-12" type="offcurve" name="14" />
   <point x="303" y="-12" type="curve" smooth="yes" name="15" />
   <point x="371" y="-12" type="offcurve" name="14" />
   <point x="386" y="20" type="offcurve" name="14" />
   <point x="403" y="44" type="curve" smooth="no" name="13" />
   <point x="405" y="11" type="offcurve" name="14" />
   <point x="442" y="-12" type="offcurve" name="14" />
   <point x="497" y="-12" type="curve" smooth="yes" name="15" />
   <point x="623" y="-12" type="offcurve" name="14" />
   <point x="658" y="109" type="offcurve" name="14" />
   <point x="658" y="182" type="curve" smooth="yes" name="15" />
   <point x="658" y="361" type="offcurve" name="14" />
   <point x="507" y="466" type="offcurve" name="14" />
   <point x="353" y="466" type="curve" smooth="yes" name="15" />
   <point x="176" y="466" type="offcurve" name="14" />
   <point x="35" y="345" type="offcurve" name="14" />
   <point x="35" y="151" type="curve" smooth="yes" name="15" />
   <point x="35" y="-51" type="offcurve" name="14" />
   <point x="185" y="-174" type="offcurve" name="14" />
   <point x="358" y="-175" type="curve" smooth="yes" name="15" />
   <point x="359" y="-175" type="offcurve" name="14" />
   <point x="360" y="-175" type="offcurve" name="14" />
   <point x="360" y="-175" type="curve" smooth="yes" name="15" />
   <point x="380" y="-175" type="offcurve" name="14" />
   <point x="418" y="-173" type="offcurve" name="14" />
   <point x="432" y="-172" type="curve" smooth="no" name="13" />
  </contour>
  <contour>
   <point x="368" y="218" type="curve" smooth="no" name="13" />
   <point x="368" y="137" type="line" smooth="yes" name="15" />
   <point x="368" y="90" type="offcurve" name="14" />
   <point x="357" y="84" type="offcurve" name="14" />
   <point x="335" y="84" type="curve" smooth="yes" name="15" />
   <point x="313" y="84" type="offcurve" name="14" />
   <point x="302" y="107" type="offcurve" name="14" />
   <point x="302" y="148" type="curve" smooth="yes" name="15" />
   <point x="302" y="194" type="offcurve" name="14" />
   <point x="316" y="222" type="offcurve" name="14" />
   <point x="339" y="222" type="curve" smooth="yes" name="15" />
   <point x="347" y="222" type="offcurve" name="14" />
   <point x="362" y="219" type="offcurve" name="14" />
  </contour>
 </outline>
</glyph>
<glyph name="A" format="1">
 <advance width="587" />
 <unicode hex="0041" />
 <outline>
  <contour>
   <point x="236" y="633" type="line" smooth="no" name="13" />
   <point x="2" y="0" type="line" smooth="no" name="13" />
   <point x="142" y="0" type="line" smooth="no" name="13" />
   <point x="154" y="38" type="offcurve" name="14" />
   <point x="170" y="87" type="offcurve" name="14" />
   <point x="184" y="129" type="curve" smooth="no" name="13" />
   <point x="403" y="129" type="line" smooth="no" name="13" />
   <point x="417" y="81" type="offcurve" name="14" />
   <point x="429" y="42" type="offcurve" name="14" />
   <point x="443" y="0" type="curve" smooth="no" name="13" />
   <point x="586" y="0" type="line" smooth="no" name="13" />
   <point x="352" y="633" type="line" smooth="no" name="13" />
  </contour>
  <contour>
   <point x="295" y="447" type="curve" smooth="no" name="13" />
   <point x="317" y="380" type="offcurve" name="14" />
   <point x="341" y="310" type="offcurve" name="14" />
   <point x="363" y="245" type="curve" smooth="no" name="13" />
   <point x="225" y="245" type="line" smooth="no" name="13" />
   <point x="248" y="313" type="offcurve" name="14" />
   <point x="271" y="378" type="offcurve" name="14" />
  </contour>
 </outline>
</glyph>
<glyph name="B" format="1">
 <advance width="555" />
 <unicode hex="0042" />
 <outline>
  <contour>
   <point x="77" y="1" type="line" smooth="no" name="13" />
   <point x="111" y="-5" type="offcurve" name="14" />
   <point x="217" y="-12" type="offcurve" name="14" />
   <point x="250" y="-12" type="curve" smooth="yes" name="15" />
   <point x="419" y="-12" type="offcurve" name="14" />
   <point x="519" y="58" type="offcurve" name="14" />
   <point x="519" y="176" type="curve" smooth="yes" name="15" />
   <point x="519" y="242" type="offcurve" name="14" />
   <point x="484" y="325" type="offcurve" name="14" />
   <point x="374" y="337" type="curve" smooth="no" name="13" />
   <point x="374" y="338" type="line" smooth="no" name="13" />
   <point x="375" y="338" type="offcurve" name="14" />
   <point x="376" y="338" type="offcurve" name="14" />
   <point x="377" y="338" type="curve" smooth="yes" name="15" />
   <point x="440" y="338" type="offcurve" name="14" />
   <point x="502" y="400" type="offcurve" name="14" />
   <point x="502" y="460" type="curve" smooth="yes" name="15" />
   <point x="502" y="565" type="offcurve" name="14" />
   <point x="431" y="645" type="offcurve" name="14" />
   <point x="265" y="645" type="curve" smooth="yes" name="15" />
   <point x="219" y="645" type="offcurve" name="14" />
   <point x="120" y="640" type="offcurve" name="14" />
   <point x="77" y="632" type="curve" smooth="no" name="13" />
  </contour>
  <contour>
   <point x="218" y="527" type="line" smooth="no" name="13" />
   <point x="241" y="532" type="offcurve" name="14" />
   <point x="253" y="534" type="offcurve" name="14" />
   <point x="269" y="534" type="curve" smooth="yes" name="15" />
   <point x="307" y="534" type="offcurve" name="14" />
   <point x="364" y="521" type="offcurve" name="14" />
   <point x="364" y="458" type="curve" smooth="yes" name="15" />
   <point x="364" y="399" type="offcurve" name="14" />
   <point x="325" y="391" type="offcurve" name="14" />
   <point x="287" y="391" type="curve" smooth="yes" name="15" />
   <point x="218" y="391" type="line" smooth="no" name="13" />
  </contour>
  <contour>
   <point x="218" y="278" type="line" smooth="no" name="13" />
   <point x="280" y="278" type="line" smooth="yes" name="15" />
   <point x="342" y="278" type="offcurve" name="14" />
   <point x="373" y="240" type="offcurve" name="14" />
   <point x="373" y="177" type="curve" smooth="yes" name="15" />
   <point x="373" y="124" type="offcurve" name="14" />
   <point x="341" y="98" type="offcurve" name="14" />
   <point x="284" y="98" type="curve" smooth="yes" name="15" />
   <point x="283" y="98" type="offcurve" name="14" />
   <point x="282" y="98" type="offcurve" name="14" />
   <point x="281" y="98" type="curve" smooth="yes" name="15" />
   <point x="263" y="98" type="offcurve" name="14" />
   <point x="240" y="99" type="offcurve" name="14" />
   <point x="218" y="107" type="curve" smooth="no" name="13" />
  </contour>
 </outline>
</glyph>
<glyph name="C" format="1">
 <advance width="571" />
 <unicode hex="0043" />
 <outline>
  <contour>
   <point x="527" y="561" type="line" smooth="no" name="13" />
   <point x="463" y="616" type="offcurve" name="14" />
   <point x="399" y="645" type="offcurve" name="14" />
   <point x="335" y="645" type="curve" smooth="yes" name="15" />
   <point x="119" y="645" type="offcurve" name="14" />
   <point x="37" y="482" type="offcurve" name="14" />
   <point x="37" y="310" type="curve" smooth="yes" name="15" />
   <point x="37" y="173" type="offcurve" name="14" />
   <point x="108" y="-12" type="offcurve" name="14" />
   <point x="337" y="-12" type="curve" smooth="yes" name="15" />
   <point x="413" y="-12" type="offcurve" name="14" />
   <point x="482" y="19" type="offcurve" name="14" />
   <point x="535" y="74" type="curve" smooth="no" name="13" />
   <point x="481" y="158" type="line" smooth="no" name="13" />
   <point x="418" y="119" type="offcurve" name="14" />
   <point x="386" y="111" type="offcurve" name="14" />
   <point x="354" y="111" type="curve" smooth="yes" name="15" />
   <point x="226" y="111" type="offcurve" name="14" />
   <point x="183" y="235" type="offcurve" name="14" />
   <point x="183" y="310" type="curve" smooth="yes" name="15" />
   <point x="183" y="438" type="offcurve" name="14" />
   <point x="242" y="525" type="offcurve" name="14" />
   <point x="343" y="525" type="curve" smooth="yes" name="15" />
   <point x="390" y="525" type="offcurve" name="14" />
   <point x="432" y="501" type="offcurve" name="14" />
   <point x="473" y="471" type="curve" smooth="no" name="13" />
  </contour>
 </outline>
</glyph>
<glyph name="D" format="1">
 <advance width="630" />
 <unicode hex="0044" />
 <outline>
  <contour>
   <point x="77" y="1" type="line" smooth="no" name="13" />
   <point x="115" y="-7" type="offcurve" name="14" />
   <point x="215" y="-12" type="offcurve" name="14" />
   <point x="242" y="-12" type="curve" smooth="yes" name="15" />
   <point x="479" y="-12" type="offcurve" name="14" />
   <point x="594" y="114" type="offcurve" name="14" />
   <point x="594" y="323" type="curve" smooth="yes" name="15" />
   <point x="594" y="516" type="offcurve" name="14" />
   <point x="472" y="645" type="offcurve" name="14" />
   <point x="254" y="645" type="curve" smooth="yes" name="15" />
   <point x="188" y="645" type="offcurve" name="14" />
   <point x="90" y="636" type="offcurve" name="14" />
   <point x="77" y="632" type="curve" smooth="no" name="13" />
  </contour>
  <contour>
   <point x="218" y="528" type="line" smooth="no" name="13" />
   <point x="239" y="532" type="offcurve" name="14" />
   <point x="244" y="532" type="offcurve" name="14" />
   <point x="253" y="532" type="curve" smooth="yes" name="15" />
   <point x="255" y="532" type="offcurve" name="14" />
   <point x="257" y="532" type="offcurve" name="14" />
   <point x="259" y="532" type="curve" smooth="yes" name="15" />
   <point x="365" y="532" type="offcurve" name="14" />
   <point x="447" y="461" type="offcurve" name="14" />
   <point x="447" y="319" type="curve" smooth="yes" name="15" />
   <point x="447" y="169" type="offcurve" name="14" />
   <point x="379" y="98" type="offcurve" name="14" />
   <point x="262" y="98" type="curve" smooth="yes" name="15" />
   <point x="261" y="98" type="offcurve" name="14" />
   <point x="260" y="98" type="offcurve" name="14" />
   <point x="257" y="98" type="curve" smooth="yes" name="15" />
   <point x="250" y="98" type="offcurve" name="14" />
   <point x="233" y="99" type="offcurve" name="14" />
   <point x="218" y="103" type="curve" smooth="no" name="13" />
  </contour>
 </outline>
</glyph>
<glyph name="E" format="1">
 <advance width="548" />
 <unicode hex="0045" />
 <outline>
  <contour>
   <point x="73" y="633" type="line" smooth="no" name="13" />
   <point x="73" y="0" type="line" smooth="no" name="13" />
   <point x="507" y="0" type="line" smooth="no" name="13" />
   <point x="507" y="112" type="line" smooth="no" name="13" />
   <point x="214" y="112" type="line" smooth="no" name="13" />
   <point x="214" y="270" type="line" smooth="no" name="13" />
   <point x="447" y="270" type="line" smooth="no" name="13" />
   <point x="447" y="382" type="line" smooth="no" name="13" />
   <point x="214" y="382" type="line" smooth="no" name="13" />
   <point x="214" y="521" type="line" smooth="no" name="13" />
   <point x="494" y="521" type="line" smooth="no" name="13" />
   <point x="494" y="633" type="line" smooth="no" name="13" />
  </contour>
 </outline>
</glyph>
<glyph name="F" format="1">
 <advance width="535" />
 <unicode hex="0046" />
 <outline>
  <contour>
   <point x="73" y="0" type="line" smooth="no" name="13" />
   <point x="214" y="0" type="line" smooth="no" name="13" />
   <point x="214" y="269" type="line" smooth="no" name="13" />
   <point x="447" y="269" type="line" smooth="no" name="13" />
   <point x="447" y="381" type="line" smooth="no" name="13" />
   <point x="214" y="381" type="line" smooth="no" name="13" />
   <point x="214" y="521" type="line" smooth="no" name="13" />
   <point x="494" y="521" type="line" smooth="no" name="13" />
   <point x="494" y="633" type="line" smooth="no" name="13" />
   <point x="73" y="633" type="line" smooth="no" name="13" />
  </contour>
 </outline>
</glyph>
<glyph name="G" format="1">
 <advance width="606" />
 <unicode hex="0047" />
 <outline>
  <contour>
   <point x="527" y="561" type="line" smooth="no" name="13" />
   <point x="476" y="611" type="offcurve" name="14" />
   <point x="401" y="645" type="offcurve" name="14" />
   <point x="325" y="645" type="curve" smooth="yes" name="15" />
   <point x="141" y="645" type="offcurve" name="14" />
   <point x="37" y="489" type="offcurve" name="14" />
   <point x="37" y="315" type="curve" smooth="yes" name="15" />
   <point x="37" y="158" type="offcurve" name="14" />
   <point x="113" y="-12" type="offcurve" name="14" />
   <point x="321" y="-12" type="curve" smooth="yes" name="15" />
   <point x="431" y="-12" type="offcurve" name="14" />
   <point x="495" y="24" type="offcurve" name="14" />
   <point x="551" y="54" type="curve" smooth="no" name="13" />
   <point x="551" y="361" type="line" smooth="no" name="13" />
   <point x="305" y="361" type="line" smooth="no" name="13" />
   <point x="305" y="238" type="line" smooth="no" name="13" />
   <point x="418" y="238" type="line" smooth="no" name="13" />
   <point x="418" y="118" type="line" smooth="no" name="13" />
   <point x="406" y="114" type="offcurve" name="14" />
   <point x="387" y="107" type="offcurve" name="14" />
   <point x="349" y="107" type="curve" smooth="yes" name="15" />
   <point x="263" y="107" type="offcurve" name="14" />
   <point x="183" y="186" type="offcurve" name="14" />
   <point x="183" y="311" type="curve" smooth="yes" name="15" />
   <point x="183" y="456" type="offcurve" name="14" />
   <point x="265" y="525" type="offcurve" name="14" />
   <point x="333" y="525" type="curve" smooth="yes" name="15" />
   <point x="386" y="525" type="offcurve" name="14" />
   <point x="432" y="501" type="offcurve" name="14" />
   <point x="473" y="471" type="curve" smooth="no" name="13" />
  </contour>
 </outline>
</glyph>
<glyph name="H" format="1">
 <advance width="696" />
 <unicode hex="0048" />
 <outline>
  <contour>
   <point x="77" y="0" type="line" smooth="no" name="13" />
   <point x="215" y="0" type="line" smooth="no" name="13" />
   <point x="215" y="270" type="line" smooth="no" name="13" />
   <point x="479" y="270" type="line" smooth="no" name="13" />
   <point x="479" y="0" type="line" smooth="no" name="13" />
   <point x="620" y="0" type="line" smooth="no" name="13" />
   <point x="620" y="633" type="line" smooth="no" name="13" />
   <point x="479" y="633" type="line" smooth="no" name="13" />
   <point x="479" y="382" type="line" smooth="no" name="13" />
   <point x="215" y="382" type="line" smooth="no" name="13" />
   <point x="215" y="633" type="line" smooth="no" name="13" />
   <point x="77" y="633" type="line" smooth="no" name="13" />
  </contour>
 </outline>
</glyph>
<glyph name="J" format="1">
 <advance width="271" />
 <unicode hex="004a" />
 <outline>
  <contour>
   <point x="195" y="633" type="line" smooth="no" name="13" />
   <point x="56" y="633" type="line" smooth="no" name="13" />
   <point x="56" y="-16" type="line" smooth="yes" name="15" />
   <point x="56" y="-56" type="offcurve" name="14" />
   <point x="44" y="-64" type="offcurve" name="14" />
   <point x="27" y="-64" type="curve" smooth="yes" name="15" />
   <point x="11" y="-64" type="offcurve" name="14" />
   <point x="-22" y="-56" type="offcurve" name="14" />
   <point x="-51" y="-37" type="curve" smooth="no" name="13" />
   <point x="-98" y="-115" type="line" smooth="no" name="13" />
   <point x="-69" y="-137" type="offcurve" name="14" />
   <point x="-11" y="-168" type="offcurve" name="14" />
   <point x="54" y="-168" type="curve" smooth="yes" name="15" />
   <point x="170" y="-168" type="offcurve" name="14" />
   <point x="195" y="-96" type="offcurve" name="14" />
   <point x="195" y="-23" type="curve" smooth="yes" name="15" />
  </contour>
 </outline>
</glyph>
<glyph name="K" format="1">
 <advance width="629" />
 <unicode hex="004b" />
 <outline>
  <contour>
   <point x="210" y="633" type="line" smooth="no" name="13" />
   <point x="77" y="633" type="line" smooth="no" name="13" />
   <point x="77" y="0" type="line" smooth="no" name="13" />
   <point x="210" y="0" type="line" smooth="no" name="13" />
   <point x="210" y="293" type="line" smooth="no" name="13" />
   <point x="213" y="293" type="line" smooth="no" name="13" />
   <point x="287" y="195" type="offcurve" name="14" />
   <point x="360" y="98" type="offcurve" name="14" />
   <point x="434" y="0" type="curve" smooth="no" name="13" />
   <point x="621" y="0" type="line" smooth="no" name="13" />
   <point x="529" y="112" type="offcurve" name="14" />
   <point x="438" y="223" type="offcurve" name="14" />
   <point x="344" y="335" type="curve" smooth="no" name="13" />
   <point x="418" y="432" type="offcurve" name="14" />
   <point x="497" y="537" type="offcurve" name="14" />
   <point x="568" y="633" type="curve" smooth="no" name="13" />
   <point x="395" y="633" type="line" smooth="no" name="13" />
   <point x="334" y="547" type="offcurve" name="14" />
   <point x="273" y="462" type="offcurve" name="14" />
   <point x="210" y="376" type="curve" smooth="no" name="13" />
   <point x="210" y="375" type="line" smooth="no" name="13" />
  </contour>
 </outline>
</glyph>
<glyph name="L" format="1">
 <advance width="494" />
 <unicode hex="004c" />
 <outline>
  <contour>
   <point x="77" y="0" type="line" smooth="no" name="13" />
   <point x="453" y="0" type="line" smooth="no" name="13" />
   <point x="453" y="112" type="line" smooth="no" name="13" />
   <point x="218" y="112" type="line" smooth="no" name="13" />
   <point x="218" y="633" type="line" smooth="no" name="13" />
   <point x="77" y="633" type="line" smooth="no" name="13" />
  </contour>
 </outline>
</glyph>
<glyph name="M" format="1">
 <advance width="845" />
 <unicode hex="004d" />
 <outline>
  <contour>
   <point x="768" y="633" type="line" smooth="no" name="13" />
   <point x="561" y="633" type="line" smooth="no" name="13" />
   <point x="498" y="441" type="offcurve" name="14" />
   <point x="462" y="318" type="offcurve" name="14" />
   <point x="419" y="163" type="curve" smooth="no" name="13" />
   <point x="378" y="320" type="offcurve" name="14" />
   <point x="346" y="431" type="offcurve" name="14" />
   <point x="275" y="633" type="curve" smooth="no" name="13" />
   <point x="77" y="633" type="line" smooth="no" name="13" />
   <point x="77" y="0" type="line" smooth="no" name="13" />
   <point x="215" y="0" type="line" smooth="no" name="13" />
   <point x="215" y="507" type="line" smooth="no" name="13" />
   <point x="237" y="402" type="offcurve" name="14" />
   <point x="317" y="136" type="offcurve" name="14" />
   <point x="361" y="0" type="curve" smooth="no" name="13" />
   <point x="480" y="0" type="line" smooth="no" name="13" />
   <point x="525" y="136" type="offcurve" name="14" />
   <point x="594" y="372" type="offcurve" name="14" />
   <point x="627" y="513" type="curve" smooth="no" name="13" />
   <point x="627" y="0" type="line" smooth="no" name="13" />
   <point x="768" y="0" type="line" smooth="no" name="13" />
  </contour>
 </outline>
</glyph>
<glyph name="N" format="1">
 <advance width="727" />
 <unicode hex="004e" />
 <outline>
  <contour>
   <point x="77" y="0" type="line" smooth="no" name="13" />
   <point x="215" y="0" type="line" smooth="no" name="13" />
   <point x="215" y="410" type="line" smooth="no" name="13" />
   <point x="277" y="327" type="offcurve" name="14" />
   <point x="455" y="91" type="offcurve" name="14" />
   <point x="532" y="0" type="curve" smooth="no" name="13" />
   <point x="651" y="0" type="line" smooth="no" name="13" />
   <point x="651" y="633" type="line" smooth="no" name="13" />
   <point x="510" y="633" type="line" smooth="no" name="13" />
   <point x="510" y="209" type="line" smooth="no" name="13" />
   <point x="447" y="297" type="offcurve" name="14" />
   <point x="245" y="568" type="offcurve" name="14" />
   <point x="193" y="633" type="curve" smooth="no" name="13" />
   <point x="77" y="633" type="line" smooth="no" name="13" />
  </contour>
 </outline>
</glyph>
<glyph name="P" format="1">
 <advance width="540" />
 <unicode hex="0050" />
 <outline>
  <contour>
   <point x="77" y="0" type="line" smooth="no" name="13" />
   <point x="218" y="0" type="line" smooth="no" name="13" />
   <point x="218" y="231" type="line" smooth="no" name="13" />
   <point x="220" y="228" type="offcurve" name="14" />
   <point x="268" y="223" type="offcurve" name="14" />
   <point x="288" y="223" type="curve" smooth="yes" name="15" />
   <point x="367" y="223" type="offcurve" name="14" />
   <point x="504" y="265" type="offcurve" name="14" />
   <point x="504" y="446" type="curve" smooth="yes" name="15" />
   <point x="504" y="554" type="offcurve" name="14" />
   <point x="444" y="645" type="offcurve" name="14" />
   <point x="259" y="645" type="curve" smooth="yes" name="15" />
   <point x="207" y="645" type="offcurve" name="14" />
   <point x="90" y="636" type="offcurve" name="14" />
   <point x="77" y="632" type="curve" smooth="no" name="13" />
  </contour>
  <contour>
   <point x="218" y="345" type="curve" smooth="no" name="13" />
   <point x="218" y="525" type="line" smooth="no" name="13" />
   <point x="221" y="529" type="offcurve" name="14" />
   <point x="251" y="532" type="offcurve" name="14" />
   <point x="277" y="532" type="curve" smooth="yes" name="15" />
   <point x="323" y="532" type="offcurve" name="14" />
   <point x="356" y="509" type="offcurve" name="14" />
   <point x="356" y="436" type="curve" smooth="yes" name="15" />
   <point x="356" y="361" type="offcurve" name="14" />
   <point x="314" y="334" type="offcurve" name="14" />
   <point x="278" y="334" type="curve" smooth="yes" name="15" />
   <point x="265" y="334" type="offcurve" name="14" />
   <point x="240" y="336" type="offcurve" name="14" />
  </contour>
 </outline>
</glyph>
<glyph name="Q" format="1">
 <advance width="661" />
 <unicode hex="0051" />
 <outline>
  <contour>
   <point x="497" y="34" type="curve" smooth="no" name="13" />
   <point x="575" y="92" type="offcurve" name="14" />
   <point x="616" y="192" type="offcurve" name="14" />
   <point x="616" y="303" type="curve" smooth="yes" name="15" />
   <point x="616" y="478" type="offcurve" name="14" />
   <point x="522" y="645" type="offcurve" name="14" />
   <point x="327" y="645" type="curve" smooth="yes" name="15" />
   <point x="139" y="645" type="offcurve" name="14" />
   <point x="37" y="493" type="offcurve" name="14" />
   <point x="37" y="303" type="curve" smooth="yes" name="15" />
   <point x="37" y="132" type="offcurve" name="14" />
   <point x="130" y="-12" type="offcurve" name="14" />
   <point x="327" y="-12" type="curve" smooth="yes" name="15" />
   <point x="344" y="-12" type="offcurve" name="14" />
   <point x="362" y="-11" type="offcurve" name="14" />
   <point x="377" y="-10" type="curve" smooth="no" name="13" />
   <point x="460" y="-107" type="line" smooth="no" name="13" />
   <point x="624" y="-107" type="line" smooth="no" name="13" />
   <point x="582" y="-62" type="offcurve" name="14" />
   <point x="537" y="-13" type="offcurve" name="14" />
  </contour>
  <contour>
   <point x="183" y="303" type="curve" smooth="yes" name="15" />
   <point x="183" y="437" type="offcurve" name="14" />
   <point x="230" y="525" type="offcurve" name="14" />
   <point x="327" y="525" type="curve" smooth="yes" name="15" />
   <point x="419" y="525" type="offcurve" name="14" />
   <point x="469" y="437" type="offcurve" name="14" />
   <point x="469" y="303" type="curve" smooth="yes" name="15" />
   <point x="469" y="175" type="offcurve" name="14" />
   <point x="419" y="106" type="offcurve" name="14" />
   <point x="327" y="106" type="curve" smooth="yes" name="15" />
   <point x="230" y="106" type="offcurve" name="14" />
   <point x="183" y="175" type="offcurve" name="14" />
  </contour>
 </outline>
</glyph>
<glyph name="R" format="1">
 <advance width="567" />
 <unicode hex="0052" />
 <outline>
  <contour>
   <point x="77" y="0" type="line" smooth="no" name="13" />
   <point x="218" y="0" type="line" smooth="no" name="13" />
   <point x="218" y="230" type="line" smooth="no" name="13" />
   <point x="228" y="226" type="offcurve" name="14" />
   <point x="246" y="224" type="offcurve" name="14" />
   <point x="264" y="223" type="curve" smooth="yes" name="15" />
   <point x="266" y="223" type="offcurve" name="14" />
   <point x="268" y="223" type="offcurve" name="14" />
   <point x="271" y="223" type="curve" smooth="yes" name="15" />
   <point x="279" y="223" type="offcurve" name="14" />
   <point x="289" y="224" type="offcurve" name="14" />
   <point x="298" y="226" type="curve" smooth="no" name="13" />
   <point x="402" y="0" type="line" smooth="no" name="13" />
   <point x="544" y="0" type="line" smooth="no" name="13" />
   <point x="421" y="264" type="line" smooth="no" name="13" />
   <point x="452" y="292" type="offcurve" name="14" />
   <point x="504" y="341" type="offcurve" name="14" />
   <point x="504" y="446" type="curve" smooth="yes" name="15" />
   <point x="504" y="554" type="offcurve" name="14" />
   <point x="444" y="645" type="offcurve" name="14" />
   <point x="259" y="645" type="curve" smooth="yes" name="15" />
   <point x="207" y="645" type="offcurve" name="14" />
   <point x="90" y="636" type="offcurve" name="14" />
   <point x="77" y="632" type="curve" smooth="no" name="13" />
  </contour>
  <contour>
   <point x="218" y="345" type="curve" smooth="no" name="13" />
   <point x="218" y="525" type="line" smooth="no" name="13" />
   <point x="221" y="529" type="offcurve" name="14" />
   <point x="251" y="532" type="offcurve" name="14" />
   <point x="277" y="532" type="curve" smooth="yes" name="15" />
   <point x="323" y="532" type="offcurve" name="14" />
   <point x="356" y="509" type="offcurve" name="14" />
   <point x="356" y="446" type="curve" smooth="yes" name="15" />
   <point x="356" y="366" type="offcurve" name="14" />
   <point x="321" y="337" type="offcurve" name="14" />
   <point x="280" y="337" type="curve" smooth="yes" name="15" />
   <point x="278" y="337" type="offcurve" name="14" />
   <point x="276" y="337" type="offcurve" name="14" />
   <point x="274" y="337" type="curve" smooth="yes" name="15" />
   <point x="241" y="337" type="offcurve" name="14" />
   <point x="229" y="342" type="offcurve" name="14" />
  </contour>
 </outline>
</glyph>
<glyph name="S" format="1">
 <advance width="535" />
 <unicode hex="0053" />
 <outline>
  <contour>
   <point x="37" y="66" type="line" smooth="no" name="13" />
   <point x="81" y="38" type="offcurve" name="14" />
   <point x="157" y="-12" type="offcurve" name="14" />
   <point x="266" y="-12" type="curve" smooth="yes" name="15" />
   <point x="391" y="-12" type="offcurve" name="14" />
   <point x="491" y="55" type="offcurve" name="14" />
   <point x="491" y="184" type="curve" smooth="yes" name="15" />
   <point x="491" y="277" type="offcurve" name="14" />
   <point x="428" y="337" type="offcurve" name="14" />
   <point x="294" y="389" type="curve" smooth="yes" name="15" />
   <point x="194" y="429" type="offcurve" name="14" />
   <point x="193" y="448" type="offcurve" name="14" />
   <point x="193" y="470" type="curve" smooth="yes" name="15" />
   <point x="193" y="503" type="offcurve" name="14" />
   <point x="218" y="527" type="offcurve" name="14" />
   <point x="269" y="527" type="curve" smooth="yes" name="15" />
   <point x="320" y="527" type="offcurve" name="14" />
   <point x="382" y="505" type="offcurve" name="14" />
   <point x="413" y="492" type="curve" smooth="no" name="13" />
   <point x="433" y="521" type="offcurve" name="14" />
   <point x="454" y="550" type="offcurve" name="14" />
   <point x="473" y="579" type="curve" smooth="no" name="13" />
   <point x="434" y="606" type="offcurve" name="14" />
   <point x="375" y="645" type="offcurve" name="14" />
   <point x="271" y="645" type="curve" smooth="yes" name="15" />
   <point x="131" y="645" type="offcurve" name="14" />
   <point x="60" y="566" type="offcurve" name="14" />
   <point x="60" y="471" type="curve" smooth="yes" name="15" />
   <point x="60" y="372" type="offcurve" name="14" />
   <point x="128" y="314" type="offcurve" name="14" />
   <point x="232" y="276" type="curve" smooth="yes" name="15" />
   <point x="320" y="244" type="offcurve" name="14" />
   <point x="345" y="220" type="offcurve" name="14" />
   <point x="345" y="190" type="curve" smooth="yes" name="15" />
   <point x="345" y="129" type="offcurve" name="14" />
   <point x="295" y="115" type="offcurve" name="14" />
   <point x="247" y="115" type="curve" smooth="yes" name="15" />
   <point x="201" y="115" type="offcurve" name="14" />
   <point x="146" y="121" type="offcurve" name="14" />
   <point x="100" y="153" type="curve" smooth="no" name="13" />
  </contour>
 </outline>
</glyph>
<glyph name="T" format="1">
 <advance width="541" />
 <unicode hex="0054" />
 <outline>
  <contour>
   <point x="193" y="521" type="line" smooth="no" name="13" />
   <point x="193" y="0" type="line" smooth="no" name="13" />
   <point x="335" y="0" type="line" smooth="no" name="13" />
   <point x="335" y="521" type="line" smooth="no" name="13" />
   <point x="530" y="521" type="line" smooth="no" name="13" />
   <point x="530" y="633" type="line" smooth="no" name="13" />
   <point x="12" y="633" type="line" smooth="no" name="13" />
   <point x="12" y="521" type="line" smooth="no" name="13" />
  </contour>
 </outline>
</glyph>
<glyph name="U" format="1">
 <advance width="647" />
 <unicode hex="0055" />
 <outline>
  <contour>
   <point x="77" y="633" type="line" smooth="no" name="13" />
   <point x="77" y="266" type="line" smooth="yes" name="15" />
   <point x="77" y="73" type="offcurve" name="14" />
   <point x="172" y="-12" type="offcurve" name="14" />
   <point x="324" y="-12" type="curve" smooth="yes" name="15" />
   <point x="476" y="-12" type="offcurve" name="14" />
   <point x="571" y="73" type="offcurve" name="14" />
   <point x="571" y="266" type="curve" smooth="yes" name="15" />
   <point x="571" y="633" type="line" smooth="no" name="13" />
   <point x="432" y="633" type="line" smooth="no" name="13" />
   <point x="432" y="249" type="line" smooth="yes" name="15" />
   <point x="432" y="145" type="offcurve" name="14" />
   <point x="389" y="106" type="offcurve" name="14" />
   <point x="324" y="106" type="curve" smooth="yes" name="15" />
   <point x="259" y="106" type="offcurve" name="14" />
   <point x="219" y="145" type="offcurve" name="14" />
   <point x="219" y="249" type="curve" smooth="yes" name="15" />
   <point x="219" y="633" type="line" smooth="no" name="13" />
  </contour>
 </outline>
</glyph>
<glyph name="V" format="1">
 <advance width="572" />
 <unicode hex="0056" />
 <outline>
  <contour>
   <point x="286" y="228" type="line" smooth="no" name="13" />
   <point x="145" y="633" type="line" smooth="no" name="13" />
   <point x="2" y="633" type="line" smooth="no" name="13" />
   <point x="232" y="0" type="line" smooth="no" name="13" />
   <point x="339" y="0" type="line" smooth="no" name="13" />
   <point x="571" y="633" type="line" smooth="no" name="13" />
   <point x="426" y="633" type="line" smooth="no" name="13" />
  </contour>
 </outline>
</glyph>
<glyph name="W" format="1">
 <advance width="782" />
 <unicode hex="0057" />
 <outline>
  <contour>
   <point x="464" y="633" type="line" smooth="no" name="13" />
   <point x="319" y="633" type="line" smooth="no" name="13" />
   <point x="313" y="609" type="offcurve" name="14" />
   <point x="306" y="586" type="offcurve" name="14" />
   <point x="300" y="562" type="curve" smooth="yes" name="15" />
   <point x="270" y="451" type="offcurve" name="14" />
   <point x="240" y="340" type="offcurve" name="14" />
   <point x="211" y="228" type="curve" smooth="no" name="13" />
   <point x="190" y="364" type="offcurve" name="14" />
   <point x="168" y="498" type="offcurve" name="14" />
   <point x="145" y="633" type="curve" smooth="no" name="13" />
   <point x="2" y="633" type="line" smooth="no" name="13" />
   <point x="18" y="563" type="offcurve" name="14" />
   <point x="34" y="492" type="offcurve" name="14" />
   <point x="50" y="422" type="curve" smooth="yes" name="15" />
   <point x="82" y="281" type="offcurve" name="14" />
   <point x="114" y="141" type="offcurve" name="14" />
   <point x="147" y="0" type="curve" smooth="no" name="13" />
   <point x="263" y="0" type="line" smooth="no" name="13" />
   <point x="298" y="122" type="offcurve" name="14" />
   <point x="335" y="244" type="offcurve" name="14" />
   <point x="373" y="369" type="curve" smooth="yes" name="15" />
   <point x="379" y="389" type="offcurve" name="14" />
   <point x="384" y="408" type="offcurve" name="14" />
   <point x="390" y="428" type="curve" smooth="no" name="13" />
   <point x="434" y="282" type="offcurve" name="14" />
   <point x="476" y="142" type="offcurve" name="14" />
   <point x="516" y="0" type="curve" smooth="no" name="13" />
   <point x="631" y="0" type="line" smooth="no" name="13" />
   <point x="781" y="633" type="line" smooth="no" name="13" />
   <point x="637" y="633" type="line" smooth="no" name="13" />
   <point x="628" y="584" type="offcurve" name="14" />
   <point x="620" y="536" type="offcurve" name="14" />
   <point x="612" y="487" type="curve" smooth="yes" name="15" />
   <point x="597" y="401" type="offcurve" name="14" />
   <point x="582" y="315" type="offcurve" name="14" />
   <point x="568" y="228" type="curve" smooth="no" name="13" />
  </contour>
 </outline>
</glyph>
<glyph name="X" format="1">
 <advance width="617" />
 <unicode hex="0058" />
 <outline>
  <contour>
   <point x="616" y="633" type="line" smooth="no" name="13" />
   <point x="452" y="633" type="line" smooth="no" name="13" />
   <point x="436" y="606" type="offcurve" name="14" />
   <point x="420" y="579" type="offcurve" name="14" />
   <point x="403" y="552" type="curve" smooth="yes" name="15" />
   <point x="377" y="507" type="offcurve" name="14" />
   <point x="350" y="462" type="offcurve" name="14" />
   <point x="322" y="418" type="curve" smooth="no" name="13" />
   <point x="192" y="633" type="line" smooth="no" name="13" />
   <point x="29" y="633" type="line" smooth="no" name="13" />
   <point x="215" y="325" type="line" smooth="no" name="13" />
   <point x="2" y="0" type="line" smooth="no" name="13" />
   <point x="165" y="0" type="line" smooth="no" name="13" />
   <point x="212" y="84" type="offcurve" name="14" />
   <point x="259" y="166" type="offcurve" name="14" />
   <point x="307" y="250" type="curve" smooth="no" name="13" />
   <point x="450" y="0" type="line" smooth="no" name="13" />
   <point x="610" y="0" type="line" smooth="no" name="13" />
   <point x="595" y="23" type="offcurve" name="14" />
   <point x="581" y="46" type="offcurve" name="14" />
   <point x="566" y="69" type="curve" smooth="yes" name="15" />
   <point x="514" y="154" type="offcurve" name="14" />
   <point x="461" y="237" type="offcurve" name="14" />
   <point x="408" y="322" type="curve" smooth="no" name="13" />
  </contour>
 </outline>
</glyph>
<glyph name="Y" format="1">
 <advance width="577" />
 <unicode hex="0059" />
 <outline>
  <contour>
   <point x="2" y="633" type="line" smooth="no" name="13" />
   <point x="74" y="505" type="offcurve" name="14" />
   <point x="146" y="378" type="offcurve" name="14" />
   <point x="220" y="250" type="curve" smooth="no" name="13" />
   <point x="220" y="0" type="line" smooth="no" name="13" />
   <point x="360" y="0" type="line" smooth="no" name="13" />
   <point x="360" y="250" type="line" smooth="no" name="13" />
   <point x="576" y="633" type="line" smooth="no" name="13" />
   <point x="424" y="633" type="line" smooth="no" name="13" />
   <point x="291" y="355" type="line" smooth="no" name="13" />
   <point x="244" y="448" type="offcurve" name="14" />
   <point x="199" y="540" type="offcurve" name="14" />
   <point x="154" y="633" type="curve" smooth="no" name="13" />
  </contour>
 </outline>
</glyph>
<glyph name="Z" format="1">
 <advance width="484" />
 <unicode hex="005a" />
 <outline>
  <contour>
   <point x="466" y="633" type="line" smooth="no" name="13" />
   <point x="21" y="633" type="line" smooth="no" name="13" />
   <point x="21" y="521" type="line" smooth="no" name="13" />
   <point x="301" y="521" type="line" smooth="no" name="13" />
   <point x="211" y="390" type="offcurve" name="14" />
   <point x="109" y="242" type="offcurve" name="14" />
   <point x="12" y="99" type="curve" smooth="no" name="13" />
   <point x="12" y="0" type="line" smooth="no" name="13" />
   <point x="473" y="0" type="line" smooth="no" name="13" />
   <point x="473" y="112" type="line" smooth="no" name="13" />
   <point x="193" y="112" type="line" smooth="no" name="13" />
   <point x="283" y="245" type="offcurve" name="14" />
   <point x="380" y="387" type="offcurve" name="14" />
   <point x="466" y="517" type="curve" smooth="no" name="13" />
  </contour>
 </outline>
</glyph>
<glyph name="bracketleft" format="1">
 <advance width="375" />
 <unicode hex="005b" />
 <outline>
  <contour>
   <point x="317" y="-140" type="line" smooth="no" name="13" />
   <point x="317" y="-40" type="line" smooth="no" name="13" />
   <point x="208" y="-40" type="line" smooth="no" name="13" />
   <point x="208" y="541" type="line" smooth="no" name="13" />
   <point x="317" y="541" type="line" smooth="no" name="13" />
   <point x="317" y="645" type="line" smooth="no" name="13" />
   <point x="78" y="645" type="line" smooth="no" name="13" />
   <point x="78" y="-140" type="line" smooth="no" name="13" />
  </contour>
 </outline>
</glyph>
<glyph name="backslash" format="1">
 <advance width="339" />
 <unicode hex="005c" />
 <outline>
  <contour>
   <point x="-51" y="633" type="line" smooth="no" name="13" />
   <point x="262" y="-30" type="line" smooth="no" name="13" />
   <point x="367" y="-30" type="line" smooth="no" name="13" />
   <point x="57" y="633" type="line" smooth="no" name="13" />
  </contour>
 </outline>
</glyph>
<glyph name="bracketright" format="1">
 <advance width="376" />
 <unicode hex="005d" />
 <outline>
  <contour>
   <point x="59" y="645" type="line" smooth="no" name="13" />
   <point x="59" y="541" type="line" smooth="no" name="13" />
   <point x="166" y="541" type="line" smooth="no" name="13" />
   <point x="166" y="-40" type="line" smooth="no" name="13" />
   <point x="59" y="-40" type="line" smooth="no" name="13" />
   <point x="59" y="-140" type="line" smooth="no" name="13" />
   <point x="299" y="-140" type="line" smooth="no" name="13" />
   <point x="299" y="645" type="line" smooth="no" name="13" />
  </contour>
 </outline>
</glyph>
<glyph name="asciicircum" format="1">
 <advance width="454" />
 <unicode hex="005e" />
 <outline>
  <contour>
   <point x="433" y="299" type="line" smooth="no" name="13" />
   <point x="279" y="609" type="line" smooth="no" name="13" />
   <point x="176" y="609" type="line" smooth="no" name="13" />
   <point x="22" y="299" type="line" smooth="no" name="13" />
   <point x="156" y="299" type="line" smooth="no" name="13" />
   <point x="225" y="446" type="line" smooth="no" name="13" />
   <point x="309" y="299" type="line" smooth="no" name="13" />
  </contour>
 </outline>
</glyph>
<glyph name="underscore" format="1">
 <advance width="402" />
 <unicode hex="005f" />
 <outline>
  <contour>
   <point x="411" y="-139" type="line" smooth="no" name="13" />
   <point x="411" y="-30" type="line" smooth="no" name="13" />
   <point x="-8" y="-30" type="line" smooth="no" name="13" />
   <point x="-8" y="-139" type="line" smooth="no" name="13" />
  </contour>
 </outline>
</glyph>
<glyph name="grave" format="1">
 <advance width="231" />
 <unicode hex="0060" />
 <outline>
  <contour>
   <point x="12" y="655" type="line" smooth="no" name="13" />
   <point x="125" y="503" type="line" smooth="no" name="13" />
   <point x="220" y="503" type="line" smooth="no" name="13" />
   <point x="145" y="655" type="line" smooth="no" name="13" />
  </contour>
 </outline>
</glyph>
<glyph name="a" format="1">
 <advance width="498" />
 <unicode hex="0061" />
 <outline>
  <contour>
   <point x="437" y="0" type="line" smooth="no" name="13" />
   <point x="437" y="264" type="line" smooth="yes" name="15" />
   <point x="437" y="404" type="offcurve" name="14" />
   <point x="374" y="466" type="offcurve" name="14" />
   <point x="277" y="466" type="curve" smooth="yes" name="15" />
   <point x="181" y="466" type="offcurve" name="14" />
   <point x="136" y="438" type="offcurve" name="14" />
   <point x="71" y="389" type="curve" smooth="no" name="13" />
   <point x="82" y="365" type="offcurve" name="14" />
   <point x="94" y="343" type="offcurve" name="14" />
   <point x="107" y="319" type="curve" smooth="no" name="13" />
   <point x="154" y="355" type="offcurve" name="14" />
   <point x="200" y="361" type="offcurve" name="14" />
   <point x="227" y="361" type="curve" smooth="yes" name="15" />
   <point x="283" y="361" type="offcurve" name="14" />
   <point x="304" y="349" type="offcurve" name="14" />
   <point x="304" y="293" type="curve" smooth="yes" name="15" />
   <point x="304" y="292" type="line" smooth="no" name="13" />
   <point x="291" y="292" type="line" smooth="yes" name="15" />
   <point x="94" y="292" type="offcurve" name="14" />
   <point x="35" y="215" type="offcurve" name="14" />
   <point x="35" y="136" type="curve" smooth="yes" name="15" />
   <point x="35" y="16" type="offcurve" name="14" />
   <point x="113" y="-12" type="offcurve" name="14" />
   <point x="186" y="-12" type="curve" smooth="yes" name="15" />
   <point x="253" y="-12" type="offcurve" name="14" />
   <point x="295" y="24" type="offcurve" name="14" />
   <point x="311" y="37" type="curve" smooth="no" name="13" />
   <point x="314" y="40" type="offcurve" name="14" />
   <point x="316" y="41" type="offcurve" name="14" />
   <point x="317" y="42" type="curve" smooth="no" name="13" />
   <point x="327" y="0" type="line" smooth="no" name="13" />
  </contour>
  <contour>
   <point x="299" y="210" type="line" smooth="no" name="13" />
   <point x="299" y="152" type="line" smooth="no" name="13" />
   <point x="296" y="122" type="offcurve" name="14" />
   <point x="270" y="85" type="offcurve" name="14" />
   <point x="218" y="85" type="curve" smooth="yes" name="15" />
   <point x="212" y="85" type="offcurve" name="14" />
   <point x="171" y="86" type="offcurve" name="14" />
   <point x="171" y="142" type="curve" smooth="yes" name="15" />
   <point x="171" y="154" type="offcurve" name="14" />
   <point x="182" y="210" type="offcurve" name="14" />
   <point x="292" y="210" type="curve" smooth="yes" name="15" />
  </contour>
 </outline>
</glyph>
<glyph name="b" format="1">
 <advance width="567" />
 <unicode hex="0062" />
 <outline>
  <contour>
   <point x="65" y="0" type="line" smooth="no" name="13" />
   <point x="176" y="0" type="line" smooth="no" name="13" />
   <point x="186" y="45" type="line" smooth="no" name="13" />
   <point x="215" y="10" type="offcurve" name="14" />
   <point x="260" y="-12" type="offcurve" name="14" />
   <point x="315" y="-12" type="curve" smooth="yes" name="15" />
   <point x="428" y="-12" type="offcurve" name="14" />
   <point x="533" y="60" type="offcurve" name="14" />
   <point x="533" y="236" type="curve" smooth="yes" name="15" />
   <point x="533" y="385" type="offcurve" name="14" />
   <point x="448" y="467" type="offcurve" name="14" />
   <point x="325" y="467" type="curve" smooth="yes" name="15" />
   <point x="304" y="467" type="offcurve" name="14" />
   <point x="279" y="462" type="offcurve" name="14" />
   <point x="262" y="454" type="curve" smooth="yes" name="15" />
   <point x="233" y="441" type="offcurve" name="14" />
   <point x="212" y="420" type="offcurve" name="14" />
   <point x="201" y="402" type="curve" smooth="no" name="13" />
   <point x="201" y="645" type="line" smooth="no" name="13" />
   <point x="65" y="568" type="line" smooth="no" name="13" />
  </contour>
  <contour>
   <point x="201" y="171" type="curve" smooth="yes" name="15" />
   <point x="201" y="262" type="line" smooth="yes" name="15" />
   <point x="201" y="321" type="offcurve" name="14" />
   <point x="223" y="369" type="offcurve" name="14" />
   <point x="299" y="369" type="curve" smooth="yes" name="15" />
   <point x="353" y="369" type="offcurve" name="14" />
   <point x="389" y="317" type="offcurve" name="14" />
   <point x="389" y="226" type="curve" smooth="yes" name="15" />
   <point x="389" y="131" type="offcurve" name="14" />
   <point x="350" y="82" type="offcurve" name="14" />
   <point x="293" y="82" type="curve" smooth="yes" name="15" />
   <point x="229" y="82" type="offcurve" name="14" />
   <point x="203" y="138" type="offcurve" name="14" />
  </contour>
 </outline>
</glyph>
<glyph name="c" format="1">
 <advance width="479" />
 <unicode hex="0063" />
 <outline>
  <contour>
   <point x="447" y="397" type="line" smooth="no" name="13" />
   <point x="412" y="435" type="offcurve" name="14" />
   <point x="353" y="466" type="offcurve" name="14" />
   <point x="274" y="466" type="curve" smooth="yes" name="15" />
   <point x="136" y="466" type="offcurve" name="14" />
   <point x="35" y="361" type="offcurve" name="14" />
   <point x="35" y="225" type="curve" smooth="yes" name="15" />
   <point x="35" y="84" type="offcurve" name="14" />
   <point x="134" y="-12" type="offcurve" name="14" />
   <point x="280" y="-12" type="curve" smooth="yes" name="15" />
   <point x="335" y="-12" type="offcurve" name="14" />
   <point x="393" y="4" type="offcurve" name="14" />
   <point x="451" y="61" type="curve" smooth="no" name="13" />
   <point x="404" y="135" type="line" smooth="no" name="13" />
   <point x="382" y="110" type="offcurve" name="14" />
   <point x="348" y="84" type="offcurve" name="14" />
   <point x="292" y="84" type="curve" smooth="yes" name="15" />
   <point x="236" y="84" type="offcurve" name="14" />
   <point x="174" y="126" type="offcurve" name="14" />
   <point x="174" y="222" type="curve" smooth="yes" name="15" />
   <point x="174" y="311" type="offcurve" name="14" />
   <point x="225" y="371" type="offcurve" name="14" />
   <point x="295" y="371" type="curve" smooth="yes" name="15" />
   <point x="335" y="371" type="offcurve" name="14" />
   <point x="369" y="358" type="offcurve" name="14" />
   <point x="405" y="324" type="curve" smooth="no" name="13" />
  </contour>
 </outline>
</glyph>
<glyph name="d" format="1">
 <advance width="562" />
 <unicode hex="0064" />
 <outline>
  <contour>
   <point x="362" y="431" type="line" smooth="no" name="13" />
   <point x="341" y="447" type="offcurve" name="14" />
   <point x="309" y="466" type="offcurve" name="14" />
   <point x="248" y="466" type="curve" smooth="yes" name="15" />
   <point x="147" y="466" type="offcurve" name="14" />
   <point x="35" y="389" type="offcurve" name="14" />
   <point x="35" y="209" type="curve" smooth="yes" name="15" />
   <point x="35" y="81" type="offcurve" name="14" />
   <point x="106" y="-12" type="offcurve" name="14" />
   <point x="246" y="-12" type="curve" smooth="yes" name="15" />
   <point x="309" y="-12" type="offcurve" name="14" />
   <point x="355" y="24" type="offcurve" name="14" />
   <point x="369" y="48" type="curve" smooth="no" name="13" />
   <point x="389" y="0" type="line" smooth="no" name="13" />
   <point x="498" y="0" type="line" smooth="no" name="13" />
   <point x="498" y="643" type="line" smooth="no" name="13" />
   <point x="362" y="568" type="line" smooth="no" name="13" />
  </contour>
  <contour>
   <point x="362" y="294" type="curve" smooth="no" name="13" />
   <point x="362" y="181" type="line" smooth="no" name="13" />
   <point x="360" y="160" type="offcurve" name="14" />
   <point x="332" y="85" type="offcurve" name="14" />
   <point x="262" y="85" type="curve" smooth="yes" name="15" />
   <point x="203" y="85" type="offcurve" name="14" />
   <point x="174" y="136" type="offcurve" name="14" />
   <point x="174" y="228" type="curve" smooth="yes" name="15" />
   <point x="174" y="326" type="offcurve" name="14" />
   <point x="221" y="370" type="offcurve" name="14" />
   <point x="278" y="370" type="curve" smooth="yes" name="15" />
   <point x="316" y="370" type="offcurve" name="14" />
   <point x="352" y="344" type="offcurve" name="14" />
  </contour>
 </outline>
</glyph>
<glyph name="e" format="1">
 <advance width="528" />
 <unicode hex="0065" />
 <outline>
  <contour>
   <point x="494" y="183" type="line" smooth="no" name="13" />
   <point x="494" y="233" type="line" smooth="yes" name="15" />
   <point x="494" y="377" type="offcurve" name="14" />
   <point x="405" y="466" type="offcurve" name="14" />
   <point x="270" y="466" type="curve" smooth="yes" name="15" />
   <point x="123" y="466" type="offcurve" name="14" />
   <point x="35" y="352" type="offcurve" name="14" />
   <point x="35" y="225" type="curve" smooth="yes" name="15" />
   <point x="35" y="61" type="offcurve" name="14" />
   <point x="143" y="-12" type="offcurve" name="14" />
   <point x="280" y="-12" type="curve" smooth="yes" name="15" />
   <point x="331" y="-12" type="offcurve" name="14" />
   <point x="413" y="8" type="offcurve" name="14" />
   <point x="464" y="54" type="curve" smooth="no" name="13" />
   <point x="430" y="126" type="line" smooth="no" name="13" />
   <point x="359" y="86" type="offcurve" name="14" />
   <point x="317" y="85" type="offcurve" name="14" />
   <point x="292" y="85" type="curve" smooth="yes" name="15" />
   <point x="230" y="85" type="offcurve" name="14" />
   <point x="188" y="137" type="offcurve" name="14" />
   <point x="184" y="183" type="curve" smooth="no" name="13" />
  </contour>
  <contour>
   <point x="176" y="283" type="line" smooth="no" name="13" />
   <point x="182" y="331" type="offcurve" name="14" />
   <point x="210" y="371" type="offcurve" name="14" />
   <point x="268" y="371" type="curve" smooth="yes" name="15" />
   <point x="324" y="371" type="offcurve" name="14" />
   <point x="355" y="336" type="offcurve" name="14" />
   <point x="358" y="283" type="curve" smooth="no" name="13" />
  </contour>
 </outline>
</glyph>
<glyph name="f" format="1">
 <advance width="382" />
 <unicode hex="0066" />
 <outline>
  <contour>
   <point x="29" y="344" type="line" smooth="no" name="13" />
   <point x="101" y="344" type="line" smooth="no" name="13" />
   <point x="101" y="0" type="line" smooth="no" name="13" />
   <point x="237" y="0" type="line" smooth="no" name="13" />
   <point x="237" y="344" type="line" smooth="no" name="13" />
   <point x="362" y="344" type="line" smooth="no" name="13" />
   <point x="362" y="454" type="line" smooth="no" name="13" />
   <point x="237" y="454" type="line" smooth="no" name="13" />
   <point x="237" y="498" type="line" smooth="yes" name="15" />
   <point x="237" y="542" type="offcurve" name="14" />
   <point x="258" y="544" type="offcurve" name="14" />
   <point x="262" y="544" type="curve" smooth="yes" name="15" />
   <point x="288" y="544" type="offcurve" name="14" />
   <point x="310" y="530" type="offcurve" name="14" />
   <point x="331" y="517" type="curve" smooth="no" name="13" />
   <point x="381" y="588" type="line" smooth="no" name="13" />
   <point x="347" y="615" type="offcurve" name="14" />
   <point x="298" y="645" type="offcurve" name="14" />
   <point x="225" y="645" type="curve" smooth="yes" name="15" />
   <point x="121" y="645" type="offcurve" name="14" />
   <point x="101" y="586" type="offcurve" name="14" />
   <point x="101" y="513" type="curve" smooth="yes" name="15" />
   <point x="101" y="454" type="line" smooth="no" name="13" />
   <point x="29" y="454" type="line" smooth="no" name="13" />
  </contour>
 </outline>
</glyph>
<glyph name="g" format="1">
 <advance width="569" />
 <unicode hex="0067" />
 <outline>
  <contour>
   <point x="367" y="57" type="curve" smooth="no" name="13" />
   <point x="367" y="56" type="line" smooth="yes" name="15" />
   <point x="367" y="-28" type="offcurve" name="14" />
   <point x="347" y="-88" type="offcurve" name="14" />
   <point x="265" y="-88" type="curve" smooth="yes" name="15" />
   <point x="248" y="-88" type="offcurve" name="14" />
   <point x="182" y="-85" type="offcurve" name="14" />
   <point x="127" y="-49" type="curve" smooth="no" name="13" />
   <point x="94" y="-117" type="line" smooth="no" name="13" />
   <point x="155" y="-175" type="offcurve" name="14" />
   <point x="238" y="-191" type="offcurve" name="14" />
   <point x="284" y="-191" type="curve" smooth="yes" name="15" />
   <point x="445" y="-191" type="offcurve" name="14" />
   <point x="504" y="-80" type="offcurve" name="14" />
   <point x="504" y="48" type="curve" smooth="yes" name="15" />
   <point x="504" y="454" type="line" smooth="no" name="13" />
   <point x="400" y="454" type="line" smooth="no" name="13" />
   <point x="390" y="405" type="line" smooth="no" name="13" />
   <point x="392" y="408" type="offcurve" name="14" />
   <point x="350" y="466" type="offcurve" name="14" />
   <point x="253" y="466" type="curve" smooth="yes" name="15" />
   <point x="153" y="466" type="offcurve" name="14" />
   <point x="40" y="389" type="offcurve" name="14" />
   <point x="40" y="209" type="curve" smooth="yes" name="15" />
   <point x="40" y="81" type="offcurve" name="14" />
   <point x="114" y="-12" type="offcurve" name="14" />
   <point x="241" y="-12" type="curve" smooth="yes" name="15" />
   <point x="298" y="-12" type="offcurve" name="14" />
   <point x="342" y="18" type="offcurve" name="14" />
  </contour>
  <contour>
   <point x="367" y="196" type="line" smooth="yes" name="15" />
   <point x="367" y="194" type="offcurve" name="14" />
   <point x="367" y="193" type="offcurve" name="14" />
   <point x="367" y="191" type="curve" smooth="yes" name="15" />
   <point x="367" y="153" type="offcurve" name="14" />
   <point x="341" y="85" type="offcurve" name="14" />
   <point x="270" y="85" type="curve" smooth="yes" name="15" />
   <point x="209" y="85" type="offcurve" name="14" />
   <point x="180" y="136" type="offcurve" name="14" />
   <point x="180" y="228" type="curve" smooth="yes" name="15" />
   <point x="180" y="326" type="offcurve" name="14" />
   <point x="227" y="370" type="offcurve" name="14" />
   <point x="283" y="370" type="curve" smooth="yes" name="15" />
   <point x="321" y="370" type="offcurve" name="14" />
   <point x="362" y="339" type="offcurve" name="14" />
   <point x="367" y="294" type="curve" smooth="no" name="13" />
  </contour>
 </outline>
</glyph>
<glyph name="h" format="1">
 <advance width="551" />
 <unicode hex="0068" />
 <outline>
  <contour>
   <point x="65" y="570" type="line" smooth="no" name="13" />
   <point x="65" y="0" type="line" smooth="no" name="13" />
   <point x="201" y="0" type="line" smooth="no" name="13" />
   <point x="201" y="322" type="line" smooth="no" name="13" />
   <point x="210" y="336" type="offcurve" name="14" />
   <point x="238" y="352" type="offcurve" name="14" />
   <point x="279" y="352" type="curve" smooth="yes" name="15" />
   <point x="326" y="352" type="offcurve" name="14" />
   <point x="356" y="330" type="offcurve" name="14" />
   <point x="356" y="261" type="curve" smooth="yes" name="15" />
   <point x="356" y="0" type="line" smooth="no" name="13" />
   <point x="492" y="0" type="line" smooth="no" name="13" />
   <point x="492" y="266" type="line" smooth="yes" name="15" />
   <point x="492" y="410" type="offcurve" name="14" />
   <point x="441" y="467" type="offcurve" name="14" />
   <point x="326" y="467" type="curve" smooth="yes" name="15" />
   <point x="303" y="467" type="offcurve" name="14" />
   <point x="285" y="461" type="offcurve" name="14" />
   <point x="266" y="453" type="curve" smooth="yes" name="15" />
   <point x="240" y="441" type="offcurve" name="14" />
   <point x="208" y="416" type="offcurve" name="14" />
   <point x="201" y="399" type="curve" smooth="no" name="13" />
   <point x="201" y="645" type="line" smooth="no" name="13" />
  </contour>
 </outline>
</glyph>
<glyph name="i" format="1">
 <advance width="287" />
 <unicode hex="0069" />
 <outline>
  <contour>
   <point x="214" y="454" type="line" smooth="no" name="13" />
   <point x="77" y="454" type="line" smooth="no" name="13" />
   <point x="77" y="0" type="line" smooth="no" name="13" />
   <point x="214" y="0" type="line" smooth="no" name="13" />
  </contour>
  <contour>
   <point x="142" y="487" type="curve" smooth="yes" name="15" />
   <point x="194" y="487" type="offcurve" name="14" />
   <point x="229" y="522" type="offcurve" name="14" />
   <point x="229" y="573" type="curve" smooth="yes" name="15" />
   <point x="229" y="618" type="offcurve" name="14" />
   <point x="194" y="659" type="offcurve" name="14" />
   <point x="142" y="659" type="curve" smooth="yes" name="15" />
   <point x="96" y="659" type="offcurve" name="14" />
   <point x="60" y="618" type="offcurve" name="14" />
   <point x="60" y="573" type="curve" smooth="yes" name="15" />
   <point x="60" y="522" type="offcurve" name="14" />
   <point x="96" y="487" type="offcurve" name="14" />
  </contour>
 </outline>
</glyph>
<glyph name="j" format="1">
 <advance width="287" />
 <unicode hex="006a" />
 <outline>
  <contour>
   <point x="211" y="454" type="line" smooth="no" name="13" />
   <point x="75" y="454" type="line" smooth="no" name="13" />
   <point x="75" y="-45" type="line" smooth="yes" name="15" />
   <point x="75" y="-67" type="offcurve" name="14" />
   <point x="69" y="-91" type="offcurve" name="14" />
   <point x="44" y="-92" type="curve" smooth="yes" name="15" />
   <point x="43" y="-92" type="offcurve" name="14" />
   <point x="42" y="-92" type="offcurve" name="14" />
   <point x="42" y="-92" type="curve" smooth="yes" name="15" />
   <point x="27" y="-92" type="offcurve" name="14" />
   <point x="4" y="-87" type="offcurve" name="14" />
   <point x="-32" y="-66" type="curve" smooth="no" name="13" />
   <point x="-47" y="-89" type="offcurve" name="14" />
   <point x="-62" y="-113" type="offcurve" name="14" />
   <point x="-77" y="-135" type="curve" smooth="no" name="13" />
   <point x="-45" y="-160" type="offcurve" name="14" />
   <point x="19" y="-191" type="offcurve" name="14" />
   <point x="82" y="-191" type="curve" smooth="yes" name="15" />
   <point x="190" y="-191" type="offcurve" name="14" />
   <point x="211" y="-135" type="offcurve" name="14" />
   <point x="211" y="-59" type="curve" smooth="yes" name="15" />
  </contour>
  <contour>
   <point x="138" y="487" type="curve" smooth="yes" name="15" />
   <point x="190" y="487" type="offcurve" name="14" />
   <point x="225" y="522" type="offcurve" name="14" />
   <point x="225" y="573" type="curve" smooth="yes" name="15" />
   <point x="225" y="618" type="offcurve" name="14" />
   <point x="190" y="659" type="offcurve" name="14" />
   <point x="138" y="659" type="curve" smooth="yes" name="15" />
   <point x="91" y="659" type="offcurve" name="14" />
   <point x="56" y="618" type="offcurve" name="14" />
   <point x="56" y="573" type="curve" smooth="yes" name="15" />
   <point x="56" y="522" type="offcurve" name="14" />
   <point x="91" y="487" type="offcurve" name="14" />
  </contour>
 </outline>
</glyph>
<glyph name="k" format="1">
 <advance width="513" />
 <unicode hex="006b" />
 <outline>
  <contour>
   <point x="507" y="454" type="line" smooth="no" name="13" />
   <point x="327" y="454" type="line" smooth="no" name="13" />
   <point x="286" y="419" type="offcurve" name="14" />
   <point x="245" y="385" type="offcurve" name="14" />
   <point x="201" y="351" type="curve" smooth="no" name="13" />
   <point x="201" y="645" type="line" smooth="no" name="13" />
   <point x="65" y="574" type="line" smooth="no" name="13" />
   <point x="65" y="0" type="line" smooth="no" name="13" />
   <point x="201" y="0" type="line" smooth="no" name="13" />
   <point x="201" y="210" type="line" smooth="no" name="13" />
   <point x="240" y="140" type="offcurve" name="14" />
   <point x="278" y="70" type="offcurve" name="14" />
   <point x="316" y="0" type="curve" smooth="no" name="13" />
   <point x="468" y="0" type="line" smooth="no" name="13" />
   <point x="407" y="92" type="offcurve" name="14" />
   <point x="351" y="177" type="offcurve" name="14" />
   <point x="290" y="270" type="curve" smooth="no" name="13" />
  </contour>
 </outline>
</glyph>
<glyph name="l" format="1">
 <advance width="265" />
 <unicode hex="006c" />
 <outline>
  <contour>
   <point x="201" y="645" type="line" smooth="no" name="13" />
   <point x="195" y="642" type="offcurve" name="14" />
   <point x="190" y="639" type="offcurve" name="14" />
   <point x="184" y="636" type="curve" smooth="yes" name="15" />
   <point x="145" y="615" type="offcurve" name="14" />
   <point x="103" y="593" type="offcurve" name="14" />
   <point x="65" y="574" type="curve" smooth="no" name="13" />
   <point x="65" y="0" type="line" smooth="no" name="13" />
   <point x="201" y="0" type="line" smooth="no" name="13" />
  </contour>
 </outline>
</glyph>
<glyph name="m" format="1">
 <advance width="893" />
 <unicode hex="006d" />
 <outline>
  <contour>
   <point x="190" y="410" type="curve" smooth="no" name="13" />
   <point x="181" y="454" type="line" smooth="no" name="13" />
   <point x="65" y="454" type="line" smooth="no" name="13" />
   <point x="65" y="0" type="line" smooth="no" name="13" />
   <point x="201" y="0" type="line" smooth="no" name="13" />
   <point x="201" y="326" type="line" smooth="no" name="13" />
   <point x="213" y="336" type="offcurve" name="14" />
   <point x="241" y="352" type="offcurve" name="14" />
   <point x="288" y="352" type="curve" smooth="yes" name="15" />
   <point x="339" y="352" type="offcurve" name="14" />
   <point x="376" y="341" type="offcurve" name="14" />
   <point x="376" y="250" type="curve" smooth="yes" name="15" />
   <point x="376" y="0" type="line" smooth="no" name="13" />
   <point x="512" y="0" type="line" smooth="no" name="13" />
   <point x="513" y="301" type="line" smooth="no" name="13" />
   <point x="543" y="341" type="offcurve" name="14" />
   <point x="582" y="352" type="offcurve" name="14" />
   <point x="619" y="352" type="curve" smooth="yes" name="15" />
   <point x="667" y="352" type="offcurve" name="14" />
   <point x="696" y="331" type="offcurve" name="14" />
   <point x="696" y="234" type="curve" smooth="yes" name="15" />
   <point x="696" y="0" type="line" smooth="no" name="13" />
   <point x="833" y="0" type="line" smooth="no" name="13" />
   <point x="833" y="272" type="line" smooth="yes" name="15" />
   <point x="833" y="414" type="offcurve" name="14" />
   <point x="776" y="466" type="offcurve" name="14" />
   <point x="674" y="466" type="curve" smooth="yes" name="15" />
   <point x="604" y="466" type="offcurve" name="14" />
   <point x="531" y="431" type="offcurve" name="14" />
   <point x="503" y="374" type="curve" smooth="no" name="13" />
   <point x="478" y="434" type="offcurve" name="14" />
   <point x="407" y="466" type="offcurve" name="14" />
   <point x="335" y="466" type="curve" smooth="yes" name="15" />
   <point x="258" y="466" type="offcurve" name="14" />
   <point x="205" y="425" type="offcurve" name="14" />
  </contour>
 </outline>
</glyph>
<glyph name="n" format="1">
 <advance width="552" />
 <unicode hex="006e" />
 <outline>
  <contour>
   <point x="196" y="410" type="curve" smooth="no" name="13" />
   <point x="181" y="454" type="line" smooth="no" name="13" />
   <point x="65" y="454" type="line" smooth="no" name="13" />
   <point x="65" y="0" type="line" smooth="no" name="13" />
   <point x="201" y="0" type="line" smooth="no" name="13" />
   <point x="201" y="326" type="line" smooth="no" name="13" />
   <point x="209" y="336" type="offcurve" name="14" />
   <point x="242" y="352" type="offcurve" name="14" />
   <point x="275" y="352" type="curve" smooth="yes" name="15" />
   <point x="326" y="352" type="offcurve" name="14" />
   <point x="356" y="330" type="offcurve" name="14" />
   <point x="356" y="261" type="curve" smooth="yes" name="15" />
   <point x="356" y="0" type="line" smooth="no" name="13" />
   <point x="493" y="0" type="line" smooth="no" name="13" />
   <point x="493" y="266" type="line" smooth="yes" name="15" />
   <point x="493" y="409" type="offcurve" name="14" />
   <point x="447" y="466" type="offcurve" name="14" />
   <point x="331" y="466" type="curve" smooth="yes" name="15" />
   <point x="270" y="466" type="offcurve" name="14" />
   <point x="213" y="430" type="offcurve" name="14" />
  </contour>
 </outline>
</glyph>
<glyph name="p" format="1">
 <advance width="547" />
 <unicode hex="0070" />
 <outline>
  <contour>
   <point x="199" y="21" type="line" smooth="no" name="13" />
   <point x="202" y="17" type="offcurve" name="14" />
   <point x="237" y="-12" type="offcurve" name="14" />
   <point x="288" y="-12" type="curve" smooth="yes" name="15" />
   <point x="407" y="-12" type="offcurve" name="14" />
   <point x="513" y="70" type="offcurve" name="14" />
   <point x="513" y="236" type="curve" smooth="yes" name="15" />
   <point x="513" y="374" type="offcurve" name="14" />
   <point x="428" y="466" type="offcurve" name="14" />
   <point x="293" y="466" type="curve" smooth="yes" name="15" />
   <point x="240" y="466" type="offcurve" name="14" />
   <point x="202" y="443" type="offcurve" name="14" />
   <point x="180" y="412" type="curve" smooth="no" name="13" />
   <point x="167" y="454" type="line" smooth="no" name="13" />
   <point x="65" y="454" type="line" smooth="no" name="13" />
   <point x="65" y="-178" type="line" smooth="no" name="13" />
   <point x="199" y="-178" type="line" smooth="no" name="13" />
  </contour>
  <contour>
   <point x="199" y="169" type="curve" smooth="yes" name="15" />
   <point x="199" y="268" type="line" smooth="yes" name="15" />
   <point x="199" y="308" type="offcurve" name="14" />
   <point x="213" y="369" type="offcurve" name="14" />
   <point x="281" y="369" type="curve" smooth="yes" name="15" />
   <point x="334" y="369" type="offcurve" name="14" />
   <point x="371" y="316" type="offcurve" name="14" />
   <point x="371" y="226" type="curve" smooth="yes" name="15" />
   <point x="371" y="136" type="offcurve" name="14" />
   <point x="322" y="82" type="offcurve" name="14" />
   <point x="274" y="82" type="curve" smooth="yes" name="15" />
   <point x="221" y="82" type="offcurve" name="14" />
   <point x="199" y="114" type="offcurve" name="14" />
  </contour>
 </outline>
</glyph>
<glyph name="q" format="1">
 <advance width="550" />
 <unicode hex="0071" />
 <outline>
  <contour>
   <point x="348" y="-176" type="line" smooth="no" name="13" />
   <point x="486" y="-176" type="line" smooth="no" name="13" />
   <point x="486" y="454" type="line" smooth="no" name="13" />
   <point x="377" y="454" type="line" smooth="no" name="13" />
   <point x="371" y="405" type="line" smooth="no" name="13" />
   <point x="370" y="409" type="offcurve" name="14" />
   <point x="344" y="466" type="offcurve" name="14" />
   <point x="251" y="466" type="curve" smooth="yes" name="15" />
   <point x="139" y="466" type="offcurve" name="14" />
   <point x="35" y="379" type="offcurve" name="14" />
   <point x="35" y="213" type="curve" smooth="yes" name="15" />
   <point x="35" y="85" type="offcurve" name="14" />
   <point x="101" y="-12" type="offcurve" name="14" />
   <point x="238" y="-12" type="curve" smooth="yes" name="15" />
   <point x="303" y="-12" type="offcurve" name="14" />
   <point x="348" y="37" type="offcurve" name="14" />
   <point x="348" y="47" type="curve" smooth="no" name="13" />
  </contour>
  <contour>
   <point x="348" y="288" type="curve" smooth="yes" name="15" />
   <point x="348" y="194" type="line" smooth="yes" name="15" />
   <point x="348" y="134" type="offcurve" name="14" />
   <point x="327" y="85" type="offcurve" name="14" />
   <point x="269" y="85" type="curve" smooth="yes" name="15" />
   <point x="201" y="85" type="offcurve" name="14" />
   <point x="172" y="138" type="offcurve" name="14" />
   <point x="172" y="228" type="curve" smooth="yes" name="15" />
   <point x="172" y="321" type="offcurve" name="14" />
   <point x="216" y="370" type="offcurve" name="14" />
   <point x="276" y="370" type="curve" smooth="yes" name="15" />
   <point x="327" y="370" type="offcurve" name="14" />
   <point x="348" y="325" type="offcurve" name="14" />
  </contour>
 </outline>
</glyph>
<glyph name="r" format="1">
 <advance width="428" />
 <unicode hex="0072" />
 <outline>
  <contour>
   <point x="180" y="454" type="line" smooth="no" name="13" />
   <point x="65" y="454" type="line" smooth="no" name="13" />
   <point x="65" y="0" type="line" smooth="no" name="13" />
   <point x="199" y="0" type="line" smooth="no" name="13" />
   <point x="199" y="322" type="line" smooth="no" name="13" />
   <point x="209" y="347" type="offcurve" name="14" />
   <point x="227" y="353" type="offcurve" name="14" />
   <point x="240" y="353" type="curve" smooth="yes" name="15" />
   <point x="269" y="353" type="offcurve" name="14" />
   <point x="292" y="335" type="offcurve" name="14" />
   <point x="310" y="314" type="curve" smooth="no" name="13" />
   <point x="329" y="324" type="offcurve" name="14" />
   <point x="348" y="334" type="offcurve" name="14" />
   <point x="367" y="345" type="curve" smooth="yes" name="15" />
   <point x="386" y="355" type="offcurve" name="14" />
   <point x="405" y="365" type="offcurve" name="14" />
   <point x="424" y="375" type="curve" smooth="no" name="13" />
   <point x="396" y="432" type="offcurve" name="14" />
   <point x="348" y="466" type="offcurve" name="14" />
   <point x="286" y="466" type="curve" smooth="yes" name="15" />
   <point x="242" y="466" type="offcurve" name="14" />
   <point x="203" y="438" type="offcurve" name="14" />
   <point x="193" y="417" type="curve" smooth="no" name="13" />
  </contour>
 </outline>
</glyph>
<glyph name="s" format="1">
 <advance width="427" />
 <unicode hex="0073" />
 <outline>
  <contour>
   <point x="35" y="52" type="line" smooth="no" name="13" />
   <point x="69" y="24" type="offcurve" name="14" />
   <point x="134" y="-12" type="offcurve" name="14" />
   <point x="223" y="-12" type="curve" smooth="yes" name="15" />
   <point x="320" y="-12" type="offcurve" name="14" />
   <point x="393" y="37" type="offcurve" name="14" />
   <point x="393" y="129" type="curve" smooth="yes" name="15" />
   <point x="393" y="247" type="offcurve" name="14" />
   <point x="316" y="266" type="offcurve" name="14" />
   <point x="239" y="284" type="curve" smooth="yes" name="15" />
   <point x="182" y="298" type="offcurve" name="14" />
   <point x="180" y="319" type="offcurve" name="14" />
   <point x="180" y="333" type="curve" smooth="yes" name="15" />
   <point x="180" y="353" type="offcurve" name="14" />
   <point x="197" y="370" type="offcurve" name="14" />
   <point x="222" y="370" type="curve" smooth="yes" name="15" />
   <point x="266" y="370" type="offcurve" name="14" />
   <point x="313" y="352" type="offcurve" name="14" />
   <point x="335" y="337" type="curve" smooth="no" name="13" />
   <point x="385" y="409" type="line" smooth="no" name="13" />
   <point x="353" y="434" type="offcurve" name="14" />
   <point x="289" y="466" type="offcurve" name="14" />
   <point x="215" y="466" type="curve" smooth="yes" name="15" />
   <point x="115" y="466" type="offcurve" name="14" />
   <point x="50" y="403" type="offcurve" name="14" />
   <point x="50" y="331" type="curve" smooth="yes" name="15" />
   <point x="50" y="245" type="offcurve" name="14" />
   <point x="116" y="197" type="offcurve" name="14" />
   <point x="203" y="182" type="curve" smooth="yes" name="15" />
   <point x="233" y="177" type="offcurve" name="14" />
   <point x="268" y="169" type="offcurve" name="14" />
   <point x="268" y="131" type="curve" smooth="yes" name="15" />
   <point x="268" y="110" type="offcurve" name="14" />
   <point x="251" y="85" type="offcurve" name="14" />
   <point x="210" y="85" type="curve" smooth="yes" name="15" />
   <point x="154" y="85" type="offcurve" name="14" />
   <point x="106" y="110" type="offcurve" name="14" />
   <point x="85" y="128" type="curve" smooth="no" name="13" />
  </contour>
 </outline>
</glyph>
<glyph name="t" format="1">
 <advance width="407" />
 <unicode hex="0074" />
 <outline>
  <contour>
   <point x="334" y="112" type="line" smooth="no" name="13" />
   <point x="304" y="95" type="offcurve" name="14" />
   <point x="275" y="84" type="offcurve" name="14" />
   <point x="257" y="84" type="curve" smooth="yes" name="15" />
   <point x="231" y="84" type="offcurve" name="14" />
   <point x="228" y="99" type="offcurve" name="14" />
   <point x="228" y="130" type="curve" smooth="yes" name="15" />
   <point x="228" y="345" type="line" smooth="no" name="13" />
   <point x="357" y="345" type="line" smooth="no" name="13" />
   <point x="357" y="454" type="line" smooth="no" name="13" />
   <point x="229" y="454" type="line" smooth="no" name="13" />
   <point x="229" y="605" type="line" smooth="no" name="13" />
   <point x="181" y="580" type="offcurve" name="14" />
   <point x="139" y="557" type="offcurve" name="14" />
   <point x="92" y="532" type="curve" smooth="no" name="13" />
   <point x="92" y="454" type="line" smooth="no" name="13" />
   <point x="29" y="454" type="line" smooth="no" name="13" />
   <point x="29" y="345" type="line" smooth="no" name="13" />
   <point x="91" y="345" type="line" smooth="no" name="13" />
   <point x="91" y="117" type="line" smooth="yes" name="15" />
   <point x="91" y="40" type="offcurve" name="14" />
   <point x="115" y="-17" type="offcurve" name="14" />
   <point x="212" y="-17" type="curve" smooth="yes" name="15" />
   <point x="281" y="-17" type="offcurve" name="14" />
   <point x="338" y="11" type="offcurve" name="14" />
   <point x="379" y="43" type="curve" smooth="no" name="13" />
  </contour>
 </outline>
</glyph>
<glyph name="v" format="1">
 <advance width="470" />
 <unicode hex="0076" />
 <outline>
  <contour>
   <point x="283" y="0" type="line" smooth="no" name="13" />
   <point x="331" y="116" type="offcurve" name="14" />
   <point x="379" y="232" type="offcurve" name="14" />
   <point x="426" y="348" type="curve" smooth="yes" name="15" />
   <point x="440" y="383" type="offcurve" name="14" />
   <point x="455" y="419" type="offcurve" name="14" />
   <point x="469" y="454" type="curve" smooth="no" name="13" />
   <point x="327" y="454" type="line" smooth="no" name="13" />
   <point x="229" y="167" type="line" smooth="no" name="13" />
   <point x="138" y="454" type="line" smooth="no" name="13" />
   <point x="2" y="454" type="line" smooth="no" name="13" />
   <point x="180" y="0" type="line" smooth="no" name="13" />
  </contour>
 </outline>
</glyph>
<glyph name="w" format="1">
 <advance width="693" />
 <unicode hex="0077" />
 <outline>
  <contour>
   <point x="277" y="0" type="line" smooth="no" name="13" />
   <point x="289" y="48" type="offcurve" name="14" />
   <point x="300" y="97" type="offcurve" name="14" />
   <point x="312" y="146" type="curve" smooth="yes" name="15" />
   <point x="321" y="189" type="offcurve" name="14" />
   <point x="331" y="231" type="offcurve" name="14" />
   <point x="342" y="274" type="curve" smooth="no" name="13" />
   <point x="356" y="219" type="offcurve" name="14" />
   <point x="369" y="165" type="offcurve" name="14" />
   <point x="382" y="111" type="curve" smooth="yes" name="15" />
   <point x="390" y="74" type="offcurve" name="14" />
   <point x="399" y="37" type="offcurve" name="14" />
   <point x="408" y="0" type="curve" smooth="no" name="13" />
   <point x="527" y="0" type="line" smooth="no" name="13" />
   <point x="571" y="118" type="offcurve" name="14" />
   <point x="613" y="236" type="offcurve" name="14" />
   <point x="656" y="354" type="curve" smooth="yes" name="15" />
   <point x="668" y="387" type="offcurve" name="14" />
   <point x="680" y="421" type="offcurve" name="14" />
   <point x="692" y="454" type="curve" smooth="no" name="13" />
   <point x="552" y="454" type="line" smooth="no" name="13" />
   <point x="471" y="166" type="line" smooth="no" name="13" />
   <point x="467" y="186" type="offcurve" name="14" />
   <point x="463" y="206" type="offcurve" name="14" />
   <point x="458" y="226" type="curve" smooth="yes" name="15" />
   <point x="443" y="302" type="offcurve" name="14" />
   <point x="427" y="377" type="offcurve" name="14" />
   <point x="413" y="454" type="curve" smooth="no" name="13" />
   <point x="276" y="454" type="line" smooth="no" name="13" />
   <point x="216" y="166" type="line" smooth="no" name="13" />
   <point x="138" y="454" type="line" smooth="no" name="13" />
   <point x="2" y="454" type="line" smooth="no" name="13" />
   <point x="159" y="0" type="line" smooth="no" name="13" />
  </contour>
 </outline>
</glyph>
<glyph name="x" format="1">
 <advance width="480" />
 <unicode hex="0078" />
 <outline>
  <contour>
   <point x="477" y="454" type="curve" smooth="no" name="13" />
   <point x="330" y="454" type="line" smooth="no" name="13" />
   <point x="319" y="438" type="offcurve" name="14" />
   <point x="309" y="422" type="offcurve" name="14" />
   <point x="298" y="405" type="curve" smooth="yes" name="15" />
   <point x="282" y="379" type="offcurve" name="14" />
   <point x="265" y="353" type="offcurve" name="14" />
   <point x="248" y="327" type="curve" smooth="no" name="13" />
   <point x="179" y="454" type="line" smooth="no" name="13" />
   <point x="30" y="454" type="line" smooth="no" name="13" />
   <point x="50" y="423" type="offcurve" name="14" />
   <point x="70" y="392" type="offcurve" name="14" />
   <point x="90" y="361" type="curve" smooth="yes" name="15" />
   <point x="121" y="315" type="offcurve" name="14" />
   <point x="151" y="269" type="offcurve" name="14" />
   <point x="181" y="222" type="curve" smooth="no" name="13" />
   <point x="136" y="169" type="offcurve" name="14" />
   <point x="91" y="114" type="offcurve" name="14" />
   <point x="47" y="59" type="curve" smooth="yes" name="15" />
   <point x="31" y="40" type="offcurve" name="14" />
   <point x="15" y="20" type="offcurve" name="14" />
   <point x="-1" y="0" type="curve" smooth="no" name="13" />
   <point x="147" y="0" type="line" smooth="no" name="13" />
   <point x="243" y="132" type="line" smooth="no" name="13" />
   <point x="331" y="0" type="line" smooth="no" name="13" />
   <point x="480" y="0" type="line" smooth="no" name="13" />
   <point x="318" y="225" type="line" smooth="no" name="13" />
   <point x="371" y="302" type="offcurve" name="14" />
   <point x="425" y="379" type="offcurve" name="14" />
  </contour>
 </outline>
</glyph>
<glyph name="y" format="1">
 <advance width="479" />
 <unicode hex="0079" />
 <outline>
  <contour>
   <point x="478" y="454" type="line" smooth="no" name="13" />
   <point x="343" y="454" type="line" smooth="no" name="13" />
   <point x="231" y="157" type="line" smooth="no" name="13" />
   <point x="213" y="218" type="offcurve" name="14" />
   <point x="193" y="278" type="offcurve" name="14" />
   <point x="173" y="338" type="curve" smooth="yes" name="15" />
   <point x="161" y="377" type="offcurve" name="14" />
   <point x="148" y="415" type="offcurve" name="14" />
   <point x="136" y="454" type="curve" smooth="no" name="13" />
   <point x="2" y="454" type="line" smooth="no" name="13" />
   <point x="158" y="0" type="line" smooth="no" name="13" />
   <point x="184" y="0" type="line" smooth="no" name="13" />
   <point x="161" y="-75" type="offcurve" name="14" />
   <point x="132" y="-91" type="offcurve" name="14" />
   <point x="117" y="-91" type="curve" smooth="yes" name="15" />
   <point x="97" y="-91" type="offcurve" name="14" />
   <point x="77" y="-84" type="offcurve" name="14" />
   <point x="50" y="-66" type="curve" smooth="no" name="13" />
   <point x="38" y="-89" type="offcurve" name="14" />
   <point x="27" y="-109" type="offcurve" name="14" />
   <point x="14" y="-130" type="curve" smooth="no" name="13" />
   <point x="41" y="-153" type="offcurve" name="14" />
   <point x="90" y="-191" type="offcurve" name="14" />
   <point x="156" y="-191" type="curve" smooth="yes" name="15" />
   <point x="210" y="-191" type="offcurve" name="14" />
   <point x="253" y="-163" type="offcurve" name="14" />
   <point x="289" y="-65" type="curve" smooth="yes" name="15" />
  </contour>
 </outline>
</glyph>
<glyph name="z" format="1">
 <advance width="422" />
 <unicode hex="007a" />
 <outline>
  <contour>
   <point x="411" y="0" type="line" smooth="no" name="13" />
   <point x="411" y="108" type="line" smooth="no" name="13" />
   <point x="173" y="108" type="line" smooth="no" name="13" />
   <point x="405" y="342" type="line" smooth="no" name="13" />
   <point x="405" y="454" type="line" smooth="no" name="13" />
   <point x="26" y="454" type="line" smooth="no" name="13" />
   <point x="26" y="345" type="line" smooth="no" name="13" />
   <point x="240" y="345" type="line" smooth="no" name="13" />
   <point x="12" y="111" type="line" smooth="no" name="13" />
   <point x="12" y="0" type="line" smooth="no" name="13" />
  </contour>
 </outline>
</glyph>
<glyph name="braceleft" format="1">
 <advance width="396" />
 <unicode hex="007b" />
 <outline>
  <contour>
   <point x="353" y="-38" type="line" smooth="no" name="13" />
   <point x="326" y="-38" type="line" smooth="yes" name="15" />
   <point x="323" y="-38" type="offcurve" name="14" />
   <point x="321" y="-38" type="offcurve" name="14" />
   <point x="318" y="-38" type="curve" smooth="yes" name="15" />
   <point x="280" y="-38" type="offcurve" name="14" />
   <point x="263" y="-35" type="offcurve" name="14" />
   <point x="263" y="36" type="curve" smooth="yes" name="15" />
   <point x="263" y="97" type="line" smooth="yes" name="15" />
   <point x="263" y="213" type="offcurve" name="14" />
   <point x="228" y="235" type="offcurve" name="14" />
   <point x="196" y="249" type="curve" smooth="no" name="13" />
   <point x="228" y="264" type="offcurve" name="14" />
   <point x="263" y="291" type="offcurve" name="14" />
   <point x="263" y="408" type="curve" smooth="yes" name="15" />
   <point x="263" y="469" type="line" smooth="yes" name="15" />
   <point x="263" y="540" type="offcurve" name="14" />
   <point x="280" y="543" type="offcurve" name="14" />
   <point x="318" y="543" type="curve" smooth="yes" name="15" />
   <point x="320" y="543" type="offcurve" name="14" />
   <point x="323" y="543" type="offcurve" name="14" />
   <point x="326" y="543" type="curve" smooth="yes" name="15" />
   <point x="353" y="543" type="line" smooth="no" name="13" />
   <point x="353" y="644" type="line" smooth="no" name="13" />
   <point x="305" y="644" type="line" smooth="yes" name="15" />
   <point x="167" y="644" type="offcurve" name="14" />
   <point x="134" y="607" type="offcurve" name="14" />
   <point x="134" y="469" type="curve" smooth="yes" name="15" />
   <point x="134" y="408" type="line" smooth="yes" name="15" />
   <point x="134" y="317" type="offcurve" name="14" />
   <point x="84" y="298" type="offcurve" name="14" />
   <point x="35" y="298" type="curve" smooth="no" name="13" />
   <point x="35" y="200" type="line" smooth="no" name="13" />
   <point x="89" y="200" type="offcurve" name="14" />
   <point x="134" y="188" type="offcurve" name="14" />
   <point x="134" y="97" type="curve" smooth="yes" name="15" />
   <point x="134" y="36" type="line" smooth="yes" name="15" />
   <point x="134" y="-102" type="offcurve" name="14" />
   <point x="167" y="-139" type="offcurve" name="14" />
   <point x="305" y="-139" type="curve" smooth="yes" name="15" />
   <point x="353" y="-139" type="line" smooth="no" name="13" />
  </contour>
 </outline>
</glyph>
<glyph name="braceright" format="1">
 <advance width="396" />
 <unicode hex="007d" />
 <outline>
  <contour>
   <point x="44" y="544" type="line" smooth="no" name="13" />
   <point x="70" y="544" type="line" smooth="yes" name="15" />
   <point x="73" y="544" type="offcurve" name="14" />
   <point x="76" y="544" type="offcurve" name="14" />
   <point x="79" y="544" type="curve" smooth="yes" name="15" />
   <point x="116" y="544" type="offcurve" name="14" />
   <point x="134" y="542" type="offcurve" name="14" />
   <point x="134" y="470" type="curve" smooth="yes" name="15" />
   <point x="134" y="409" type="line" smooth="yes" name="15" />
   <point x="134" y="292" type="offcurve" name="14" />
   <point x="168" y="266" type="offcurve" name="14" />
   <point x="200" y="251" type="curve" smooth="no" name="13" />
   <point x="168" y="237" type="offcurve" name="14" />
   <point x="134" y="214" type="offcurve" name="14" />
   <point x="134" y="98" type="curve" smooth="yes" name="15" />
   <point x="134" y="37" type="line" smooth="yes" name="15" />
   <point x="134" y="-34" type="offcurve" name="14" />
   <point x="116" y="-36" type="offcurve" name="14" />
   <point x="79" y="-36" type="curve" smooth="yes" name="15" />
   <point x="76" y="-36" type="offcurve" name="14" />
   <point x="73" y="-36" type="offcurve" name="14" />
   <point x="70" y="-36" type="curve" smooth="yes" name="15" />
   <point x="44" y="-36" type="line" smooth="no" name="13" />
   <point x="44" y="-138" type="line" smooth="no" name="13" />
   <point x="92" y="-138" type="line" smooth="yes" name="15" />
   <point x="229" y="-138" type="offcurve" name="14" />
   <point x="263" y="-101" type="offcurve" name="14" />
   <point x="263" y="37" type="curve" smooth="yes" name="15" />
   <point x="263" y="98" type="line" smooth="yes" name="15" />
   <point x="263" y="189" type="offcurve" name="14" />
   <point x="307" y="202" type="offcurve" name="14" />
   <point x="362" y="202" type="curve" smooth="no" name="13" />
   <point x="362" y="299" type="line" smooth="no" name="13" />
   <point x="312" y="299" type="offcurve" name="14" />
   <point x="263" y="318" type="offcurve" name="14" />
   <point x="263" y="409" type="curve" smooth="yes" name="15" />
   <point x="263" y="470" type="line" smooth="yes" name="15" />
   <point x="263" y="608" type="offcurve" name="14" />
   <point x="229" y="645" type="offcurve" name="14" />
   <point x="92" y="645" type="curve" smooth="yes" name="15" />
   <point x="44" y="645" type="line" smooth="no" name="13" />
  </contour>
 </outline>
</glyph>
<glyph name="asciitilde" format="1">
 <advance width="527" />
 <unicode hex="007e" />
 <outline>
  <contour>
   <point x="432" y="324" type="line" smooth="no" name="13" />
   <point x="417" y="291" type="offcurve" name="14" />
   <point x="402" y="264" type="offcurve" name="14" />
   <point x="367" y="264" type="curve" smooth="yes" name="15" />
   <point x="341" y="264" type="offcurve" name="14" />
   <point x="300" y="280" type="offcurve" name="14" />
   <point x="265" y="293" type="curve" smooth="yes" name="15" />
   <point x="228" y="307" type="offcurve" name="14" />
   <point x="187" y="323" type="offcurve" name="14" />
   <point x="157" y="323" type="curve" smooth="yes" name="15" />
   <point x="98" y="323" type="offcurve" name="14" />
   <point x="48" y="289" type="offcurve" name="14" />
   <point x="29" y="216" type="curve" smooth="no" name="13" />
   <point x="97" y="167" type="line" smooth="no" name="13" />
   <point x="113" y="204" type="offcurve" name="14" />
   <point x="133" y="226" type="offcurve" name="14" />
   <point x="167" y="226" type="curve" smooth="yes" name="15" />
   <point x="183" y="226" type="offcurve" name="14" />
   <point x="217" y="212" type="offcurve" name="14" />
   <point x="245" y="201" type="curve" smooth="yes" name="15" />
   <point x="282" y="185" type="offcurve" name="14" />
   <point x="325" y="167" type="offcurve" name="14" />
   <point x="359" y="167" type="curve" smooth="yes" name="15" />
   <point x="431" y="167" type="offcurve" name="14" />
   <point x="480" y="205" type="offcurve" name="14" />
   <point x="499" y="275" type="curve" smooth="no" name="13" />
  </contour>
 </outline>
</glyph>
<glyph name="exclamdown" format="1">
 <advance width="302" />
 <unicode hex="00a1" />
 <outline>
  <contour>
   <point x="75" y="272" type="line" smooth="no" name="13" />
   <point x="75" y="-174" type="line" smooth="no" name="13" />
   <point x="220" y="-174" type="line" smooth="no" name="13" />
   <point x="220" y="272" type="line" smooth="no" name="13" />
  </contour>
  <contour>
   <point x="238" y="401" type="curve" smooth="yes" name="15" />
   <point x="238" y="401" type="offcurve" name="14" />
   <point x="238" y="402" type="offcurve" name="14" />
   <point x="238" y="403" type="curve" smooth="yes" name="15" />
   <point x="238" y="446" type="offcurve" name="14" />
   <point x="209" y="485" type="offcurve" name="14" />
   <point x="153" y="485" type="curve" smooth="yes" name="15" />
   <point x="96" y="485" type="offcurve" name="14" />
   <point x="68" y="444" type="offcurve" name="14" />
   <point x="68" y="401" type="curve" smooth="yes" name="15" />
   <point x="68" y="400" type="offcurve" name="14" />
   <point x="68" y="398" type="offcurve" name="14" />
   <point x="68" y="397" type="curve" smooth="yes" name="15" />
   <point x="71" y="357" type="offcurve" name="14" />
   <point x="99" y="319" type="offcurve" name="14" />
   <point x="153" y="319" type="curve" smooth="yes" name="15" />
   <point x="209" y="319" type="offcurve" name="14" />
   <point x="238" y="358" type="offcurve" name="14" />
  </contour>
 </outline>
</glyph>
<glyph name="cent" format="1">
 <advance width="482" />
 <unicode hex="00a2" />
 <outline>
  <contour>
   <point x="288" y="-14" type="line" smooth="no" name="13" />
   <point x="328" y="-11" type="offcurve" name="14" />
   <point x="393" y="-1" type="offcurve" name="14" />
   <point x="451" y="61" type="curve" smooth="no" name="13" />
   <point x="446" y="70" type="offcurve" name="14" />
   <point x="442" y="79" type="offcurve" name="14" />
   <point x="438" y="87" type="curve" smooth="yes" name="15" />
   <point x="429" y="104" type="offcurve" name="14" />
   <point x="421" y="120" type="offcurve" name="14" />
   <point x="412" y="137" type="curve" smooth="no" name="13" />
   <point x="374" y="95" type="offcurve" name="14" />
   <point x="330" y="85" type="offcurve" name="14" />
   <point x="289" y="85" type="curve" smooth="yes" name="15" />
   <point x="288" y="85" type="line" smooth="no" name="13" />
   <point x="288" y="370" type="line" smooth="no" name="13" />
   <point x="288" y="370" type="offcurve" name="14" />
   <point x="289" y="370" type="offcurve" name="14" />
   <point x="289" y="370" type="curve" smooth="yes" name="15" />
   <point x="329" y="370" type="offcurve" name="14" />
   <point x="378" y="354" type="offcurve" name="14" />
   <point x="418" y="324" type="curve" smooth="no" name="13" />
   <point x="422" y="334" type="offcurve" name="14" />
   <point x="425" y="344" type="offcurve" name="14" />
   <point x="429" y="353" type="curve" smooth="yes" name="15" />
   <point x="435" y="368" type="offcurve" name="14" />
   <point x="440" y="382" type="offcurve" name="14" />
   <point x="447" y="397" type="curve" smooth="no" name="13" />
   <point x="368" y="459" type="offcurve" name="14" />
   <point x="313" y="464" type="offcurve" name="14" />
   <point x="288" y="465" type="curve" smooth="no" name="13" />
   <point x="288" y="512" type="line" smooth="no" name="13" />
   <point x="238" y="512" type="line" smooth="no" name="13" />
   <point x="238" y="463" type="line" smooth="no" name="13" />
   <point x="117" y="444" type="offcurve" name="14" />
   <point x="35" y="344" type="offcurve" name="14" />
   <point x="35" y="225" type="curve" smooth="yes" name="15" />
   <point x="35" y="98" type="offcurve" name="14" />
   <point x="113" y="5" type="offcurve" name="14" />
   <point x="238" y="-11" type="curve" smooth="no" name="13" />
   <point x="238" y="-52" type="line" smooth="no" name="13" />
   <point x="288" y="-52" type="line" smooth="no" name="13" />
  </contour>
  <contour>
   <point x="238" y="93" type="line" smooth="no" name="13" />
   <point x="198" y="115" type="offcurve" name="14" />
   <point x="174" y="169" type="offcurve" name="14" />
   <point x="174" y="222" type="curve" smooth="yes" name="15" />
   <point x="174" y="282" type="offcurve" name="14" />
   <point x="196" y="334" type="offcurve" name="14" />
   <point x="238" y="361" type="curve" smooth="no" name="13" />
  </contour>
 </outline>
</glyph>
<glyph name="sterling" format="1">
 <advance width="526" />
 <unicode hex="00a3" />
 <outline>
  <contour>
   <point x="382" y="278" type="line" smooth="no" name="13" />
   <point x="382" y="379" type="line" smooth="no" name="13" />
   <point x="235" y="379" type="line" smooth="no" name="13" />
   <point x="235" y="432" type="line" smooth="yes" name="15" />
   <point x="235" y="495" type="offcurve" name="14" />
   <point x="266" y="528" type="offcurve" name="14" />
   <point x="318" y="528" type="curve" smooth="yes" name="15" />
   <point x="372" y="528" type="offcurve" name="14" />
   <point x="418" y="496" type="offcurve" name="14" />
   <point x="458" y="471" type="curve" smooth="no" name="13" />
   <point x="511" y="556" type="line" smooth="no" name="13" />
   <point x="410" y="633" type="offcurve" name="14" />
   <point x="365" y="645" type="offcurve" name="14" />
   <point x="305" y="645" type="curve" smooth="yes" name="15" />
   <point x="146" y="645" type="offcurve" name="14" />
   <point x="94" y="553" type="offcurve" name="14" />
   <point x="94" y="426" type="curve" smooth="yes" name="15" />
   <point x="94" y="379" type="line" smooth="no" name="13" />
   <point x="29" y="379" type="line" smooth="no" name="13" />
   <point x="29" y="278" type="line" smooth="no" name="13" />
   <point x="94" y="278" type="line" smooth="no" name="13" />
   <point x="94" y="112" type="line" smooth="no" name="13" />
   <point x="31" y="112" type="line" smooth="no" name="13" />
   <point x="31" y="0" type="line" smooth="no" name="13" />
   <point x="452" y="0" type="line" smooth="no" name="13" />
   <point x="452" y="112" type="line" smooth="no" name="13" />
   <point x="235" y="112" type="line" smooth="no" name="13" />
   <point x="235" y="278" type="line" smooth="no" name="13" />
  </contour>
 </outline>
</glyph>
<glyph name="currency" format="1">
 <advance width="473" />
 <unicode hex="00a4" />
 <outline>
  <contour>
   <point x="412" y="85" type="line" smooth="yes" name="15" />
   <point x="414" y="83" type="offcurve" name="14" />
   <point x="416" y="82" type="offcurve" name="14" />
   <point x="419" y="82" type="curve" smooth="yes" name="15" />
   <point x="435" y="82" type="offcurve" name="14" />
   <point x="461" y="113" type="offcurve" name="14" />
   <point x="461" y="127" type="curve" smooth="yes" name="15" />
   <point x="461" y="129" type="offcurve" name="14" />
   <point x="461" y="131" type="offcurve" name="14" />
   <point x="460" y="132" type="curve" smooth="yes" name="15" />
   <point x="388" y="202" type="line" smooth="no" name="13" />
   <point x="410" y="233" type="offcurve" name="14" />
   <point x="420" y="265" type="offcurve" name="14" />
   <point x="420" y="302" type="curve" smooth="yes" name="15" />
   <point x="420" y="341" type="offcurve" name="14" />
   <point x="409" y="375" type="offcurve" name="14" />
   <point x="390" y="402" type="curve" smooth="no" name="13" />
   <point x="460" y="471" type="line" smooth="yes" name="15" />
   <point x="461" y="472" type="offcurve" name="14" />
   <point x="461" y="474" type="offcurve" name="14" />
   <point x="461" y="476" type="curve" smooth="yes" name="15" />
   <point x="461" y="490" type="offcurve" name="14" />
   <point x="434" y="520" type="offcurve" name="14" />
   <point x="418" y="520" type="curve" smooth="yes" name="15" />
   <point x="416" y="520" type="offcurve" name="14" />
   <point x="414" y="519" type="offcurve" name="14" />
   <point x="412" y="517" type="curve" smooth="yes" name="15" />
   <point x="341" y="447" type="line" smooth="no" name="13" />
   <point x="313" y="463" type="offcurve" name="14" />
   <point x="281" y="472" type="offcurve" name="14" />
   <point x="244" y="472" type="curve" smooth="yes" name="15" />
   <point x="209" y="472" type="offcurve" name="14" />
   <point x="177" y="463" type="offcurve" name="14" />
   <point x="150" y="447" type="curve" smooth="no" name="13" />
   <point x="79" y="518" type="line" smooth="yes" name="15" />
   <point x="77" y="520" type="offcurve" name="14" />
   <point x="75" y="520" type="offcurve" name="14" />
   <point x="72" y="520" type="curve" smooth="yes" name="15" />
   <point x="57" y="520" type="offcurve" name="14" />
   <point x="29" y="490" type="offcurve" name="14" />
   <point x="29" y="476" type="curve" smooth="yes" name="15" />
   <point x="29" y="474" type="offcurve" name="14" />
   <point x="30" y="472" type="offcurve" name="14" />
   <point x="31" y="471" type="curve" smooth="yes" name="15" />
   <point x="99" y="404" type="line" smooth="no" name="13" />
   <point x="78" y="377" type="offcurve" name="14" />
   <point x="66" y="342" type="offcurve" name="14" />
   <point x="66" y="302" type="curve" smooth="yes" name="15" />
   <point x="66" y="263" type="offcurve" name="14" />
   <point x="78" y="229" type="offcurve" name="14" />
   <point x="100" y="199" type="curve" smooth="no" name="13" />
   <point x="31" y="132" type="line" smooth="yes" name="15" />
   <point x="30" y="131" type="offcurve" name="14" />
   <point x="29" y="129" type="offcurve" name="14" />
   <point x="29" y="128" type="curve" smooth="yes" name="15" />
   <point x="29" y="114" type="offcurve" name="14" />
   <point x="57" y="83" type="offcurve" name="14" />
   <point x="73" y="83" type="curve" smooth="yes" name="15" />
   <point x="75" y="83" type="offcurve" name="14" />
   <point x="77" y="83" type="offcurve" name="14" />
   <point x="79" y="85" type="curve" smooth="yes" name="15" />
   <point x="151" y="156" type="line" smooth="no" name="13" />
   <point x="177" y="141" type="offcurve" name="14" />
   <point x="209" y="134" type="offcurve" name="14" />
   <point x="244" y="134" type="curve" smooth="yes" name="15" />
   <point x="279" y="134" type="offcurve" name="14" />
   <point x="312" y="142" type="offcurve" name="14" />
   <point x="338" y="157" type="curve" smooth="no" name="13" />
  </contour>
  <contour>
   <point x="245" y="212" type="curve" smooth="yes" name="15" />
   <point x="187" y="212" type="offcurve" name="14" />
   <point x="157" y="255" type="offcurve" name="14" />
   <point x="157" y="304" type="curve" smooth="yes" name="15" />
   <point x="158" y="351" type="offcurve" name="14" />
   <point x="190" y="394" type="offcurve" name="14" />
   <point x="245" y="394" type="curve" smooth="yes" name="15" />
   <point x="299" y="394" type="offcurve" name="14" />
   <point x="328" y="352" type="offcurve" name="14" />
   <point x="329" y="305" type="curve" smooth="yes" name="15" />
   <point x="329" y="256" type="offcurve" name="14" />
   <point x="301" y="212" type="offcurve" name="14" />
  </contour>
 </outline>
</glyph>
<glyph name="yen" format="1">
 <advance width="577" />
 <unicode hex="00a5" />
 <outline>
  <contour>
   <point x="2" y="633" type="line" smooth="no" name="13" />
   <point x="155" y="363" type="line" smooth="no" name="13" />
   <point x="63" y="363" type="line" smooth="no" name="13" />
   <point x="63" y="256" type="line" smooth="no" name="13" />
   <point x="217" y="256" type="line" smooth="no" name="13" />
   <point x="217" y="253" type="offcurve" name="14" />
   <point x="218" y="252" type="offcurve" name="14" />
   <point x="220" y="250" type="curve" smooth="no" name="13" />
   <point x="220" y="200" type="line" smooth="no" name="13" />
   <point x="63" y="200" type="line" smooth="no" name="13" />
   <point x="63" y="91" type="line" smooth="no" name="13" />
   <point x="220" y="91" type="line" smooth="no" name="13" />
   <point x="220" y="0" type="line" smooth="no" name="13" />
   <point x="360" y="0" type="line" smooth="no" name="13" />
   <point x="360" y="91" type="line" smooth="no" name="13" />
   <point x="519" y="91" type="line" smooth="no" name="13" />
   <point x="519" y="200" type="line" smooth="no" name="13" />
   <point x="360" y="200" type="line" smooth="no" name="13" />
   <point x="360" y="250" type="line" smooth="no" name="13" />
   <point x="364" y="256" type="line" smooth="no" name="13" />
   <point x="519" y="256" type="line" smooth="no" name="13" />
   <point x="519" y="363" type="line" smooth="no" name="13" />
   <point x="424" y="363" type="line" smooth="no" name="13" />
   <point x="576" y="633" type="line" smooth="no" name="13" />
   <point x="424" y="633" type="line" smooth="no" name="13" />
   <point x="295" y="363" type="line" smooth="no" name="13" />
   <point x="287" y="363" type="line" smooth="no" name="13" />
   <point x="241" y="453" type="offcurve" name="14" />
   <point x="197" y="542" type="offcurve" name="14" />
   <point x="154" y="633" type="curve" smooth="no" name="13" />
  </contour>
 </outline>
</glyph>
<glyph name="brokenbar" format="1">
 <advance width="266" />
 <unicode hex="00a6" />
 <outline>
  <contour>
   <point x="71" y="230" type="line" smooth="no" name="13" />
   <point x="71" y="-179" type="line" smooth="no" name="13" />
   <point x="196" y="-179" type="line" smooth="no" name="13" />
   <point x="196" y="230" type="line" smooth="no" name="13" />
  </contour>
  <contour>
   <point x="196" y="662" type="line" smooth="no" name="13" />
   <point x="71" y="662" type="line" smooth="no" name="13" />
   <point x="71" y="286" type="line" smooth="no" name="13" />
   <point x="196" y="286" type="line" smooth="no" name="13" />
  </contour>
 </outline>
</glyph>
<glyph name="section" format="1">
 <advance width="468" />
 <unicode hex="00a7" />
 <outline>
  <contour>
   <point x="51" y="-79" type="line" smooth="no" name="13" />
   <point x="86" y="-110" type="offcurve" name="14" />
   <point x="150" y="-140" type="offcurve" name="14" />
   <point x="232" y="-140" type="curve" smooth="yes" name="15" />
   <point x="350" y="-140" type="offcurve" name="14" />
   <point x="420" y="-63" type="offcurve" name="14" />
   <point x="420" y="15" type="curve" smooth="yes" name="15" />
   <point x="420" y="80" type="offcurve" name="14" />
   <point x="403" y="100" type="offcurve" name="14" />
   <point x="386" y="121" type="curve" smooth="no" name="13" />
   <point x="383" y="124" type="offcurve" name="14" />
   <point x="381" y="127" type="offcurve" name="14" />
   <point x="379" y="130" type="curve" smooth="no" name="13" />
   <point x="402" y="143" type="offcurve" name="14" />
   <point x="432" y="179" type="offcurve" name="14" />
   <point x="432" y="232" type="curve" smooth="yes" name="15" />
   <point x="432" y="314" type="offcurve" name="14" />
   <point x="387" y="367" type="offcurve" name="14" />
   <point x="300" y="398" type="curve" smooth="yes" name="15" />
   <point x="233" y="422" type="offcurve" name="14" />
   <point x="184" y="453" type="offcurve" name="14" />
   <point x="184" y="498" type="curve" smooth="yes" name="15" />
   <point x="184" y="529" type="offcurve" name="14" />
   <point x="206" y="545" type="offcurve" name="14" />
   <point x="236" y="545" type="curve" smooth="yes" name="15" />
   <point x="282" y="545" type="offcurve" name="14" />
   <point x="329" y="527" type="offcurve" name="14" />
   <point x="351" y="511" type="curve" smooth="no" name="13" />
   <point x="360" y="527" type="offcurve" name="14" />
   <point x="370" y="544" type="offcurve" name="14" />
   <point x="381" y="560" type="curve" smooth="yes" name="15" />
   <point x="387" y="570" type="offcurve" name="14" />
   <point x="393" y="579" type="offcurve" name="14" />
   <point x="399" y="588" type="curve" smooth="no" name="13" />
   <point x="367" y="613" type="offcurve" name="14" />
   <point x="313" y="645" type="offcurve" name="14" />
   <point x="237" y="645" type="curve" smooth="yes" name="15" />
   <point x="134" y="645" type="offcurve" name="14" />
   <point x="52" y="587" type="offcurve" name="14" />
   <point x="52" y="498" type="curve" smooth="yes" name="15" />
   <point x="52" y="442" type="offcurve" name="14" />
   <point x="78" y="404" type="offcurve" name="14" />
   <point x="115" y="380" type="curve" smooth="no" name="13" />
   <point x="58" y="356" type="offcurve" name="14" />
   <point x="37" y="291" type="offcurve" name="14" />
   <point x="37" y="256" type="curve" smooth="yes" name="15" />
   <point x="37" y="154" type="offcurve" name="14" />
   <point x="108" y="129" type="offcurve" name="14" />
   <point x="173" y="106" type="curve" smooth="yes" name="15" />
   <point x="195" y="98" type="offcurve" name="14" />
   <point x="216" y="91" type="offcurve" name="14" />
   <point x="234" y="81" type="curve" smooth="yes" name="15" />
   <point x="237" y="79" type="offcurve" name="14" />
   <point x="239" y="78" type="offcurve" name="14" />
   <point x="242" y="77" type="curve" smooth="no" name="13" />
   <point x="261" y="66" type="offcurve" name="14" />
   <point x="286" y="53" type="offcurve" name="14" />
   <point x="286" y="18" type="curve" smooth="yes" name="15" />
   <point x="286" y="-12" type="offcurve" name="14" />
   <point x="264" y="-41" type="offcurve" name="14" />
   <point x="217" y="-41" type="curve" smooth="yes" name="15" />
   <point x="175" y="-41" type="offcurve" name="14" />
   <point x="128" y="-24" type="offcurve" name="14" />
   <point x="103" y="-5" type="curve" smooth="no" name="13" />
  </contour>
  <contour>
   <point x="301" y="177" type="curve" smooth="no" name="13" />
   <point x="260" y="190" type="line" smooth="no" name="13" />
   <point x="185" y="205" type="offcurve" name="14" />
   <point x="167" y="235" type="offcurve" name="14" />
   <point x="167" y="268" type="curve" smooth="yes" name="15" />
   <point x="167" y="269" type="offcurve" name="14" />
   <point x="167" y="270" type="offcurve" name="14" />
   <point x="167" y="271" type="curve" smooth="yes" name="15" />
   <point x="167" y="291" type="offcurve" name="14" />
   <point x="178" y="312" type="offcurve" name="14" />
   <point x="185" y="325" type="curve" smooth="no" name="13" />
   <point x="187" y="327" type="offcurve" name="14" />
   <point x="188" y="329" type="offcurve" name="14" />
   <point x="189" y="330" type="curve" smooth="no" name="13" />
   <point x="192" y="329" type="offcurve" name="14" />
   <point x="196" y="328" type="offcurve" name="14" />
   <point x="201" y="327" type="curve" smooth="yes" name="15" />
   <point x="239" y="318" type="offcurve" name="14" />
   <point x="307" y="301" type="offcurve" name="14" />
   <point x="307" y="219" type="curve" smooth="yes" name="15" />
   <point x="307" y="213" type="offcurve" name="14" />
   <point x="307" y="189" type="offcurve" name="14" />
  </contour>
 </outline>
</glyph>
<glyph name="dieresis" format="1">
 <advance width="374" />
 <unicode hex="00a8" />
 <outline>
  <contour>
   <point x="21" y="574" type="curve" smooth="yes" name="15" />
   <point x="21" y="530" type="offcurve" name="14" />
   <point x="51" y="502" type="offcurve" name="14" />
   <point x="93" y="502" type="curve" smooth="yes" name="15" />
   <point x="128" y="502" type="offcurve" name="14" />
   <point x="162" y="530" type="offcurve" name="14" />
   <point x="162" y="574" type="curve" smooth="yes" name="15" />
   <point x="162" y="611" type="offcurve" name="14" />
   <point x="128" y="645" type="offcurve" name="14" />
   <point x="93" y="645" type="curve" smooth="yes" name="15" />
   <point x="51" y="645" type="offcurve" name="14" />
   <point x="21" y="611" type="offcurve" name="14" />
  </contour>
  <contour>
   <point x="211" y="574" type="curve" smooth="yes" name="15" />
   <point x="211" y="530" type="offcurve" name="14" />
   <point x="242" y="502" type="offcurve" name="14" />
   <point x="280" y="502" type="curve" smooth="yes" name="15" />
   <point x="321" y="502" type="offcurve" name="14" />
   <point x="352" y="530" type="offcurve" name="14" />
   <point x="352" y="574" type="curve" smooth="yes" name="15" />
   <point x="352" y="611" type="offcurve" name="14" />
   <point x="321" y="645" type="offcurve" name="14" />
   <point x="280" y="645" type="curve" smooth="yes" name="15" />
   <point x="242" y="645" type="offcurve" name="14" />
   <point x="211" y="611" type="offcurve" name="14" />
  </contour>
 </outline>
</glyph>
<glyph name="copyright" format="1">
 <advance width="672" />
 <unicode hex="00a9" />
 <outline>
  <contour>
   <point x="468" y="459" type="line" smooth="no" name="13" />
   <point x="430" y="485" type="offcurve" name="14" />
   <point x="397" y="502" type="offcurve" name="14" />
   <point x="345" y="502" type="curve" smooth="yes" name="15" />
   <point x="241" y="502" type="offcurve" name="14" />
   <point x="158" y="418" type="offcurve" name="14" />
   <point x="158" y="308" type="curve" smooth="yes" name="15" />
   <point x="158" y="178" type="offcurve" name="14" />
   <point x="239" y="121" type="offcurve" name="14" />
   <point x="351" y="121" type="curve" smooth="yes" name="15" />
   <point x="382" y="121" type="offcurve" name="14" />
   <point x="434" y="130" type="offcurve" name="14" />
   <point x="474" y="171" type="curve" smooth="no" name="13" />
   <point x="447" y="223" type="line" smooth="no" name="13" />
   <point x="419" y="199" type="offcurve" name="14" />
   <point x="396" y="185" type="offcurve" name="14" />
   <point x="353" y="185" type="curve" smooth="yes" name="15" />
   <point x="311" y="185" type="offcurve" name="14" />
   <point x="258" y="224" type="offcurve" name="14" />
   <point x="258" y="308" type="curve" smooth="yes" name="15" />
   <point x="258" y="395" type="offcurve" name="14" />
   <point x="304" y="434" type="offcurve" name="14" />
   <point x="352" y="434" type="curve" smooth="yes" name="15" />
   <point x="396" y="434" type="offcurve" name="14" />
   <point x="411" y="423" type="offcurve" name="14" />
   <point x="441" y="406" type="curve" smooth="no" name="13" />
  </contour>
  <contour>
   <point x="35" y="315" type="curve" smooth="yes" name="15" />
   <point x="35" y="150" type="offcurve" name="14" />
   <point x="171" y="14" type="offcurve" name="14" />
   <point x="336" y="14" type="curve" smooth="yes" name="15" />
   <point x="502" y="14" type="offcurve" name="14" />
   <point x="638" y="150" type="offcurve" name="14" />
   <point x="638" y="315" type="curve" smooth="yes" name="15" />
   <point x="638" y="481" type="offcurve" name="14" />
   <point x="502" y="617" type="offcurve" name="14" />
   <point x="336" y="617" type="curve" smooth="yes" name="15" />
   <point x="171" y="617" type="offcurve" name="14" />
   <point x="35" y="481" type="offcurve" name="14" />
  </contour>
  <contour>
   <point x="113" y="313" type="curve" smooth="yes" name="15" />
   <point x="113" y="439" type="offcurve" name="14" />
   <point x="217" y="543" type="offcurve" name="14" />
   <point x="344" y="543" type="curve" smooth="yes" name="15" />
   <point x="467" y="543" type="offcurve" name="14" />
   <point x="572" y="439" type="offcurve" name="14" />
   <point x="572" y="313" type="curve" smooth="yes" name="15" />
   <point x="572" y="189" type="offcurve" name="14" />
   <point x="462" y="88" type="offcurve" name="14" />
   <point x="339" y="88" type="curve" smooth="yes" name="15" />
   <point x="212" y="88" type="offcurve" name="14" />
   <point x="113" y="189" type="offcurve" name="14" />
  </contour>
 </outline>
</glyph>
<glyph name="ordfeminine" format="1">
 <advance width="259" />
 <unicode hex="00aa" />
 <outline>
  <contour>
   <point x="236" y="406" type="line" smooth="no" name="13" />
   <point x="236" y="544" type="line" smooth="yes" name="15" />
   <point x="236" y="611" type="offcurve" name="14" />
   <point x="201" y="645" type="offcurve" name="14" />
   <point x="143" y="645" type="curve" smooth="yes" name="15" />
   <point x="104" y="645" type="offcurve" name="14" />
   <point x="71" y="631" type="offcurve" name="14" />
   <point x="46" y="611" type="curve" smooth="no" name="13" />
   <point x="60" y="570" type="line" smooth="no" name="13" />
   <point x="86" y="583" type="offcurve" name="14" />
   <point x="109" y="588" type="offcurve" name="14" />
   <point x="139" y="588" type="curve" smooth="yes" name="15" />
   <point x="159" y="588" type="offcurve" name="14" />
   <point x="169" y="581" type="offcurve" name="14" />
   <point x="169" y="561" type="curve" smooth="yes" name="15" />
   <point x="169" y="559" type="line" smooth="no" name="13" />
   <point x="142" y="559" type="line" smooth="yes" name="15" />
   <point x="59" y="559" type="offcurve" name="14" />
   <point x="20" y="514" type="offcurve" name="14" />
   <point x="20" y="473" type="curve" smooth="yes" name="15" />
   <point x="20" y="418" type="offcurve" name="14" />
   <point x="69" y="400" type="offcurve" name="14" />
   <point x="93" y="400" type="curve" smooth="yes" name="15" />
   <point x="134" y="400" type="offcurve" name="14" />
   <point x="157" y="413" type="offcurve" name="14" />
   <point x="174" y="436" type="curve" smooth="no" name="13" />
   <point x="178" y="406" type="line" smooth="no" name="13" />
  </contour>
  <contour>
   <point x="168" y="518" type="line" smooth="no" name="13" />
   <point x="168" y="490" type="line" smooth="yes" name="15" />
   <point x="168" y="472" type="offcurve" name="14" />
   <point x="160" y="444" type="offcurve" name="14" />
   <point x="121" y="444" type="curve" smooth="yes" name="15" />
   <point x="105" y="444" type="offcurve" name="14" />
   <point x="85" y="451" type="offcurve" name="14" />
   <point x="85" y="476" type="curve" smooth="yes" name="15" />
   <point x="85" y="506" type="offcurve" name="14" />
   <point x="104" y="518" type="offcurve" name="14" />
   <point x="150" y="518" type="curve" smooth="yes" name="15" />
  </contour>
 </outline>
</glyph>
<glyph name="guillemotleft" format="1">
 <advance width="675" />
 <unicode hex="00ab" />
 <outline>
  <contour>
   <point x="338" y="-5" type="curve" smooth="no" name="13" />
   <point x="338" y="123" type="line" smooth="no" name="13" />
   <point x="279" y="145" type="offcurve" name="14" />
   <point x="231" y="176" type="offcurve" name="14" />
   <point x="200" y="236" type="curve" smooth="no" name="13" />
   <point x="231" y="297" type="offcurve" name="14" />
   <point x="279" y="328" type="offcurve" name="14" />
   <point x="338" y="349" type="curve" smooth="no" name="13" />
   <point x="338" y="477" type="line" smooth="no" name="13" />
   <point x="336" y="477" type="offcurve" name="14" />
   <point x="335" y="477" type="offcurve" name="14" />
   <point x="333" y="477" type="curve" smooth="yes" name="15" />
   <point x="222" y="477" type="offcurve" name="14" />
   <point x="102" y="373" type="offcurve" name="14" />
   <point x="50" y="236" type="curve" smooth="no" name="13" />
   <point x="103" y="99" type="offcurve" name="14" />
   <point x="223" y="-5" type="offcurve" name="14" />
   <point x="335" y="-5" type="curve" smooth="yes" name="15" />
   <point x="336" y="-5" type="offcurve" name="14" />
   <point x="337" y="-5" type="offcurve" name="14" />
  </contour>
  <contour>
   <point x="635" y="-5" type="curve" smooth="no" name="13" />
   <point x="635" y="124" type="line" smooth="no" name="13" />
   <point x="576" y="145" type="offcurve" name="14" />
   <point x="529" y="176" type="offcurve" name="14" />
   <point x="498" y="236" type="curve" smooth="no" name="13" />
   <point x="529" y="297" type="offcurve" name="14" />
   <point x="576" y="328" type="offcurve" name="14" />
   <point x="635" y="349" type="curve" smooth="no" name="13" />
   <point x="635" y="477" type="line" smooth="no" name="13" />
   <point x="633" y="477" type="offcurve" name="14" />
   <point x="632" y="477" type="offcurve" name="14" />
   <point x="630" y="477" type="curve" smooth="yes" name="15" />
   <point x="519" y="477" type="offcurve" name="14" />
   <point x="400" y="373" type="offcurve" name="14" />
   <point x="347" y="236" type="curve" smooth="no" name="13" />
   <point x="400" y="99" type="offcurve" name="14" />
   <point x="520" y="-5" type="offcurve" name="14" />
   <point x="632" y="-5" type="curve" smooth="yes" name="15" />
   <point x="633" y="-5" type="offcurve" name="14" />
   <point x="634" y="-5" type="offcurve" name="14" />
  </contour>
 </outline>
</glyph>
<glyph name="logicalnot" format="1">
 <advance width="475" />
 <unicode hex="00ac" />
 <outline>
  <contour>
   <point x="309" y="0" type="line" smooth="no" name="13" />
   <point x="447" y="0" type="line" smooth="no" name="13" />
   <point x="447" y="249" type="line" smooth="no" name="13" />
   <point x="29" y="249" type="line" smooth="no" name="13" />
   <point x="29" y="139" type="line" smooth="no" name="13" />
   <point x="309" y="139" type="line" smooth="no" name="13" />
  </contour>
 </outline>
</glyph>
<glyph name="registered" format="1">
 <advance width="384" />
 <unicode hex="00ae" />
 <outline>
  <contour>
   <point x="195" y="470" type="line" smooth="no" name="13" />
   <point x="222" y="410" type="line" smooth="no" name="13" />
   <point x="279" y="410" type="line" smooth="no" name="13" />
   <point x="239" y="477" type="line" smooth="no" name="13" />
   <point x="254" y="487" type="offcurve" name="14" />
   <point x="266" y="496" type="offcurve" name="14" />
   <point x="266" y="520" type="curve" smooth="yes" name="15" />
   <point x="266" y="551" type="offcurve" name="14" />
   <point x="243" y="567" type="offcurve" name="14" />
   <point x="214" y="567" type="curve" smooth="yes" name="15" />
   <point x="138" y="567" type="line" smooth="no" name="13" />
   <point x="138" y="410" type="line" smooth="no" name="13" />
   <point x="187" y="410" type="line" smooth="no" name="13" />
   <point x="187" y="470" type="line" smooth="no" name="13" />
  </contour>
  <contour>
   <point x="187" y="527" type="line" smooth="no" name="13" />
   <point x="195" y="527" type="line" smooth="yes" name="15" />
   <point x="211" y="527" type="offcurve" name="14" />
   <point x="220" y="525" type="offcurve" name="14" />
   <point x="220" y="513" type="curve" smooth="yes" name="15" />
   <point x="220" y="501" type="offcurve" name="14" />
   <point x="211" y="501" type="offcurve" name="14" />
   <point x="192" y="501" type="curve" smooth="yes" name="15" />
   <point x="187" y="501" type="line" smooth="no" name="13" />
  </contour>
  <contour>
   <point x="194" y="322" type="curve" smooth="yes" name="15" />
   <point x="283" y="322" type="offcurve" name="14" />
   <point x="353" y="395" type="offcurve" name="14" />
   <point x="353" y="484" type="curve" smooth="yes" name="15" />
   <point x="353" y="573" type="offcurve" name="14" />
   <point x="283" y="646" type="offcurve" name="14" />
   <point x="194" y="646" type="curve" smooth="yes" name="15" />
   <point x="105" y="646" type="offcurve" name="14" />
   <point x="32" y="573" type="offcurve" name="14" />
   <point x="32" y="484" type="curve" smooth="yes" name="15" />
   <point x="32" y="395" type="offcurve" name="14" />
   <point x="105" y="322" type="offcurve" name="14" />
  </contour>
  <contour>
   <point x="194" y="607" type="curve" smooth="yes" name="15" />
   <point x="260" y="607" type="offcurve" name="14" />
   <point x="313" y="557" type="offcurve" name="14" />
   <point x="313" y="484" type="curve" smooth="yes" name="15" />
   <point x="313" y="414" type="offcurve" name="14" />
   <point x="271" y="361" type="offcurve" name="14" />
   <point x="194" y="361" type="curve" smooth="yes" name="15" />
   <point x="129" y="361" type="offcurve" name="14" />
   <point x="75" y="405" type="offcurve" name="14" />
   <point x="75" y="484" type="curve" smooth="yes" name="15" />
   <point x="75" y="564" type="offcurve" name="14" />
   <point x="129" y="607" type="offcurve" name="14" />
  </contour>
 </outline>
</glyph>
<glyph name="macron" format="1">
 <advance width="257" />
 <unicode hex="00af" />
 <outline>
  <contour>
   <point x="255" y="534" type="line" smooth="no" name="13" />
   <point x="255" y="633" type="line" smooth="no" name="13" />
   <point x="3" y="633" type="line" smooth="no" name="13" />
   <point x="3" y="534" type="line" smooth="no" name="13" />
  </contour>
 </outline>
</glyph>
<glyph name="degree" format="1">
 <advance width="253" />
 <unicode hex="00b0" />
 <outline>
  <contour>
   <point x="12" y="537" type="curve" smooth="yes" name="15" />
   <point x="12" y="477" type="offcurve" name="14" />
   <point x="64" y="421" type="offcurve" name="14" />
   <point x="127" y="421" type="curve" smooth="yes" name="15" />
   <point x="190" y="421" type="offcurve" name="14" />
   <point x="242" y="477" type="offcurve" name="14" />
   <point x="242" y="537" type="curve" smooth="yes" name="15" />
   <point x="242" y="598" type="offcurve" name="14" />
   <point x="190" y="652" type="offcurve" name="14" />
   <point x="127" y="652" type="curve" smooth="yes" name="15" />
   <point x="64" y="652" type="offcurve" name="14" />
   <point x="12" y="598" type="offcurve" name="14" />
  </contour>
  <contour>
   <point x="79" y="539" type="curve" smooth="yes" name="15" />
   <point x="79" y="563" type="offcurve" name="14" />
   <point x="100" y="587" type="offcurve" name="14" />
   <point x="128" y="587" type="curve" smooth="yes" name="15" />
   <point x="155" y="587" type="offcurve" name="14" />
   <point x="176" y="563" type="offcurve" name="14" />
   <point x="176" y="539" type="curve" smooth="yes" name="15" />
   <point x="176" y="514" type="offcurve" name="14" />
   <point x="155" y="490" type="offcurve" name="14" />
   <point x="128" y="490" type="curve" smooth="yes" name="15" />
   <point x="100" y="490" type="offcurve" name="14" />
   <point x="79" y="513" type="offcurve" name="14" />
  </contour>
 </outline>
</glyph>
<glyph name="plusminus" format="1">
 <advance width="514" />
 <unicode hex="00b1" />
 <outline>
  <contour>
   <point x="196" y="218" type="line" smooth="no" name="13" />
   <point x="196" y="114" type="line" smooth="no" name="13" />
   <point x="321" y="114" type="line" smooth="no" name="13" />
   <point x="321" y="218" type="line" smooth="no" name="13" />
   <point x="486" y="218" type="line" smooth="no" name="13" />
   <point x="486" y="327" type="line" smooth="no" name="13" />
   <point x="321" y="327" type="line" smooth="no" name="13" />
   <point x="321" y="454" type="line" smooth="no" name="13" />
   <point x="196" y="454" type="line" smooth="no" name="13" />
   <point x="196" y="327" type="line" smooth="no" name="13" />
   <point x="29" y="327" type="line" smooth="no" name="13" />
   <point x="29" y="218" type="line" smooth="no" name="13" />
  </contour>
  <contour>
   <point x="486" y="0" type="line" smooth="no" name="13" />
   <point x="486" y="108" type="line" smooth="no" name="13" />
   <point x="29" y="108" type="line" smooth="no" name="13" />
   <point x="29" y="0" type="line" smooth="no" name="13" />
  </contour>
 </outline>
</glyph>
<glyph name="twosuperior" format="1">
 <advance width="381" />
 <unicode hex="00b2" />
 <outline>
  <contour>
   <point x="49" y="316" type="line" smooth="no" name="13" />
   <point x="313" y="316" type="line" smooth="no" name="13" />
   <point x="313" y="396" type="line" smooth="no" name="13" />
   <point x="213" y="396" type="line" smooth="no" name="13" />
   <point x="252" y="408" type="offcurve" name="14" />
   <point x="325" y="436" type="offcurve" name="14" />
   <point x="325" y="533" type="curve" smooth="yes" name="15" />
   <point x="325" y="564" type="offcurve" name="14" />
   <point x="303" y="645" type="offcurve" name="14" />
   <point x="191" y="645" type="curve" smooth="yes" name="15" />
   <point x="136" y="645" type="offcurve" name="14" />
   <point x="91" y="630" type="offcurve" name="14" />
   <point x="44" y="582" type="curve" smooth="no" name="13" />
   <point x="92" y="533" type="line" smooth="no" name="13" />
   <point x="121" y="552" type="offcurve" name="14" />
   <point x="135" y="561" type="offcurve" name="14" />
   <point x="168" y="561" type="curve" smooth="yes" name="15" />
   <point x="192" y="561" type="offcurve" name="14" />
   <point x="217" y="551" type="offcurve" name="14" />
   <point x="217" y="527" type="curve" smooth="yes" name="15" />
   <point x="217" y="469" type="offcurve" name="14" />
   <point x="92" y="413" type="offcurve" name="14" />
   <point x="49" y="396" type="curve" smooth="no" name="13" />
  </contour>
 </outline>
</glyph>
<glyph name="threesuperior" format="1">
 <advance width="385" />
 <unicode hex="00b3" />
 <outline>
  <contour>
   <point x="128" y="521" type="line" smooth="no" name="13" />
   <point x="128" y="442" type="line" smooth="no" name="13" />
   <point x="168" y="442" type="line" smooth="yes" name="15" />
   <point x="198" y="442" type="offcurve" name="14" />
   <point x="222" y="440" type="offcurve" name="14" />
   <point x="222" y="420" type="curve" smooth="yes" name="15" />
   <point x="222" y="399" type="offcurve" name="14" />
   <point x="206" y="394" type="offcurve" name="14" />
   <point x="191" y="394" type="curve" smooth="yes" name="15" />
   <point x="168" y="394" type="offcurve" name="14" />
   <point x="149" y="401" type="offcurve" name="14" />
   <point x="116" y="424" type="curve" smooth="no" name="13" />
   <point x="99" y="407" type="offcurve" name="14" />
   <point x="80" y="390" type="offcurve" name="14" />
   <point x="62" y="373" type="curve" smooth="no" name="13" />
   <point x="118" y="315" type="offcurve" name="14" />
   <point x="180" y="314" type="offcurve" name="14" />
   <point x="215" y="314" type="curve" smooth="yes" name="15" />
   <point x="301" y="314" type="offcurve" name="14" />
   <point x="330" y="360" type="offcurve" name="14" />
   <point x="330" y="411" type="curve" smooth="yes" name="15" />
   <point x="330" y="454" type="offcurve" name="14" />
   <point x="296" y="484" type="offcurve" name="14" />
   <point x="248" y="491" type="curve" smooth="no" name="13" />
   <point x="294" y="497" type="offcurve" name="14" />
   <point x="325" y="514" type="offcurve" name="14" />
   <point x="325" y="557" type="curve" smooth="yes" name="15" />
   <point x="325" y="591" type="offcurve" name="14" />
   <point x="301" y="645" type="offcurve" name="14" />
   <point x="201" y="645" type="curve" smooth="yes" name="15" />
   <point x="155" y="645" type="offcurve" name="14" />
   <point x="109" y="632" type="offcurve" name="14" />
   <point x="62" y="585" type="curve" smooth="no" name="13" />
   <point x="112" y="536" type="line" smooth="no" name="13" />
   <point x="144" y="554" type="offcurve" name="14" />
   <point x="172" y="561" type="offcurve" name="14" />
   <point x="192" y="561" type="curve" smooth="yes" name="15" />
   <point x="208" y="561" type="offcurve" name="14" />
   <point x="217" y="554" type="offcurve" name="14" />
   <point x="217" y="541" type="curve" smooth="yes" name="15" />
   <point x="217" y="523" type="offcurve" name="14" />
   <point x="191" y="521" type="offcurve" name="14" />
   <point x="171" y="521" type="curve" smooth="yes" name="15" />
  </contour>
 </outline>
</glyph>
<glyph name="acute" format="1">
 <advance width="231" />
 <unicode hex="00b4" />
 <outline>
  <contour>
   <point x="220" y="655" type="line" smooth="no" name="13" />
   <point x="87" y="655" type="line" smooth="no" name="13" />
   <point x="12" y="503" type="line" smooth="no" name="13" />
   <point x="107" y="503" type="line" smooth="no" name="13" />
  </contour>
 </outline>
</glyph>
<glyph name="mu" format="1">
 <advance width="600" />
 <unicode hex="00b5" />
 <outline>
  <contour>
   <point x="65" y="-181" type="line" smooth="no" name="13" />
   <point x="197" y="-181" type="line" smooth="no" name="13" />
   <point x="197" y="21" type="line" smooth="no" name="13" />
   <point x="213" y="2" type="offcurve" name="14" />
   <point x="232" y="-12" type="offcurve" name="14" />
   <point x="278" y="-12" type="curve" smooth="yes" name="15" />
   <point x="316" y="-12" type="offcurve" name="14" />
   <point x="342" y="7" type="offcurve" name="14" />
   <point x="367" y="24" type="curve" smooth="yes" name="15" />
   <point x="371" y="27" type="offcurve" name="14" />
   <point x="374" y="30" type="offcurve" name="14" />
   <point x="378" y="32" type="curve" smooth="no" name="13" />
   <point x="390" y="10" type="offcurve" name="14" />
   <point x="403" y="-13" type="offcurve" name="14" />
   <point x="458" y="-13" type="curve" smooth="yes" name="15" />
   <point x="524" y="-13" type="offcurve" name="14" />
   <point x="573" y="24" type="offcurve" name="14" />
   <point x="590" y="41" type="curve" smooth="no" name="13" />
   <point x="546" y="104" type="line" smooth="no" name="13" />
   <point x="533" y="95" type="offcurve" name="14" />
   <point x="521" y="90" type="offcurve" name="14" />
   <point x="512" y="90" type="curve" smooth="yes" name="15" />
   <point x="512" y="90" type="offcurve" name="14" />
   <point x="511" y="90" type="offcurve" name="14" />
   <point x="511" y="90" type="curve" smooth="yes" name="15" />
   <point x="507" y="90" type="offcurve" name="14" />
   <point x="496" y="91" type="offcurve" name="14" />
   <point x="496" y="115" type="curve" smooth="yes" name="15" />
   <point x="496" y="454" type="line" smooth="no" name="13" />
   <point x="362" y="454" type="line" smooth="no" name="13" />
   <point x="362" y="109" type="line" smooth="no" name="13" />
   <point x="350" y="102" type="offcurve" name="14" />
   <point x="305" y="92" type="offcurve" name="14" />
   <point x="284" y="92" type="curve" smooth="yes" name="15" />
   <point x="222" y="92" type="offcurve" name="14" />
   <point x="197" y="129" type="offcurve" name="14" />
   <point x="197" y="239" type="curve" smooth="yes" name="15" />
   <point x="197" y="454" type="line" smooth="no" name="13" />
   <point x="65" y="454" type="line" smooth="no" name="13" />
  </contour>
 </outline>
</glyph>
<glyph name="paragraph" format="1">
 <advance width="547" />
 <unicode hex="00b6" />
 <outline>
  <contour>
   <point x="471" y="0" type="line" smooth="no" name="13" />
   <point x="471" y="633" type="line" smooth="no" name="13" />
   <point x="372" y="633" type="line" smooth="no" name="13" />
   <point x="372" y="0" type="line" smooth="no" name="13" />
  </contour>
  <contour>
   <point x="343" y="633" type="line" smooth="no" name="13" />
   <point x="190" y="633" type="line" smooth="yes" name="15" />
   <point x="93" y="633" type="offcurve" name="14" />
   <point x="33" y="584" type="offcurve" name="14" />
   <point x="33" y="492" type="curve" smooth="yes" name="15" />
   <point x="33" y="416" type="offcurve" name="14" />
   <point x="64" y="357" type="offcurve" name="14" />
   <point x="200" y="357" type="curve" smooth="yes" name="15" />
   <point x="243" y="357" type="line" smooth="no" name="13" />
   <point x="243" y="0" type="line" smooth="no" name="13" />
   <point x="343" y="0" type="line" smooth="no" name="13" />
  </contour>
 </outline>
</glyph>
<glyph name="periodcentered" format="1">
 <advance width="194" />
 <unicode hex="00b7" />
 <outline>
  <contour>
   <point x="26" y="374" type="curve" smooth="yes" name="15" />
   <point x="26" y="335" type="offcurve" name="14" />
   <point x="58" y="304" type="offcurve" name="14" />
   <point x="98" y="304" type="curve" smooth="yes" name="15" />
   <point x="137" y="304" type="offcurve" name="14" />
   <point x="169" y="335" type="offcurve" name="14" />
   <point x="169" y="374" type="curve" smooth="yes" name="15" />
   <point x="169" y="414" type="offcurve" name="14" />
   <point x="137" y="447" type="offcurve" name="14" />
   <point x="98" y="447" type="curve" smooth="yes" name="15" />
   <point x="58" y="447" type="offcurve" name="14" />
   <point x="26" y="414" type="offcurve" name="14" />
  </contour>
 </outline>
</glyph>
<glyph name="cedilla" format="1">
 <advance width="224" />
 <unicode hex="00b8" />
 <outline>
  <contour>
   <point x="61" y="10" type="line" smooth="no" name="13" />
   <point x="40" y="-55" type="line" smooth="no" name="13" />
   <point x="54" y="-53" type="offcurve" name="14" />
   <point x="63" y="-53" type="offcurve" name="14" />
   <point x="73" y="-53" type="curve" smooth="yes" name="15" />
   <point x="105" y="-53" type="offcurve" name="14" />
   <point x="118" y="-61" type="offcurve" name="14" />
   <point x="118" y="-81" type="curve" smooth="yes" name="15" />
   <point x="118" y="-98" type="offcurve" name="14" />
   <point x="107" y="-106" type="offcurve" name="14" />
   <point x="80" y="-106" type="curve" smooth="yes" name="15" />
   <point x="66" y="-106" type="offcurve" name="14" />
   <point x="37" y="-100" type="offcurve" name="14" />
   <point x="26" y="-97" type="curve" smooth="no" name="13" />
   <point x="12" y="-150" type="line" smooth="no" name="13" />
   <point x="33" y="-158" type="offcurve" name="14" />
   <point x="60" y="-166" type="offcurve" name="14" />
   <point x="106" y="-166" type="curve" smooth="yes" name="15" />
   <point x="172" y="-166" type="offcurve" name="14" />
   <point x="212" y="-136" type="offcurve" name="14" />
   <point x="212" y="-86" type="curve" smooth="yes" name="15" />
   <point x="212" y="-46" type="offcurve" name="14" />
   <point x="183" y="-25" type="offcurve" name="14" />
   <point x="152" y="-23" type="curve" smooth="yes" name="15" />
   <point x="145" y="-23" type="line" smooth="no" name="13" />
   <point x="157" y="10" type="line" smooth="no" name="13" />
  </contour>
 </outline>
</glyph>
<glyph name="onesuperior" format="1">
 <advance width="335" />
 <unicode hex="00b9" />
 <outline>
  <contour>
   <point x="260" y="633" type="line" smooth="no" name="13" />
   <point x="139" y="633" type="line" smooth="no" name="13" />
   <point x="19" y="518" type="line" smooth="no" name="13" />
   <point x="81" y="446" type="line" smooth="no" name="13" />
   <point x="153" y="509" type="line" smooth="no" name="13" />
   <point x="153" y="318" type="line" smooth="no" name="13" />
   <point x="260" y="318" type="line" smooth="no" name="13" />
  </contour>
 </outline>
</glyph>
<glyph name="ordmasculine" format="1">
 <advance width="284" />
 <unicode hex="00ba" />
 <outline>
  <contour>
   <point x="146" y="645" type="curve" smooth="yes" name="15" />
   <point x="75" y="645" type="offcurve" name="14" />
   <point x="20" y="601" type="offcurve" name="14" />
   <point x="20" y="522" type="curve" smooth="yes" name="15" />
   <point x="20" y="441" type="offcurve" name="14" />
   <point x="82" y="400" type="offcurve" name="14" />
   <point x="147" y="400" type="curve" smooth="yes" name="15" />
   <point x="209" y="400" type="offcurve" name="14" />
   <point x="265" y="443" type="offcurve" name="14" />
   <point x="265" y="522" type="curve" smooth="yes" name="15" />
   <point x="265" y="603" type="offcurve" name="14" />
   <point x="208" y="645" type="offcurve" name="14" />
  </contour>
  <contour>
   <point x="177" y="522" type="curve" smooth="yes" name="15" />
   <point x="177" y="468" type="offcurve" name="14" />
   <point x="156" y="462" type="offcurve" name="14" />
   <point x="142" y="462" type="curve" smooth="yes" name="15" />
   <point x="128" y="462" type="offcurve" name="14" />
   <point x="108" y="468" type="offcurve" name="14" />
   <point x="108" y="522" type="curve" smooth="yes" name="15" />
   <point x="108" y="571" type="offcurve" name="14" />
   <point x="126" y="581" type="offcurve" name="14" />
   <point x="145" y="581" type="curve" smooth="yes" name="15" />
   <point x="161" y="581" type="offcurve" name="14" />
   <point x="177" y="565" type="offcurve" name="14" />
  </contour>
 </outline>
</glyph>
<glyph name="guillemotright" format="1">
 <advance width="675" />
 <unicode hex="00bb" />
 <outline>
  <contour>
   <point x="40" y="-5" type="line" smooth="no" name="13" />
   <point x="41" y="-5" type="offcurve" name="14" />
   <point x="42" y="-5" type="offcurve" name="14" />
   <point x="43" y="-5" type="curve" smooth="yes" name="15" />
   <point x="155" y="-5" type="offcurve" name="14" />
   <point x="275" y="99" type="offcurve" name="14" />
   <point x="328" y="236" type="curve" smooth="no" name="13" />
   <point x="275" y="373" type="offcurve" name="14" />
   <point x="156" y="477" type="offcurve" name="14" />
   <point x="45" y="477" type="curve" smooth="yes" name="15" />
   <point x="43" y="477" type="offcurve" name="14" />
   <point x="42" y="477" type="offcurve" name="14" />
   <point x="40" y="477" type="curve" smooth="no" name="13" />
   <point x="40" y="349" type="line" smooth="no" name="13" />
   <point x="99" y="328" type="offcurve" name="14" />
   <point x="146" y="297" type="offcurve" name="14" />
   <point x="177" y="236" type="curve" smooth="no" name="13" />
   <point x="146" y="176" type="offcurve" name="14" />
   <point x="99" y="145" type="offcurve" name="14" />
   <point x="40" y="124" type="curve" smooth="no" name="13" />
  </contour>
  <contour>
   <point x="337" y="-5" type="line" smooth="no" name="13" />
   <point x="338" y="-5" type="offcurve" name="14" />
   <point x="339" y="-5" type="offcurve" name="14" />
   <point x="340" y="-5" type="curve" smooth="yes" name="15" />
   <point x="452" y="-5" type="offcurve" name="14" />
   <point x="572" y="99" type="offcurve" name="14" />
   <point x="625" y="236" type="curve" smooth="no" name="13" />
   <point x="573" y="373" type="offcurve" name="14" />
   <point x="453" y="477" type="offcurve" name="14" />
   <point x="342" y="477" type="curve" smooth="yes" name="15" />
   <point x="340" y="477" type="offcurve" name="14" />
   <point x="339" y="477" type="offcurve" name="14" />
   <point x="337" y="477" type="curve" smooth="no" name="13" />
   <point x="337" y="349" type="line" smooth="no" name="13" />
   <point x="396" y="328" type="offcurve" name="14" />
   <point x="444" y="297" type="offcurve" name="14" />
   <point x="475" y="236" type="curve" smooth="no" name="13" />
   <point x="444" y="176" type="offcurve" name="14" />
   <point x="396" y="145" type="offcurve" name="14" />
   <point x="337" y="124" type="curve" smooth="no" name="13" />
  </contour>
 </outline>
</glyph>
